<svg width="140" height="100" fill="none" xmlns="http://www.w3.org/2000/svg"><g clip-path="url(#clip0)"><g opacity=".5"><path opacity=".5" d="M137.901 46.62h-13.409a1.79 1.79 0 00-1.791 1.79v13.41c0 .99.802 1.79 1.791 1.79h13.409a1.79 1.79 0 001.79-1.79V48.41a1.79 1.79 0 00-1.79-1.79z" fill="#D0D2D5"/><path opacity=".1" d="M128.787 51.503h4.818s4.058 3.55 0 7.227h-4.818s-4.057-3.296 0-7.227z" fill="#000"/><path opacity=".5" d="M129.928 53.53h-.634v1.902h.634v-1.901zm3.17-.253h-.634v2.282h.634v-2.282zm-1.902 3.297a.76.76 0 01.761.76v.634h-1.521v-.634a.763.763 0 01.76-.76z" fill="#3F3D56"/></g><path d="M79.725 30.235c.402-.009.803.021 1.203 0 .367-.018.73-.077 1.097-.114.626-.062 1.258-.057 1.887-.084.413-.018.85-.058 1.184-.302.314-.227.49-.597.77-.866 1.14-1.096 1.923-2.563 2.937-3.78.254-.31.519-.618.748-.949.44-.634.751-1.353 1.06-2.063.122-.263.224-.535.305-.814.057-.223.086-.454.162-.672.157-.446.535-.837.58-1.307l-.053.008c.462-.588.39-1.61.62-2.363.145-.446.322-.882.528-1.304l.848-1.848c.146-.317.298-.644.55-.887.306-.296.732-.443 1.039-.737a1.61 1.61 0 00.398-.648l.027.025c.162.159.289.353.447.517.341.352.814.554 1.162.9.177.176.323.39.537.518a.596.596 0 00.69-.085c.623-.547 1.551-.598 2.224-1.081.186-.134.349-.298.524-.445a7.12 7.12 0 011.352-.85c.283.005.564.045.836.12.39.107.772.286 1.178.278.362-.017.709-.15.99-.38.207-.16.396-.38.426-.634a.811.811 0 00-.304-.685 1.518 1.518 0 00-.086-.067.846.846 0 00-.306-.59c-.205-.16-.44-.28-.691-.352a1.488 1.488 0 00-.436-.099 1.988 1.988 0 00-.677.159 6.52 6.52 0 01-1.328.279c-.08.007-.242-.01-.38-.01l-.047-.135c-.527.244-1.141.043-1.719.045-.282 0-.562.049-.842.067a7.8 7.8 0 01-.93-.02l-.938-.06c-.4-.02-.799-.063-1.194-.127-.105-.214-.21-.429-.329-.634a5.866 5.866 0 00-.696-.967 3.36 3.36 0 01.335-.254l.023-.014c.029-.016.064-.034.104-.052a2.4 2.4 0 003.43-2.165 1.841 1.841 0 00.317-.159l.054-.037a1.055 1.055 0 00.143-.132.604.604 0 00.073-.106l.021-.044c.006-.016 0-.012.006-.018.007-.007.01-.023.013-.033.004-.01 0-.015.007-.023l.007-.03v-.393a.3.3 0 000-.035v-.02c0-.007 0-.026-.009-.038V3.62l-.011-.04v-.016c0-.014-.01-.028-.013-.042V3.51l-.015-.046v-.008c0-.021-.014-.044-.022-.066a17.099 17.099 0 00-.306-.815 1.984 1.984 0 00-.353-.616c-.224-.238-.547-.358-.815-.548-.317-.223-.554-.539-.823-.82-.269-.282-.595-.536-.981-.583a1.922 1.922 0 00-.896.163c-2.329.86-4.236 2.554-6.324 3.898-.813.523-1.723 1.014-2.686.947l.85 1.349c.04.066.082.127.127.195.044.069.088.127.135.19.12.165.272.304.446.409a.97.97 0 00.263.105c.303.072.634.011.941-.05.105-.02.21-.041.314-.065l.127-.036h.02v.02c-.07.127-.138.243-.197.368a7.716 7.716 0 00-.453 1.41c-.24.95-.48 1.922-.417 2.898.021.33.077.667-.018.984-.046.156-.127.316-.084.47.046.09.085.182.117.277.02.147-.096.274-.18.396-.084.121-.127.316-.007.4a.684.684 0 00-.453.565.48.48 0 01-.043.216.536.536 0 01-.127.118.684.684 0 00-.237.426c-.245 0-.451.239-.675.38a2.72 2.72 0 01-.615.224c-.612.195-1.14.597-1.619 1.02-.266.233-.535.489-.651.821-.039.109-.059.223-.092.333a2.3 2.3 0 01-.294.601 4.34 4.34 0 01-.888.992c-.174.14-.328.305-.456.49-.194.28-.588.363-.796.633a3.03 3.03 0 01-.254.38c-.16.153-.404.166-.61.254-.48.2-.702.761-1.13 1.058a.12.12 0 01-.086.028c-.036 0-.058-.045-.09-.066-.062-.042-.144-.01-.218.009-.073.019-.172.011-.191-.063-1.034-.626-2.05-1.305-3.084-1.932l-.471-.285-2.524-1.53a.188.188 0 00-.199 0l-.078.055c-.127-.134-.268-.253-.351-.352l-.104-.117a.155.155 0 00.067-.013.127.127 0 00.054-.164.413.413 0 00-.116-.149 2.81 2.81 0 01-.303-.346 3.2 3.2 0 00-.334-.436.612.612 0 00-.494-.197.803.803 0 00-.287.116 4.702 4.702 0 00-.95.729.1.1 0 00-.043.078c0 .026.026.045.028.069a.089.089 0 01-.024.063c-.17.212-.373.396-.6.547-.322.24-.636.49-.944.75a1.32 1.32 0 00-.441.54c-.068.25-.04.516.077.747.21.496.58.907.945 1.304a.46.46 0 00.242.17.308.308 0 00.219-.054c.224-.147.261-.45.278-.717.006-.127.014-.244.021-.365a.17.17 0 01.014-.071.177.177 0 01.078-.063l.348-.183a1.061 1.061 0 00-.033-.05c.263-.099.55-.117.823-.053.185.055.355.165.533.233-.029.237.016.476.126.688.65.067 1.237.356 1.819.647.469.233.925.49 1.367.772.358.234.709.478 1.052.732.487.36.957.742 1.422 1.127.303.267.628.507.973.717.915.513 2.143.531 2.983-.11 1.06-.807 2.41-1.227 3.55-1.925.34-.19.65-.428.92-.707a.632.632 0 01-.015.098c-.069.316-.341.544-.444.864-.08.253-.05.546-.206.76-.117.164-.338.28-.344.482 0 .056.016.112.016.168a.524.524 0 01-.06.201c-.128.285-.27.585-.53.76-.101.07-.23.134-.253.254a.24.24 0 01-.027.1c-.043.06-.138.028-.206.054-.096.035-.11.158-.149.253a.41.41 0 01-.414.244c-.866-.105-1.717.286-2.59.264-.3-.01-.6-.04-.901-.042-.926-.008-1.832.253-2.724.507-.099.175-.16.37-.18.57-.304.079-.622.09-.931.036a1.967 1.967 0 00-.234-.032.351.351 0 00.02-.18 5.092 5.092 0 00-1.043.466c-.217.126-.446.304-.467.554a.835.835 0 00.041.284l.118.447c.014.083.05.16.105.225.04.038.091.06.127.101a.398.398 0 01.068.161l.1.388c.036.13.063.261.078.394.011.127 0 .244.009.366.013.2.042.4.087.595l.141.703c.032.196.087.388.166.57.06.127.14.236.188.363.038.098.056.202.101.294.082.15.212.27.368.34a.411.411 0 00.179.056c.18 0 .31-.168.393-.327.167-.29.257-.619.262-.954 0-.134-.026-.267-.038-.402-.03-.38.079-.75.079-1.13a.222.222 0 00-.159-.23c.012-.322.01-.663.18-.938.085-.128.19-.242.31-.336.047.15.099.298.157.442.965-.281 1.961-.553 2.972-.578zm20.615-19.472a4.28 4.28 0 01-.209.074c-.59.197-1.268.388-1.88.254a1.629 1.629 0 01-.514-.254l-.044-.028c.86-.15 1.76-.114 2.647-.046z" fill="url(#paint0_linear)"/><path d="M103.771 9.459c.214-.092.442-.145.673-.156.149.011.295.045.434.1.251.073.485.194.69.355a.828.828 0 01.305.685c-.029.253-.216.473-.422.634a1.681 1.681 0 01-.984.38c-.403.006-.783-.175-1.173-.283a3.362 3.362 0 00-.869-.127 1.912 1.912 0 01-.443-.027.474.474 0 01-.34-.262.683.683 0 010-.38c.029-.157.024-.53.164-.624.111-.076.507-.015.644-.026a6.343 6.343 0 001.321-.27z" fill="#FBBEBE"/><path d="M94.72 6.906c.383.376.714.803.982 1.268.446.779.73 1.684 1.402 2.283.179.15.368.287.567.41.155.113.33.2.515.253.603.135 1.28-.053 1.869-.254a11.88 11.88 0 001.69-.76c.004.244.072.484.198.694.141.2.428.316.634.19a7.526 7.526 0 00-1.462.904c-.174.147-.335.31-.52.443-.668.48-1.593.529-2.21 1.074a.594.594 0 01-.686.082c-.214-.127-.36-.345-.536-.52-.348-.348-.82-.551-1.16-.905-.159-.163-.286-.357-.448-.517-.232-.228-.534-.38-.747-.634-.158-.187-.253-.413-.402-.612-.127-.173-.276-.324-.389-.508-.276-.44-.274-1.014-.115-1.507.158-.493.522-.954.817-1.384z" fill="#F86D70"/><path opacity=".1" d="M94.72 6.906c.383.376.714.803.982 1.268.446.779.73 1.684 1.402 2.283.179.15.368.287.567.41.155.113.33.2.515.253.603.135 1.28-.053 1.869-.254a11.88 11.88 0 001.69-.76c.004.244.072.484.198.694.141.2.428.316.634.19a7.526 7.526 0 00-1.462.904c-.174.147-.335.31-.52.443-.668.48-1.593.529-2.21 1.074a.594.594 0 01-.686.082c-.214-.127-.36-.345-.536-.52-.348-.348-.82-.551-1.16-.905-.159-.163-.286-.357-.448-.517-.232-.228-.534-.38-.747-.634-.158-.187-.253-.413-.402-.612-.127-.173-.276-.324-.389-.508-.276-.44-.274-1.014-.115-1.507.158-.493.522-.954.817-1.384z" fill="#000"/><path d="M72.185 18.616a1.314 1.314 0 00-.358-.324 1.083 1.083 0 00-.668-.068c-.566.086-1.09.345-1.588.634-.4.23-.798.484-1.085.845a.868.868 0 00-.191.38.784.784 0 00.029.347.838.838 0 00.453.586c.264.104.56-.006.826-.108.358-.138.75-.266 1.119-.157.272.081.507.288.794.295.339.01.613-.264.828-.525.187-.228.595-.64.568-.96-.026-.322-.527-.716-.727-.945zm4.273 9.868a2.19 2.19 0 01-.951.04c-.193-.036-.429-.082-.552.069a.454.454 0 00-.077.188c-.316 1.292-.027 2.662.507 3.886a.12.12 0 00.035.053c.035.025.082.008.12-.009.13-.052.25-.122.36-.209.243-.22.295-.58.306-.908.012-.328.007-.676.177-.957.213-.349.658-.519.833-.888.14-.3.067-.656-.057-.963-.042-.107-.059-.38-.158-.433-.098-.052-.43.1-.543.13z" fill="#FBBEBE"/><path d="M72.148 18.486a.127.127 0 00.053-.165.428.428 0 00-.117-.15 2.625 2.625 0 01-.301-.346 3.51 3.51 0 00-.334-.437.616.616 0 00-.493-.198.762.762 0 00-.285.115 4.61 4.61 0 00-.945.725c-.022.021-.046.048-.04.078.005.03.025.044.027.069a.087.087 0 01-.022.062 2.62 2.62 0 01-.596.544c-.32.24-.633.49-.939.748a1.306 1.306 0 00-.437.536c-.065.25-.036.516.08.747.212.497.58.908.944 1.308a.48.48 0 00.244.17.307.307 0 00.218-.053c.222-.145.254-.45.273-.715l.02-.366c0-.024.004-.048.014-.07a.17.17 0 01.077-.062l.345-.183a1.111 1.111 0 00-1.014-.527.38.38 0 01-.272-.037.223.223 0 010-.31.683.683 0 01.3-.165c.909-.334 1.73-.869 2.613-1.268a.671.671 0 01.312-.073c.088.007.192.059.275.023zm3.582 13.278c-.04.076-.055.165-.1.24-.043.074-.14.126-.215.088a.222.222 0 01-.083-.112 4.737 4.737 0 01-.311-2.797 1.7 1.7 0 01.136-.447c.067-.137.165-.276.137-.426-.362.114-.71.27-1.038.462-.215.127-.442.303-.462.551a.866.866 0 00.041.284l.12.448c.014.083.05.16.106.224.038.038.09.062.127.103a.38.38 0 01.068.16l.1.388c.038.13.065.262.08.395.012.127 0 .244.01.366.015.2.045.399.09.594l.143.703c.032.196.088.388.167.57.06.127.14.236.189.364.037.098.056.202.101.294.083.15.211.27.367.341a.43.43 0 00.179.057c.178.007.306-.167.39-.327.164-.29.25-.617.254-.95 0-.135-.028-.268-.04-.403-.031-.38.075-.749.074-1.128.002-.355-.5-.288-.63-.042z" fill="#F86D70"/><path d="M94.333 9.673a2.8 2.8 0 01-1.015-.792 4.839 4.839 0 01-.38-.565 17.134 17.134 0 01-1.236-2.544c.54.11 1.107.21 1.638.058.277-.085.535-.221.76-.403.29-.238.558-.5.802-.783.185.354.397.694.634 1.015.136.182.595.554.56.802-.034.249-.541.373-.746.491l-.022.014a2.876 2.876 0 00-.78.726c-.398.566-.536 1.355-.215 1.981z" fill="#FBBEBE"/><path opacity=".1" d="M95.36 6.947a2.377 2.377 0 01-1.25-1.522c.29-.237.558-.499.802-.782.185.354.397.693.634 1.014.136.183.595.555.56.803-.034.249-.54.369-.746.487z" fill="#000"/><path d="M96.5 7.133a2.375 2.375 0 100-4.75 2.375 2.375 0 000 4.75z" fill="#FBBEBE"/><path d="M91.306 19.551a1.108 1.108 0 01-1.093.027 2.103 2.103 0 01-.471-.397c-.78-.8-1.522-1.648-2.043-2.64a1.83 1.83 0 01-.23-.682.748.748 0 01.244-.649.527.527 0 00.127-.118.474.474 0 00.041-.215.673.673 0 01.45-.562c-.127-.086-.077-.278.006-.4.082-.124.197-.254.177-.396a2.168 2.168 0 00-.116-.277c-.046-.155.036-.314.08-.469.093-.317.038-.654.015-.984-.067-.976.17-1.945.404-2.894.104-.483.253-.954.446-1.408a3.99 3.99 0 01.196-.366 9.8 9.8 0 01.797-1.11 1.44 1.44 0 01.544-.487.537.537 0 01.064-.022 1.38 1.38 0 01.484-.037c.428.026.879.127 1.184.428.306.302.405.726.543 1.134.044.136.097.27.16.4.201.4.53.72.853 1.03l.351.339c.176.17.482.126.648.305.068.084.118.18.148.284.188.458.297.943.324 1.437 0 .11-.005.22-.02.328a1.73 1.73 0 01-.48 1.014c-.304.293-.728.438-1.03.732-.254.243-.401.57-.546.888l-.838 1.843c-.203.421-.377.855-.521 1.3-.264.886-.114 2.136-.898 2.624z" fill="#F86D70"/><path d="M83.984 30c-.626.024-1.254.017-1.878.076-.364.036-.726.096-1.092.11-.398.018-.797-.013-1.197-.006-1.005.022-1.996.29-2.964.566a5.63 5.63 0 01-.42-2.244c.018-.204.079-.402.18-.581.887-.254 1.787-.507 2.709-.494.3 0 .598.035.897.044.869.026 1.713-.363 2.576-.254a.406.406 0 00.412-.242c.036-.094.052-.217.147-.254.068-.025.162.007.205-.052a.266.266 0 00.027-.1c.025-.127.153-.183.253-.253.254-.175.397-.474.524-.761a.517.517 0 00.06-.2c0-.056-.018-.112-.017-.169 0-.2.224-.316.341-.48.154-.215.127-.506.202-.76.101-.32.371-.547.439-.86a.633.633 0 00.015-.098 3.97 3.97 0 01-.915.702c-1.125.693-2.472 1.108-3.523 1.91-.834.635-2.057.616-2.97.1a6.868 6.868 0 01-.97-.72c-.465-.38-.934-.769-1.42-1.132a19.243 19.243 0 00-1.05-.734 14.72 14.72 0 00-1.362-.797c-.581-.294-1.166-.586-1.812-.656a1.335 1.335 0 01-.036-1.095c.148-.348.348-.67.594-.958.183-.27.414-.504.68-.693a.185.185 0 01.197 0l2.513 1.543.47.288c1.031.634 2.046 1.312 3.076 1.942.02.073.12.081.192.062.072-.019.155-.05.217-.007.03.02.052.058.09.066.03 0 .06-.01.083-.028.426-.293.645-.856 1.123-1.053.204-.083.446-.096.606-.253.094-.12.179-.247.253-.38.207-.27.599-.352.79-.634.127-.184.28-.348.453-.487a4.29 4.29 0 00.887-.988c.126-.184.224-.386.29-.599.034-.11.054-.224.09-.333.116-.332.381-.587.646-.818.48-.42 1-.82 1.608-1.014.212-.05.418-.124.612-.222.245-.15.47-.427.75-.363a.634.634 0 01.277.175c.344.335.66.696.945 1.082l1.355 1.728c.143.207.323.386.532.526.302.156.65.2.982.127-.044.47-.418.858-.573 1.305-.075.217-.104.447-.16.67-.078.277-.179.55-.3.812-.305.709-.611 1.421-1.048 2.058-.225.33-.485.634-.74.944-1.005 1.214-1.775 2.677-2.916 3.769-.277.267-.452.634-.761.863-.336.249-.77.287-1.174.303z" fill="#434175"/><path opacity=".1" d="M88.761 13.912a.688.688 0 00-.316.095c.232-.081.514.135.729.033.1-.048.084-.062 0-.091-.129-.044-.283-.004-.413-.037z" fill="#000"/><path d="M128.79 55.811l-9.319 3.31.594 1.672 9.319-3.309-.594-1.673zm-6.202 6.779l8.484-3.013a.886.886 0 11.594 1.673l-8.484 3.012-.594-1.673z" fill="#D0D2D5"/><path d="M114.506 57.386l2.067-.734a7.353 7.353 0 019.391 4.47l.734 2.066a2.878 2.878 0 01-1.747 3.672l-6.287 2.233a2.876 2.876 0 01-3.673-1.748l-2.232-6.287a2.876 2.876 0 011.747-3.672z" fill="#3F3D56"/><path opacity=".1" d="M88.647 15.15a.492.492 0 00-.267-.017.566.566 0 00-.349.17.19.19 0 00.156 0 .922.922 0 01.254-.027c.073 0 .293.081.35.046.083-.055-.087-.151-.144-.173zm6.973-4a2.462 2.462 0 01-.543-.261c-.445-.283-.82-.667-1.259-.956a7.01 7.01 0 00-.689-.38l-1.484-.761a1.506 1.506 0 00-.36-.147c-.242-.054-.515.109-.761.075a.917.917 0 01-.619-.428 2.227 2.227 0 01-.279-.719 3.682 3.682 0 01-.085-.455 2.028 2.028 0 01-.009-.48c.026-.318.176-.613.419-.82.176-.124.376-.21.588-.253a2.45 2.45 0 01.407-.067c.078-.007.157-.007.235 0 .56.044 1.034.424 1.408.843.197.22.38.458.568.682.044.137.098.27.16.4.202.4.53.72.854 1.03l.35.339c.177.17.483.127.649.305a.82.82 0 01.148.284c.187.46.296.946.32 1.44.002.11-.004.22-.018.33zM84.073 27.377l-7.64 1.125c.017-.204.078-.402.178-.581.888-.254 1.788-.507 2.71-.494.3 0 .598.035.897.044.869.026 1.713-.363 2.575-.254a.406.406 0 00.412-.242c.037-.094.052-.217.148-.254.068-.025.162.007.205-.051a.267.267 0 00.027-.1c.025-.127.153-.184.253-.254.254-.175.397-.474.524-.761a.516.516 0 00.06-.2c0-.056-.018-.112-.017-.169 0-.2.224-.316.341-.48.153-.215.127-.506.202-.76.101-.32.371-.546.438-.86l.033-.044 1.301-.507-2.647 4.842z" fill="#000"/><path opacity=".1" d="M54.776 88.967c29.76 0 53.887-1.874 53.887-4.185 0-2.31-24.126-4.184-53.887-4.184-29.76 0-53.887 1.874-53.887 4.184 0 2.311 24.126 4.185 53.887 4.185zM102.415 100c19.257 0 34.867-2.03 34.867-4.535 0-2.505-15.61-4.536-34.867-4.536-19.258 0-34.868 2.03-34.868 4.536 0 2.504 15.61 4.535 34.868 4.535z" fill="#D12421"/><path d="M61.147 81.394l.036-1.795c1.69-.096 3.381-.16 5.071-.193.982-.017 1.976-.024 2.926.222.658.171 1.28.46 1.93.663 1.293.404 2.662.457 4.02.493 1.317.037 2.693.05 3.876-.532 2.048-1.014 2.909-3.506 3.009-5.787.1-2.28-.354-4.58-.038-6.847" stroke="#3F3D56" stroke-width="12" stroke-miterlimit="10"/><path d="M65.783 84.908l-22.593-.29.066-.579 1.093-9.558h19.84l1.46 9.558.112.724.022.145z" fill="#D0D2D5"/><path opacity=".1" d="M65.761 84.763H54.486L43.19 84.62l.066-.58H65.65l.111.724z" fill="#000"/><path d="M69.404 84.184h-29.98v.724h29.98v-.724z" fill="#D0D2D5"/><path d="M98.007 17.069a1.885 1.885 0 00-1.876-1.902H12.407a1.888 1.888 0 00-1.877 1.902v50.75h87.477v-50.75z" fill="#3F3D56"/><path d="M10.53 67.312v5.945a1.877 1.877 0 001.877 1.876h83.724a1.877 1.877 0 001.876-1.876v-5.945H10.53z" fill="#D0D2D5"/><path d="M94.82 18.36H14.153v45.62H94.82V18.36z" fill="#2F2E41"/><path d="M54.704 72.878a1.958 1.958 0 001.69-.971l-1.073-.177 1.16.01a1.959 1.959 0 00.037-1.55l-1.556.808 1.436-1.055a1.953 1.953 0 00-2.803-.662 1.955 1.955 0 00-.422 2.849 1.952 1.952 0 001.53.748z" fill="#D12421"/><path opacity=".1" d="M56.659 75.132l9.014 9.052-1.384-9.052h-7.63z" fill="#000"/><path d="M95.373 17.988l4.84-6.414c.29-.38.587-.778.984-1.051 1.141-.79 2.814-.323 3.769.688.954 1.01 1.355 2.417 1.648 3.776.682 3.128.987 6.327.908 9.528-.041 1.685-.192 3.388-.728 4.987-.814 2.432-2.464 4.48-3.71 6.72-2.007 3.61-2.848 8.424-.307 11.681.828 1.062 1.955 1.873 2.72 2.981.863 1.252 1.199 2.782 1.521 4.268.481 2.244.963 4.503 1.051 6.796.287 7.416-3.941 14.826-10.471 18.354-4.533 2.45-10.017 3.16-13.959 6.481-1.395 1.17-2.597 2.891-2.254 4.674.279 1.446 1.55 2.546 2.944 3.024 1.395.478 2.907.438 4.378.355a80.69 80.69 0 0010.524-1.3c2.945-.563 5.885-1.049 8.453-2.598.257-.136.477-.333.64-.574.166-.278.194-.614.217-.937.07-.953.136-1.94-.2-2.834-.392-1.045-1.286-1.836-1.714-2.866-.429-1.03-.352-2.215-.074-3.296.342-1.337.965-2.582 1.591-3.81.61-1.197 1.229-2.39 1.947-3.525 2.021-3.19 4.782-5.833 7.515-8.438" stroke="#3F3D56" stroke-width="2" stroke-miterlimit="10"/><path d="M103.383 8.793a1.9 1.9 0 01.673-.156c.149.012.295.045.434.099.251.074.485.194.69.356a.826.826 0 01.305.685c-.029.254-.216.472-.422.634-.278.23-.623.363-.984.38-.403 0-.783-.175-1.173-.284a3.362 3.362 0 00-.869-.127 1.902 1.902 0 01-.443-.029.474.474 0 01-.34-.26.68.68 0 010-.374c.031-.157.026-.53.165-.625.112-.075.507-.014.644-.025a6.51 6.51 0 001.32-.274z" fill="#FBBEBE"/><path d="M101.625 8.92c-.525.24-1.142.04-1.712.04-.28 0-.56.046-.838.063-.31.01-.619.003-.927-.025l-.928-.063a7.917 7.917 0 01-1.622-.223c-.454-.535-1.19-.771-1.738-1.207-.439-.35-.753-.827-1.127-1.247-.374-.42-.849-.798-1.408-.843a2.08 2.08 0 00-.643.069 1.499 1.499 0 00-.587.253 1.197 1.197 0 00-.418.82c-.023.314.008.63.092.935.051.255.145.498.28.72a.93.93 0 00.62.428c.244.033.516-.127.76-.076.126.033.247.082.36.147l1.486.76c.236.114.466.241.688.38.44.29.814.674 1.259.957.445.283 1.006.46 1.5.275 1.522-.567 3.237-.303 4.851-.162-.011-.03.055-.059.074-.084.2-.274.29-.613.254-.95-.039-.333-.166-.648-.276-.967z" fill="#F86D70"/><path d="M99.072 4.648a.868.868 0 00.38-.34c.145-.267.056-.595-.043-.887a13.516 13.516 0 00-.309-.815 1.965 1.965 0 00-.352-.618c-.225-.24-.546-.36-.813-.549-.317-.224-.554-.543-.822-.823-.267-.28-.594-.54-.98-.587a1.894 1.894 0 00-.864.161c-2.316.851-4.209 2.536-6.282 3.872-.806.522-1.712 1.007-2.662.937l.85 1.352c.217.346.46.713.84.861.337.127.712.063 1.065 0 .28-.04.553-.123.81-.243.507-.276.833-.847 1.378-1.046.407-.149.861-.058 1.268.084.407.142.806.335 1.235.394.76.102 1.522-.241 2.156-.685.38-.264.726-.567 1.14-.76a1.72 1.72 0 011.015-.18c.384.054.61.071.99-.128z" fill="#2F2E41"/><path opacity=".1" d="M99.453 4.308c.142-.262.058-.584-.038-.867a.761.761 0 01-.064.478.888.888 0 01-.38.34c-.38.2-.611.183-1.002.118a1.732 1.732 0 00-1.014.179c-.412.199-.76.507-1.141.76-.634.444-1.395.787-2.156.684-.43-.057-.826-.254-1.235-.393-.408-.14-.863-.234-1.268-.085-.544.199-.866.772-1.377 1.046a2.88 2.88 0 01-.81.243c-.354.069-.729.136-1.064 0-.38-.147-.623-.514-.841-.86l-.603-.958h-.146l.851 1.352c.217.346.46.712.84.86.337.127.712.064 1.065 0 .28-.04.553-.122.81-.243.507-.275.833-.847 1.378-1.046.407-.148.86-.057 1.268.085.407.142.806.335 1.235.393.76.103 1.521-.24 2.155-.685.38-.263.727-.566 1.142-.76a1.72 1.72 0 011.014-.18c.39.064.621.082 1-.117a.868.868 0 00.38-.344z" fill="#000"/><path d="M106.008 91.038c.075-.116.168-.22.276-.306.554-.523.812-1.291.949-2.044.137-.754.176-1.522.395-2.259a7.26 7.26 0 01.447-1.099c.126-.271.285-.804.518-.993a.337.337 0 01.16-.077 1.85 1.85 0 01.459-.611c.362-.329.805-.59 1.047-1.014a2.19 2.19 0 01.245-.418c.163-.181.422-.253.573-.445.196-.246.152-.597.127-.911-.026-.315 0-.689.271-.852.162-.1.372-.092.54-.18.254-.126.354-.447.349-.732-.005-.285-.094-.563-.117-.847-.071-.908.528-1.81.296-2.69-.088-.334-.287-.624-.435-.934a2.186 2.186 0 01-.127-.322c-.395.157-.81.257-1.234.298.699-1.567.521-3.389.847-5.072l-.042-.058a2.637 2.637 0 01-.535-1.502c0-.634.293-1.214.425-1.826.112-.523.108-1.067.254-1.579.102-.318.237-.625.402-.915.158-.294.324-.582.498-.866l.488-1.613c.228-.76.463-1.521.907-2.173.162-.24.211-.723.461-.867.203-.106.433-.146.659-.116.353-.198.662-.483.707-.873a.834.834 0 00-.026-.254h-.043c-.559-.052-.84-.544-1.131-.974-.47-.698-.29-1.642 0-2.434.072-.25.203-.48.381-.67.407-.381 1.051-.298 1.576-.482.17-.074.344-.14.521-.196.348-.082.714.033 1.033.193.32.16.618.37.952.497.335.127.748.227.831.57a.629.629 0 01-.029.346 1.29 1.29 0 01-.391.565 2.247 2.247 0 01.037 1.892 2.25 2.25 0 01-1.415 1.256 6.555 6.555 0 00-.269.473c-.147.284-.271.619-.222.923.092.097.177.2.254.31.364.507.57 1.102.761 1.696.256.757.461 1.531.613 2.316.31.657.687 1.286.912 1.977a4.46 4.46 0 001.189-.159l1.07-.243c.372-.084.761-.175 1.053-.42.154-.128.275-.296.432-.423.157-.127.473-.273.645-.169a.53.53 0 01.088.068c.156-.317 1.154.98.472 1.108l.044.126c.09.263.281.582.233.856l-4.762 1.635a2.937 2.937 0 01-.959.211 1.549 1.549 0 01-.38-.05v.252c-.013 1.672.254 3.335.303 5.006.009.304 0 .634-.193.872-.215.261-.598.312-.932.254a2.096 2.096 0 01-.235-.052c-.113.42-.194.848-.244 1.28l-.316 2.252a3.374 3.374 0 00-.049.703c.037.53.317 1.006.52 1.497.203.49.323 1.078.056 1.535-.083.142-.198.264-.273.411a1.67 1.67 0 00-.127.72l-.056 2.05a.24.24 0 01.16.034c.264.204.235 1.183.254 1.486.02.507 0 1.024.028 1.536a9.03 9.03 0 00.339 2.045c.046.217.146.418.291.585.148.129.324.22.515.268a5.907 5.907 0 001.955.266c.267-.009.546-.034.795.067.248.102.449.38.359.634-.078.213-.312.314-.524.394-.484.17-.951.385-1.395.642a3.728 3.728 0 01-.54.305 2.73 2.73 0 01-.555.137l-2.247.38c-.46.08-1.014.128-1.307-.253-.159-.205-.182-.484-.174-.744.013-.507.114-1.023.047-1.53a4.619 4.619 0 00-.235-.88l-.674-1.994c-.226-.668-.454-1.341-.542-2.041-.031-.254-.029-.541.165-.7a.446.446 0 01.168-.086c.007-.611.087-1.224.053-1.835-.009-.152-.024-.305-.037-.457a2.141 2.141 0 00-.314.37c-.216.338-.296.787-.627 1.014-.281.193-.698.183-.896.462a1.266 1.266 0 00-.142.343 2.496 2.496 0 01-.507.805 4.276 4.276 0 01-.313.804 313.8 313.8 0 00-.558 1.18c-.199.42-.4.841-.634 1.24a3.422 3.422 0 00-.425.819c-.179.626.111 1.313.574 1.775.463.461 1.07.726 1.669.973a.459.459 0 01.171.102c.052.062.079.14.076.22 0 .293-.24.544-.516.634a1.937 1.937 0 01-.866.032c-1.62-.196-3.236-.592-4.668-1.38a1.667 1.667 0 01-.558-.43.647.647 0 01-.099-.65z" fill="url(#paint1_linear)"/><path d="M112.857 62.605c-.27.414-.523.84-.761 1.276a4.77 4.77 0 00-.402.907c-.148.508-.143 1.05-.253 1.568-.127.608-.424 1.189-.424 1.811.019.541.206 1.063.535 1.493.329.425.704.812 1.119 1.154a23.799 23.799 0 001.582-7.761c.013-.368.014-.748-.119-1.09-.084-.216-.478-.807-.733-.575-.093.085-.117.468-.174.595-.106.217-.23.425-.37.622z" fill="#F86D70"/><path opacity=".1" d="M112.857 62.605c-.27.414-.523.84-.761 1.276a4.77 4.77 0 00-.402.907c-.148.508-.143 1.05-.253 1.568-.127.608-.424 1.189-.424 1.811.019.541.206 1.063.535 1.493.329.425.704.812 1.119 1.154a23.799 23.799 0 001.582-7.761c.013-.368.014-.748-.119-1.09-.084-.216-.478-.807-.733-.575-.093.085-.117.468-.174.595-.106.217-.23.425-.37.622z" fill="#000"/><path d="M126.468 63.991c.496-.083 1.046-.042 1.432.279.232.197.38.477.411.78.032.353-.172.77-.524.797a1.672 1.672 0 01-.254-.016 3.79 3.79 0 00-.664.054 2.714 2.714 0 01-2.313-.933c-.302-.373.097-.544.455-.62.49-.104.968-.257 1.457-.341z" fill="#FBBEBE"/><path d="M117.988 75.443l-.314 2.234c-.041.23-.057.464-.048.697.037.526.315 1 .518 1.486.203.487.325 1.07.057 1.522-.082.142-.199.26-.272.407-.095.226-.138.47-.127.715l-.086 3.17c-.979.066-1.961.06-2.939-.017a.17.17 0 01-.109-.028.172.172 0 01-.037-.115c-.043-.742.086-1.485.044-2.227-.015-.27-.054-.541-.058-.814-.016-1.104.53-2.186.365-3.278a7.129 7.129 0 00-.203-.814c-.521-1.902-.411-3.902-.296-5.865a.14.14 0 01.025-.088.16.16 0 01.07-.038 3.61 3.61 0 013.268.622c.139.112.487.22.579.351.126.187-.041.37-.113.568-.162.491-.27.998-.324 1.512z" fill="#3F3D56"/><path opacity=".1" d="M117.988 75.443l-.314 2.234c-.041.23-.057.464-.048.697.037.526.315 1 .518 1.486.203.487.325 1.07.057 1.522-.082.142-.199.26-.272.407-.095.226-.138.47-.127.715l-.086 3.17c-.979.066-1.961.06-2.939-.017a.17.17 0 01-.109-.028.172.172 0 01-.037-.115c-.043-.742.086-1.485.044-2.227-.015-.27-.054-.541-.058-.814-.016-1.104.53-2.186.365-3.278a7.129 7.129 0 00-.203-.814c-.521-1.902-.411-3.902-.296-5.865a.14.14 0 01.025-.088.16.16 0 01.07-.038 3.61 3.61 0 013.268.622c.139.112.487.22.579.351.126.187-.041.37-.113.568-.162.491-.27.998-.324 1.512z" fill="#000"/><path d="M112.109 74.768c.148.308.347.596.435.927.232.874-.365 1.775-.294 2.67.023.283.11.558.116.841.007.283-.097.597-.348.727-.169.087-.381.078-.539.177-.268.162-.298.535-.271.846.026.31.069.66-.127.905-.151.189-.41.261-.572.44-.097.129-.18.268-.246.415-.242.422-.684.682-1.046 1.014-.363.332-.67.82-.507 1.278.119.339.454.547.776.705.587.29 1.207.51 1.847.653.069.02.141.024.212.01a.46.46 0 00.185-.127c.374-.366.761-.75.933-1.243a1.33 1.33 0 01.142-.342c.198-.276.614-.267.897-.457.329-.225.409-.671.625-1.007.204-.317.531-.535.76-.832.381-.492.483-1.147.761-1.709.118-.24.269-.462.363-.711.095-.298.153-.605.173-.917.179-1.48.634-2.972.348-4.438-.064-.323-.161-.634-.202-.966-.071-.575.041-1.162-.044-1.737a.477.477 0 00-.192-.368.528.528 0 00-.218-.045 15.04 15.04 0 00-2.254.052c-.38.037-.808.114-1.035.425-.194.265-.183.622-.253.945-.076.397-.278.615-.49.927-.211.312-.091.622.065.942z" fill="#3F3D56"/><path d="M115.034 85.072c-.2 0-.422-.012-.577.115-.193.157-.196.447-.165.696.089.694.316 1.362.543 2.029l.675 1.979a4.6 4.6 0 01.234.872c.067.507-.034 1.014-.047 1.522 0 .253.017.535.175.739.287.368.846.325 1.306.246l2.246-.38a2.76 2.76 0 00.555-.136c.188-.087.368-.188.539-.305a8.262 8.262 0 011.395-.633c.21-.08.446-.18.522-.392.09-.254-.11-.532-.359-.634-.248-.103-.526-.076-.795-.067a5.92 5.92 0 01-1.952-.265 1.217 1.217 0 01-.515-.265 1.286 1.286 0 01-.292-.58 9.062 9.062 0 01-.34-2.028c-.025-.508-.007-1.015-.028-1.522-.012-.3.017-1.268-.253-1.475-.202-.154-1.032.273-1.304.335a6.28 6.28 0 01-1.563.148zm-7.398 1.409c-.218.728-.254 1.495-.394 2.242-.141.747-.393 1.51-.948 2.029a1.23 1.23 0 00-.275.304.647.647 0 00.095.663c.153.18.343.326.557.428 1.431.78 3.043 1.174 4.667 1.369.287.055.583.044.865-.03.276-.094.521-.343.516-.635a.321.321 0 00-.076-.218.474.474 0 00-.171-.1c-.599-.246-1.207-.515-1.669-.967-.461-.453-.753-1.141-.574-1.758.104-.288.247-.561.423-.812.233-.4.444-.81.634-1.23l.558-1.17c.162-.342.328-.694.355-1.073-.7.032-1.4-.08-2.055-.328a3.238 3.238 0 01-.846-.508c-.215-.18-.412-.514-.702-.28-.234.188-.381.715-.519.984a7.514 7.514 0 00-.441 1.09z" fill="#2F2E41"/><path d="M115.809 57.423c-.056.486-.528.808-.978 1l2.848.91c-.184-.353-.034-.784.148-1.142.149-.282.319-.553.508-.811.028-.04.059-.09.039-.135a.143.143 0 00-.08-.062c-.586-.26-1.189-.53-1.83-.626-.185-.028-.535-.101-.673.087-.138.19.048.555.018.779z" fill="#FBBEBE"/><path opacity=".1" d="M115.809 57.423c-.056.486-.528.808-.978 1l2.848.91c-.184-.353-.034-.784.148-1.142.149-.282.319-.553.508-.811.028-.04.059-.09.039-.135a.143.143 0 00-.08-.062c-.586-.26-1.189-.53-1.83-.626-.185-.028-.535-.101-.673.087-.138.19.048.555.018.779z" fill="#000"/><path d="M117.469 57.817a2.235 2.235 0 10-.001-4.469 2.235 2.235 0 00.001 4.47z" fill="#FBBEBE"/><path d="M119.398 73.964c-.215.254-.597.31-.93.254-.78-.127-1.419-.701-2.181-.908-.936-.253-1.927.072-2.81.47-.882.399-1.762.882-2.728.958.873-1.948.374-4.292 1.208-6.256.205-.48.491-.943.536-1.462.057-.645-.265-1.268-.314-1.91-.046-.573.127-1.142.29-1.686l.613-2.01c.228-.748.462-1.51.905-2.155.162-.237.213-.716.461-.86.543-.313 1.366.081 1.954.103.589.022 1.125.44 1.469.913.364.5.57 1.094.76 1.682.304.876.531 1.777.677 2.692.019.137.036.274.049.412.126 1.303-.059 2.612-.069 3.92v.01c-.011 1.658.254 3.308.304 4.966.008.308 0 .64-.194.867z" fill="#F86D70"/><path opacity=".1" d="M119.288 68.132c-.437-.11-.834-.392-1.173-.701a4.95 4.95 0 01-.778-.881 6.39 6.39 0 01-.671-1.415 16.394 16.394 0 01-.888-4.093c-.033-.38-.043-.788.184-1.09a.918.918 0 011.108-.27c.301.148.495.443.674.725.357.561.716 1.128.946 1.752.101.276.176.562.275.84.1.273.216.541.347.802.019.137.036.274.048.412.118 1.296-.062 2.606-.072 3.919z" fill="#000"/><path d="M115.967 59.707c-.225.3-.215.712-.183 1.089.119 1.396.418 2.771.887 4.091.164.498.389.974.671 1.415.223.324.484.62.778.882.431.394.956.745 1.541.75a2.97 2.97 0 00.958-.209l4.756-1.615c.049-.273-.143-.589-.233-.85l-.253-.753c-.073-.207-.158-.431-.345-.544-.188-.113-.489.042-.646.167-.157.126-.277.29-.431.419-.294.243-.681.333-1.052.417l-1.069.24a4.514 4.514 0 01-1.189.158c-.298-.909-.865-1.71-1.186-2.613-.099-.276-.175-.562-.276-.838-.23-.624-.589-1.19-.945-1.752-.179-.283-.373-.579-.673-.724a.92.92 0 00-1.11.27z" fill="#F86D70"/><path d="M116.756 56.087a1.14 1.14 0 01.134-.418.358.358 0 01.381-.168c.223.07.298.416.531.427.157.008.27-.152.32-.303.049-.15.076-.32.194-.426a.706.706 0 01.276-.127c.541-.17 1.1-.488 1.281-1.027a.634.634 0 00.029-.342c-.083-.341-.508-.444-.831-.568-.323-.124-.634-.332-.951-.492-.317-.16-.684-.274-1.033-.193a5.345 5.345 0 00-.521.195c-.525.182-1.169.098-1.576.476a1.645 1.645 0 00-.381.666c-.285.787-.464 1.724.007 2.416.289.428.572.916 1.129.966.65.059.908-.535 1.011-1.082z" fill="#2F2E41"/><path opacity=".1" d="M117.748 55.356c.049-.15.076-.32.192-.426a.745.745 0 01.277-.126c.542-.172 1.1-.487 1.282-1.028a.615.615 0 00.027-.342.42.42 0 00-.067-.15c.207.088.387.209.438.419a.634.634 0 01-.029.342c-.181.54-.74.856-1.281 1.027a.704.704 0 00-.276.127c-.118.107-.145.277-.194.426-.05.15-.163.31-.32.303-.157-.007-.233-.15-.333-.271.138-.018.237-.162.284-.3zm-2.374 1.542c.652.06.909-.532 1.014-1.08a1.12 1.12 0 01.135-.417.35.35 0 01.38-.167c.121.036.198.155.28.253a.383.383 0 00-.286.177c-.072.13-.118.271-.135.418-.102.547-.361 1.14-1.014 1.08a1.037 1.037 0 01-.669-.346.939.939 0 00.295.082z" fill="#000"/><path d="M22.543 82.452l2.427-1.428a5.87 5.87 0 00-1.242-1.483l-4.578 1.424 3.593-2.11a5.832 5.832 0 00-8.634 5.116c0 3.22 2.61 3.333 5.832 3.333s5.832-.113 5.832-3.333c0-.816-.173-1.622-.507-2.366l-2.723.847z" fill="#D12421"/><path opacity=".1" d="M23.16 85.584a4.542 4.542 0 00-.86-.676c-.44-.293-.896-.592-1.416-.691-.456-.088-.927-.014-1.394-.04a3.252 3.252 0 01-2.132-.977c-.33-.342-.592-.76-.99-1.026-.43-.281-.975-.342-1.485-.272a3.971 3.971 0 00-.438.09 5.822 5.822 0 00-.345 1.979c0 3.22 2.61 3.333 5.832 3.333 1.564 0 2.982-.026 4.03-.422l-.175-.327a4.572 4.572 0 00-.627-.971z" fill="#000"/><path d="M74.931 90.606l-3.22-1.893a7.752 7.752 0 011.649-1.968l6.072 1.888-4.758-2.797a7.735 7.735 0 0111.45 6.783c0 4.272-3.462 4.42-7.734 4.42s-7.734-.148-7.734-4.42a7.716 7.716 0 01.663-3.138l3.612 1.125z" fill="#D12421"/><path opacity=".1" d="M74.11 94.758a6.035 6.035 0 011.142-.896c.584-.388 1.19-.784 1.877-.915.605-.116 1.23-.018 1.844-.054a4.323 4.323 0 002.828-1.294c.438-.456.784-1.015 1.313-1.36.57-.381 1.292-.456 1.968-.362.197.028.391.067.583.119a7.72 7.72 0 01.457 2.623c0 4.272-3.463 4.42-7.735 4.42-2.073 0-3.954-.034-5.344-.559l.232-.434c.242-.452.488-.907.836-1.288z" fill="#000"/></g><defs><linearGradient id="paint0_linear" x1="70.352" y1="26.431" x2="103.864" y2="6.558" gradientUnits="userSpaceOnUse"><stop stop-color="gray" stop-opacity=".25"/><stop offset=".54" stop-color="gray" stop-opacity=".12"/><stop offset="1" stop-color="gray" stop-opacity=".1"/></linearGradient><linearGradient id="paint1_linear" x1="-27694.3" y1="32979.2" x2="-27150.1" y2="19374.7" gradientUnits="userSpaceOnUse"><stop stop-color="gray" stop-opacity=".25"/><stop offset=".54" stop-color="gray" stop-opacity=".12"/><stop offset="1" stop-color="gray" stop-opacity=".1"/></linearGradient><clipPath id="clip0"><path fill="#fff" transform="translate(.89)" d="M0 0h138.802v100H0z"/></clipPath></defs></svg>