<svg width="110" height="100" fill="none" xmlns="http://www.w3.org/2000/svg"><g clip-path="url(#clip0)"><path d="M45.055 24.232c-12.17 2.398-23 8.267-30.774 16.03-8.109 8.1-12.133 17.774-12.725 28.848-.381 7.028 1.378 14.545 6.526 20.621 3.933 4.619 9.752 7.932 16.148 9.222 7.793 1.55 11.11-.136 17.787-2.76 12.105-4.764 26.08-5.943 39.922-6.11 4.628-.062 9.325.008 13.72-.88 4.42-.853 8.599-2.76 10.818-5.957 2.825-4.025 1.497-13.402 0-18.245-3.668-11.735-9.294-23-18.896-30.5-9.603-7.5-28.435-13.057-42.526-10.268z" fill="#323145"/><path opacity=".2" d="M78.79 39.713c.51-.303.637-1.034.282-1.631-.356-.598-1.057-.836-1.567-.533-.51.303-.636 1.033-.281 1.631.355.598 1.056.836 1.566.533z" fill="#000"/><path d="M8.255 79.799a.358.358 0 10-.366-.616.358.358 0 00.366.616zm48.183-54.692c.17-.101.185-.39.033-.645-.151-.255-.412-.38-.582-.279-.17.101-.185.39-.034.645.152.255.413.38.583.279zM67.297 81.48c.085-.05.072-.23-.029-.4-.101-.17-.252-.266-.337-.216-.085.05-.072.23.029.4.101.17.252.267.337.216zm20.389-48.57c.085-.05.072-.229-.029-.399-.101-.17-.252-.267-.337-.216-.085.05-.072.229.029.4.101.17.252.266.337.216zm-7.768 1.49a.18.18 0 10-.183-.308.18.18 0 00.183.308zM87 21.233a.18.18 0 10-.184-.308.18.18 0 00.183.308zM21.409 88.89c.255-.151.38-.412.279-.582-.101-.17-.39-.185-.645-.034-.255.152-.38.413-.28.583.102.17.39.185.646.034zm10.285-23.615l-.256.151-.152-.256-.105.062.153.257-.256.151.062.105.256-.152.151.255.105-.062-.152-.255.256-.152-.062-.105zm68.169-2.891l-.438.26-.228-.384-.179.106.229.384-.438.26.093.157.438-.26.227.383.179-.106-.228-.383.438-.26-.093-.157zm-9.95-11l-.458.273-.229-.384-.187.11.229.385-.46.272.094.157.459-.273.227.384.187-.111-.227-.384.458-.272-.093-.157zM47.198 14.216l-.128.075-.076-.127-.052.03.076.128-.128.077.031.051.128-.076.076.128.052-.03-.076-.128.128-.077-.03-.051zm27.216.916l-.128.076-.076-.128-.052.03.076.129-.128.076.03.052.129-.076.076.128.052-.031-.076-.128.128-.076-.031-.052zM56.965 64.128l-.128.076-.076-.128-.052.03.076.129-.128.076.03.052.129-.076.076.128.052-.03-.076-.129.128-.076-.031-.052zm-40 16l-.128.076-.076-.128-.052.03.076.129-.128.076.03.052.129-.076.076.128.052-.03-.076-.129.128-.076-.031-.052zm-5-29l-.128.076-.076-.128-.052.03.076.129-.128.076.03.052.129-.076.076.128.052-.03-.076-.129.128-.076-.031-.052zM35.952 71.74l-.256.152-.076-.128-.104.062.076.128-.256.152.03.052.257-.153.076.129.104-.062-.076-.128.256-.152-.031-.052zM87.34 83.256l-.252.15-.152-.256-.103.061.152.256-.252.15.062.104.252-.15.152.256.103-.06-.152-.257.252-.15-.061-.104zm-39.418-1.642l-.128.076-.152-.256-.052.03.152.257-.128.076.062.104.128-.076.152.256.052-.031-.152-.256.128-.076-.062-.104zM18.375 65.265l-.265.157-.157-.265-.107.064.157.265-.265.157.064.108.265-.158.157.265.107-.064-.157-.264.265-.158-.064-.107z" fill="#fff"/><path opacity=".2" d="M49.083 56.69c.425-.253.606-.734.404-1.074-.202-.34-.711-.411-1.136-.158-.426.252-.606.733-.404 1.073.202.34.71.411 1.136.159zm-7.817-16.692a.896.896 0 10-.915-1.54.896.896 0 00.915 1.54zm53.908 29.159a2.507 2.507 0 01-.74 3.35c-.045.026-.088.058-.134.085a2.506 2.506 0 01-3.696-1.476 2.507 2.507 0 014.57-1.96zM30.643 45.885a4.51 4.51 0 01-1.334 6.027l-.245.145a4.51 4.51 0 11-2.36-8.386 4.514 4.514 0 011.765.341 4.485 4.485 0 012.174 1.873z" fill="#000"/><path d="M79.067 22.612a.18.18 0 10-.183-.308.18.18 0 00.183.308z" fill="#fff"/><path d="M99.822 23.497c-.175-3.775-1.99-5.122-4.214-5.122-.702 0-1.346.176-1.931.469A2.69 2.69 0 0091.1 17a2.68 2.68 0 00-2.663 2.253 3.643 3.643 0 00-2.341-.848c-1.375 0-2.575.79-3.19 1.931a3.495 3.495 0 00-1.99-.41c-1.902.147-3.336 1.815-3.336 3.717a3.26 3.26 0 003.248 3.249h15.657c1.844-.03 3.366-1.551 3.336-3.395z" fill="#3F3D56"/><path d="M81.953 88.907c0 3.778-3.082 6.896-6.896 6.896H35.37c-3.778 0-6.896-3.081-6.896-6.896V17.896c0-3.778 3.081-6.896 6.896-6.896h39.724c3.778 0 6.895 3.081 6.895 6.896v71.011h-.036z" fill="#E5E5E5"/><path d="M35.37 92.685c-2.274 0-4.145-1.834-4.145-4.108V17.86c0-2.274 1.87-4.108 4.145-4.108h39.724c2.274 0 4.144 1.834 4.144 4.108v70.718c0 2.274-1.87 4.108-4.144 4.108H35.37z" fill="#3F3D56"/><path d="M35.37 89.97c-.77 0-1.394-.623-1.394-1.356V17.859c0-.77.623-1.357 1.394-1.357h39.724c.77 0 1.393.623 1.393 1.357v70.718c0 .77-.623 1.357-1.393 1.357H35.37v.037z" fill="#EEE"/><path d="M53.742 67.6h3.013a13.054 13.054 0 0113.053 13.055v9.49h-29.12v-9.49A13.054 13.054 0 0153.742 67.6z" fill="#D12421"/><path d="M55.277 62.525c7.35 0 13.308-5.959 13.308-13.309s-5.958-13.308-13.308-13.308-13.309 5.958-13.309 13.308 5.959 13.309 13.309 13.309z" fill="#333"/><path opacity=".1" d="M53.317 63.725h3.85a2.714 2.714 0 012.713 2.713v2.645a4.15 4.15 0 01-4.15 4.15h-.98a4.15 4.15 0 01-4.15-4.15v-2.64a2.714 2.714 0 012.714-2.715l.003-.003z" fill="#000"/><path d="M50.6 63.453h9.285v5.362a4.15 4.15 0 01-4.15 4.15h-.986a4.15 4.15 0 01-4.15-4.15v-5.362z" fill="#FDB797"/><path opacity=".1" d="M50.617 64.792a13.363 13.363 0 009.284.026v-1.14h-9.284v1.114z" fill="#000"/><path d="M55.277 65.414c7.35 0 13.308-5.959 13.308-13.309s-5.958-13.308-13.308-13.308-13.309 5.958-13.309 13.308 5.959 13.309 13.309 13.309z" fill="#FDB797"/><path opacity=".1" d="M42.553 47.394h25.378s-2.166-10.247-11.76-9.599c-9.595.649-13.618 9.6-13.618 9.6z" fill="#000"/><path d="M42.553 47.05h25.378s-2.166-10.248-11.76-9.594c-9.595.653-13.618 9.594-13.618 9.594z" fill="#333"/><path d="M42.243 53.86c.684 0 1.238-1.04 1.238-2.322s-.554-2.322-1.238-2.322c-.683 0-1.238 1.04-1.238 2.322s.555 2.322 1.238 2.322z" fill="#FDB797"/><path d="M44.523 40.26c.304-.994.857-1.944 1.71-2.536.649-.45 1.425-.666 2.169-.93a16.52 16.52 0 003.151-1.508c1.129-.695 2.19-1.532 3.432-1.992 2.138-.79 4.52-.363 6.727.204.544.14 1.094.291 1.573.585.555.34.98.85 1.396 1.351l3.504 4.226c.32.387.644.778.87 1.227.211.435.346.903.399 1.384.093.775.02 1.596-.374 2.271-.593 1.012-1.814 1.52-2.985 1.567-1.17.047-2.32-.293-3.444-.623-3.627-1.062-7.3-2.052-11.061-2.492a31.196 31.196 0 00-5.629-.183c-.59.038-1.368.309-1.726-.292-.31-.521.128-1.737.288-2.259z" fill="#333"/><path opacity=".05" d="M46.389 79.811v10.333M64.34 79.811v10.333" stroke="#000" stroke-width="4" stroke-miterlimit="10"/><path d="M40.321 47.533h-.073c-.807 0-1.394 1.797-1.394 4.401 0 2.568.66 4.659 1.43 4.659h2.312v-9.06H40.32z" fill="url(#paint0_linear)"/><path d="M70.105 47.533h.073c.807 0 1.394 1.797 1.394 4.401 0 2.568-.66 4.659-1.43 4.659H67.83v-9.06h2.274z" fill="url(#paint1_linear)"/><path d="M46.777 59.894a2.718 2.718 0 01-2.09-.99 771.382 771.382 0 01-2.091-2.568h-1.541s2.568 3.08 3.411 4.145a2.72 2.72 0 002.09.99h4.77v-1.577h-4.55z" fill="url(#paint2_linear)"/><path d="M73.07 8.702c-.206-3.893-2.079-5.268-4.361-5.268a4.63 4.63 0 00-1.99.468C66.338 2.79 65.314 2 64.085 2a2.797 2.797 0 00-2.751 2.312 3.667 3.667 0 00-2.4-.878 3.65 3.65 0 00-3.278 1.99 3.764 3.764 0 00-2.048-.439c-1.961.146-3.424 1.873-3.424 3.834a3.366 3.366 0 003.365 3.365h16.096c1.873 0 3.424-1.55 3.424-3.482zM38.36 30.553c-.322-6.38-3.395-8.662-7.17-8.662-1.17 0-2.282.292-3.248.79a4.619 4.619 0 00-4.36-3.132 4.618 4.618 0 00-4.537 3.805 6.163 6.163 0 00-3.98-1.463 6.13 6.13 0 00-5.414 3.248 6.288 6.288 0 00-3.395-.702C3.066 24.7.637 27.51.637 30.758a5.527 5.527 0 005.531 5.531h26.515a5.695 5.695 0 005.707-5.707l-.03-.029z" fill="#3F3D56"/></g><defs><linearGradient id="paint0_linear" x1="38.896" y1="52.05" x2="42.661" y2="52.05" gradientUnits="userSpaceOnUse"><stop stop-color="#0A3C5F"/><stop offset="1" stop-color="#051F30"/></linearGradient><linearGradient id="paint1_linear" x1="67.782" y1="52.05" x2="71.547" y2="52.05" gradientUnits="userSpaceOnUse"><stop stop-color="#0A3C5F"/><stop offset="1" stop-color="#051F30"/></linearGradient><linearGradient id="paint2_linear" x1="46.164" y1="61.469" x2="46.164" y2="56.359" gradientUnits="userSpaceOnUse"><stop stop-color="#000203"/><stop offset="1" stop-color="#0A4063"/></linearGradient><clipPath id="clip0"><path fill="#fff" transform="translate(.637)" d="M0 0h109.306v100H0z"/></clipPath></defs></svg>