<svg width="18" height="18" fill="none" xmlns="http://www.w3.org/2000/svg"><path fill-rule="evenodd" clip-rule="evenodd" d="M14.25 18H3.75A3.75 3.75 0 010 14.25V3.75A3.75 3.75 0 013.75 0h10.5A3.75 3.75 0 0118 3.75v10.5A3.75 3.75 0 0114.25 18zm-2.058-3.861a.592.592 0 00.553.073.58.58 0 00.363-.42c.434-2.042 1.489-7.21 1.884-9.068a.394.394 0 00-.13-.38.403.403 0 00-.399-.069C12.367 5.051 5.91 7.473 3.271 8.45a.413.413 0 00-.271.4c.006.176.125.33.296.382 1.184.353 2.738.846 2.738.846s.725 2.193 1.104 3.307c.047.14.157.25.301.288a.432.432 0 00.406-.103l1.548-1.461s1.786 1.31 2.799 2.03zM6.687 9.801l.84 2.769.186-1.754 5.093-4.593a.138.138 0 00.016-.188.142.142 0 00-.188-.032L6.687 9.801z" fill="#08C"/></svg>