<svg width="307" height="80" fill="none" xmlns="http://www.w3.org/2000/svg"><path d="M40.25 71.14c-7.15 0-14.15-2.495-19.744-7.016A31.343 31.343 0 019.469 45.937C6.02 28.939 17.056 12.326 34.038 8.876a31.835 31.835 0 016.28-.637c7.151 0 14.151 2.496 19.745 7.017a31.404 31.404 0 0111.02 18.188c3.432 16.98-7.587 33.61-24.568 37.044a30.604 30.604 0 01-6.264.653z" fill="#fff"/><path d="M40.317 8.591c7.068 0 14 2.462 19.544 6.933a31.098 31.098 0 016.933 7.871 31.145 31.145 0 013.986 10.116c.837 4.12.837 8.272 0 12.342a31.238 31.238 0 01-4.572 11.02 30.62 30.62 0 01-8.373 8.49 30.801 30.801 0 01-11.372 4.79 31.07 31.07 0 01-6.213.62c-7.067 0-14-2.462-19.543-6.934a31.096 31.096 0 01-6.934-7.87 31.143 31.143 0 01-3.985-10.116 30.635 30.635 0 010-12.343 31.236 31.236 0 014.572-11.019 30.618 30.618 0 018.373-8.49 30.799 30.799 0 0111.371-4.79 31.025 31.025 0 016.213-.62zm0-.67a31.75 31.75 0 00-6.347.637C16.771 12.04 5.651 28.805 9.135 46.004c3.047 15.072 16.294 25.472 31.099 25.472a31.75 31.75 0 006.347-.637C63.78 67.356 74.9 50.576 71.416 33.393 68.368 18.321 55.105 7.921 40.317 7.921z" fill="#fff"/><path d="M40.317 7.921c14.804 0 28.051 10.4 31.1 25.472C74.9 50.593 63.78 67.356 46.58 70.84a31.629 31.629 0 01-6.348.637c-14.804 0-28.05-10.4-31.098-25.472C5.65 28.804 16.77 12.04 33.97 8.558a31.628 31.628 0 016.347-.637zm0-1.674V7.92 6.247c-2.227 0-4.471.217-6.665.67-4.421.904-8.54 2.629-12.242 5.158a33.323 33.323 0 00-8.993 9.127 33.285 33.285 0 00-4.907 11.84 33.45 33.45 0 000 13.28 33.306 33.306 0 004.287 10.885 33.342 33.342 0 007.453 8.474c5.945 4.807 13.414 7.453 21.017 7.453a33.1 33.1 0 006.665-.67c4.421-.904 8.541-2.63 12.242-5.158a33.322 33.322 0 008.993-9.127 33.285 33.285 0 004.907-11.84 33.45 33.45 0 000-13.28 33.305 33.305 0 00-4.287-10.886 33.342 33.342 0 00-7.452-8.474C55.373 8.893 47.92 6.247 40.317 6.247z" fill="#633D75"/><path d="M39.547 48.985l.167-5.276v-2.428c.151-2.428-2.629-4.002-4.572-3.332-1.423.502-2.244 1.473-2.696 2.98-.62-2.01-1.775-3.299-3.902-3.265-1.926.017-3.048 1.155-3.667 2.93-1.323-3.483-4.79-4.253-7.386-1.172.67-6.029 3.149-11.053 7.637-15.022 3.935-3.5 8.574-5.392 13.85-5.694.854-.05 1.122-.502 1.138-1.239.034-1.357.017-2.73.1-4.086.018-.369.285-.737.453-1.106.134.402.352.788.368 1.19.017 1.289-.05 2.579-.05 3.868 0 .837.251 1.373 1.29 1.44 10.065.687 18.823 8.608 20.498 18.573.251 1.473.335 2.98.352 4.538-.67-2.21-1.86-3.768-4.355-3.617-1.875.117-2.93 1.323-3.483 3.081-.804-2.227-1.943-3.215-3.735-3.249-1.791-.033-2.997.888-3.818 2.847-.452-.653-.82-1.457-1.423-2.026-1.575-1.54-4.22-1.24-5.477.536-.2.301-.301.72-.318 1.088-.15 6.75-.05 8.24-.167 14.989-.034 2.495.084 5.007.033 7.502-.017 1.457-.82 2.512-2.177 3.032-1.407.552-2.713.25-3.751-.821-1.022-1.038-1.24-2.328-.704-3.668.134-.318.654-.72.922-.67.62.118.67.603.385 1.173-.436.854-.201 1.725.502 2.21.553.369 1.407.57 2.06.453.854-.151 1.373-.905 1.407-1.826.067-1.658.134-4.957.134-4.957l.1-2.78.285-6.196zM85.6 17.567h23.43v26.795h-5.175V22.307h-13.13v22.055h-5.124V17.567zm26.009 26.795l11.488-26.795h4.17l11.488 26.795h-5.392l-2.11-5.057h-12.142l-2.11 5.057h-5.392zm9.495-9.763h8.156l-4.07-9.73-4.086 9.73zm20.214-17.032h12.024c5.292 0 9.261 3.752 9.261 8.659 0 4.94-3.986 8.691-9.261 8.691h-6.9v9.462h-5.124V17.568zm5.124 4.74v7.854h6.9c2.227 0 3.902-1.691 3.902-3.935 0-2.228-1.691-3.902-3.902-3.902h-6.9v-.017zm14.47 22.055L172.4 17.567h4.17l11.488 26.795h-5.392l-2.11-5.057h-12.142l-2.11 5.057h-5.392zm9.495-9.763h8.156l-4.053-9.73-4.103 9.73zm32.623-17.618c5.627 0 10.299 3.031 12.527 7.536l-4.974 1.876c-1.457-2.713-4.22-4.488-7.536-4.488-4.907 0-8.608 3.902-8.608 9.043 0 5.142 3.718 8.993 8.608 8.993 3.332 0 6.096-1.725 7.536-4.438l4.974 1.876c-2.228 4.522-6.9 7.536-12.527 7.536-7.972 0-13.984-6.012-13.984-13.983.017-7.938 6.029-13.95 13.984-13.95zm28.922 0c8.005 0 14.017 6.012 14.017 13.984s-6.012 13.984-14.017 13.984c-7.971 0-13.984-6.012-13.984-13.984 0-7.971 6.013-13.984 13.984-13.984zm0 22.977c4.94 0 8.658-3.868 8.658-8.993s-3.718-9.043-8.658-9.043c-4.907 0-8.608 3.902-8.608 9.043 0 5.141 3.701 8.993 8.608 8.993zm16.194-.335c2.177 0 3.785-1.641 3.785-9.043V17.568h19.795v26.794h-5.175V22.307h-9.496v8.273c0 10.115-3.835 13.782-8.926 13.782h-1.155v-4.756h1.172v.017zm27.264 4.739l6.046-10.182c-3.333-1.256-5.51-4.287-5.51-7.971 0-4.94 3.952-8.658 9.228-8.658h12.409v26.795h-5.175V34.85h-5.593l-5.661 9.496h-5.744v.017zm9.764-14.234h7.234v-7.804h-7.234c-2.228 0-3.902 1.691-3.902 3.902 0 2.21 1.674 3.902 3.902 3.902zM85.567 51.848h6.934v1.24h-5.594v2.796h3.182c1.892 0 3.333 1.357 3.333 3.182 0 1.826-1.44 3.182-3.333 3.182h-4.522v-10.4zm4.522 9.144c1.105 0 1.96-.837 1.96-1.926 0-1.105-.838-1.926-1.96-1.926h-3.182v3.852h3.182zm5.878-9.144l3.668 6.415 3.048-6.415h1.44l-3.802 7.989c-.753 1.59-1.842 2.411-3.181 2.411h-1.072V61.01h.971c.754 0 1.39-.452 1.91-1.356l-4.489-7.788h1.507v-.017zm12.644 5.092l-3.835-5.092h1.608l3.031 4.02 3.014-4.02h1.608l-3.835 5.092 3.969 5.291h-1.608l-3.165-4.22-3.182 4.22h-1.607l4.002-5.291zm6.967 5.291V51.849h6.648v1.24h-5.308v9.143h-1.34zm5.945 0l4.555-10.383h1.089l4.555 10.383h-1.407l-1.005-2.327h-5.359l-1.005 2.327h-1.423zm2.964-3.567h4.254l-2.11-4.907-2.144 4.907zm8.122 2.328c.938 0 1.692-.804 1.692-4.086v-5.04h7.402v10.382h-1.356v-9.16h-4.723v3.801c0 4.036-1.323 5.342-3.031 5.342h-.369v-1.239h.385zm10.635-9.144h9.11v1.24h-3.885v9.143h-1.34v-9.143h-3.885v-1.24zm18.137 0v1.24h-6.147v3.265h5.393v1.24h-5.393v3.382h6.214v1.24h-7.553V51.832h7.486v.016zm1.808 0h4.555c1.91 0 3.367 1.374 3.367 3.2 0 1.825-1.457 3.198-3.367 3.198h-3.215v3.969h-1.34V51.848zm1.34 1.24v3.919h3.215c1.122 0 1.977-.838 1.977-1.96 0-1.122-.855-1.96-1.977-1.96h-3.215zm13.18-1.408c2.076 0 3.801 1.073 4.706 2.697l-1.307.486c-.686-1.156-1.909-1.893-3.399-1.893-2.261 0-3.969 1.759-3.969 4.07 0 2.311 1.725 4.07 3.969 4.07 1.49 0 2.713-.737 3.399-1.893l1.307.486c-.905 1.624-2.63 2.696-4.706 2.696-3.048 0-5.359-2.294-5.359-5.36 0-3.064 2.294-5.358 5.359-5.358zm6.548.168h1.34v4.036h3.181c1.893 0 3.333 1.357 3.333 3.182 0 1.826-1.44 3.182-3.333 3.182h-4.521v-10.4zm4.521 9.144c1.106 0 1.96-.837 1.96-1.926 0-1.105-.838-1.926-1.96-1.926h-3.181v3.852h3.181zm5.192-9.144h1.34v10.383h-1.34V51.849zm1.524 5.092l4.589-5.092h1.724l-4.588 5.092 4.873 5.291h-1.725l-4.873-5.291zm7.101 5.291l4.555-10.383h1.088l4.555 10.383h-1.406l-1.005-2.327h-5.359l-1.005 2.327h-1.423zm2.964-3.567h4.254l-2.127-4.89-2.127 4.89zm12.694-6.816h1.34v10.383h-1.34V51.849zm1.541 5.092l4.588-5.092h1.725l-4.588 5.092 4.873 5.291h-1.725l-4.873-5.291zm12.51-5.26c3.047 0 5.375 2.295 5.375 5.36 0 3.065-2.311 5.359-5.375 5.359-3.048 0-5.359-2.294-5.359-5.36 0-3.064 2.311-5.358 5.359-5.358zm0 9.43c2.277 0 3.969-1.759 3.969-4.07 0-2.311-1.709-4.07-3.969-4.07-2.261 0-3.969 1.759-3.969 4.07 0 2.311 1.724 4.07 3.969 4.07zm8.607-9.262l4.187 7.302 4.17-7.302h1.34v10.383h-1.34v-7.854l-3.734 6.565h-.871l-3.735-6.548v7.837h-1.34V51.849h1.323zm12.008 0h8.842v10.383h-1.356v-9.143h-6.163v9.143h-1.34V51.849h.017zm10.249 10.383l4.555-10.383h1.089l4.555 10.383h-1.407l-1.004-2.327h-5.359l-1.005 2.327h-1.424zm2.965-3.567h4.253l-2.127-4.89-2.126 4.89zm9.964-6.816v4.505h6.163v-4.505h1.356v10.383h-1.356V57.61h-6.163v4.622h-1.34V51.849h1.34zm9.83 0h1.34v10.383h-1.34V51.849zm3.182 10.383l2.512-4.136c-1.39-.385-2.361-1.574-2.361-3.048 0-1.809 1.44-3.182 3.366-3.182h4.706v10.383h-1.357v-4.002h-2.914l-2.445 4.002h-1.507v-.017zm3.517-5.258h3.349v-3.885h-3.349c-1.122 0-1.993.837-1.993 1.942 0 1.122.871 1.943 1.993 1.943z" fill="#633E76"/></svg>