<svg width="110" height="100" viewBox="0 0 110 100" fill="none" xmlns="http://www.w3.org/2000/svg">
<g clip-path="url(#clip0)">
<path d="M45.0546 24.2318C32.8845 26.6297 22.0548 32.4992 14.2807 40.2626C6.17234 48.3609 2.14808 58.0346 1.5561 69.1089C1.175 76.137 2.9336 83.6536 8.08222 89.73C12.0146 94.3488 17.8337 97.6623 24.23 98.9518C32.0235 100.502 35.3398 98.8162 42.0165 96.1913C54.1218 91.4276 68.0961 90.2487 81.9391 90.0816C86.5666 90.02 91.2636 90.0901 95.6584 89.2022C100.079 88.3494 104.258 86.4417 106.477 83.2448C109.302 79.22 107.974 69.8433 106.477 65C102.809 53.2654 97.1835 42 87.5807 34.5C77.9779 27 59.1458 21.4432 45.0546 24.2318Z" fill="#323145"/>
<path opacity="0.2" d="M78.7904 39.7129C79.3007 39.4097 79.4266 38.6795 79.0716 38.0819C78.7165 37.4844 78.015 37.2458 77.5047 37.549C76.9944 37.8522 76.8685 38.5824 77.2235 39.18C77.5785 39.7775 78.28 40.0161 78.7904 39.7129Z" fill="black"/>
<path d="M8.2547 79.799C8.42481 79.698 8.48078 79.4781 8.37971 79.308C8.27864 79.1379 8.0588 79.082 7.8887 79.183C7.71859 79.2841 7.66262 79.5039 7.76369 79.674C7.86476 79.8441 8.08459 79.9001 8.2547 79.799Z" fill="white"/>
<path d="M56.4377 25.107C56.6078 25.006 56.6228 24.7172 56.4712 24.462C56.3196 24.2069 56.0588 24.082 55.8887 24.183C55.7186 24.2841 55.7036 24.5729 55.8552 24.828C56.0068 25.0832 56.2676 25.2081 56.4377 25.107Z" fill="white"/>
<path d="M67.2971 81.4802C67.3821 81.4296 67.3691 81.2508 67.2681 81.0806C67.167 80.9105 67.0161 80.8136 66.931 80.8641C66.846 80.9147 66.859 81.0935 66.96 81.2636C67.0611 81.4338 67.212 81.5307 67.2971 81.4802Z" fill="white"/>
<path d="M87.686 32.9106C87.7711 32.8601 87.7581 32.6812 87.657 32.5111C87.556 32.341 87.4051 32.2441 87.32 32.2946C87.235 32.3451 87.2479 32.524 87.349 32.6941C87.4501 32.8642 87.601 32.9612 87.686 32.9106Z" fill="white"/>
<path d="M79.9177 34.3995C80.0028 34.349 80.0307 34.239 79.9802 34.154C79.9297 34.0689 79.8198 34.0409 79.7347 34.0915C79.6496 34.142 79.6217 34.2519 79.6722 34.337C79.7227 34.422 79.8326 34.45 79.9177 34.3995Z" fill="white"/>
<path d="M86.9991 21.2335C87.0842 21.1829 87.1121 21.073 87.0616 20.988C87.0111 20.9029 86.9012 20.8749 86.8161 20.9255C86.7311 20.976 86.7031 21.0859 86.7536 21.171C86.8041 21.256 86.9141 21.284 86.9991 21.2335Z" fill="white"/>
<path d="M21.4087 88.8905C21.6639 88.7389 21.7888 88.4781 21.6877 88.308C21.5866 88.1379 21.2979 88.1229 21.0427 88.2745C20.7875 88.4261 20.6626 88.6869 20.7637 88.857C20.8648 89.0271 21.1535 89.0421 21.4087 88.8905Z" fill="white"/>
<path d="M31.6938 65.2745L31.4379 65.4265L31.2857 65.1704L31.1815 65.2324L31.3336 65.4885L31.0778 65.6405L31.1398 65.7449L31.3956 65.5928L31.5475 65.8484L31.6517 65.7864L31.4999 65.5309L31.7558 65.3789L31.6938 65.2745Z" fill="white"/>
<path d="M99.8626 62.3842L99.4249 62.6442L99.1967 62.26L99.0183 62.366L99.2466 62.7502L98.8089 63.0102L98.9019 63.1667L99.3396 62.9067L99.5673 63.29L99.7457 63.1841L99.5179 62.8008L99.9556 62.5407L99.8626 62.3842Z" fill="white"/>
<path d="M89.9134 51.3842L89.4546 51.6567L89.2264 51.2726L89.0394 51.3836L89.2677 51.7678L88.8089 52.0404L88.9019 52.1969L89.3607 51.9243L89.5884 52.3076L89.7754 52.1966L89.5476 51.8133L90.0064 51.5407L89.9134 51.3842Z" fill="white"/>
<path d="M47.1984 14.2155L47.0704 14.2915L46.9943 14.1635L46.9424 14.1944L47.0184 14.3224L46.8904 14.3985L46.9213 14.4504L47.0493 14.3744L47.1254 14.5024L47.1773 14.4715L47.1013 14.3435L47.2293 14.2674L47.1984 14.2155Z" fill="white"/>
<path d="M74.414 15.1317L74.286 15.2078L74.2099 15.0798L74.1579 15.1106L74.234 15.2387L74.106 15.3147L74.1368 15.3667L74.2649 15.2906L74.3409 15.4186L74.3929 15.3878L74.3168 15.2597L74.4449 15.1837L74.414 15.1317Z" fill="white"/>
<path d="M56.9648 64.128L56.8367 64.2041L56.7607 64.076L56.7087 64.1069L56.7848 64.2349L56.6568 64.311L56.6876 64.363L56.8157 64.2869L56.8917 64.4149L56.9437 64.3841L56.8676 64.256L56.9956 64.18L56.9648 64.128Z" fill="white"/>
<path d="M16.9648 80.128L16.8367 80.2041L16.7607 80.076L16.7087 80.1069L16.7848 80.2349L16.6568 80.311L16.6876 80.363L16.8157 80.2869L16.8917 80.4149L16.9437 80.3841L16.8676 80.256L16.9956 80.18L16.9648 80.128Z" fill="white"/>
<path d="M11.9648 51.128L11.8367 51.2041L11.7607 51.076L11.7087 51.1069L11.7848 51.2349L11.6568 51.311L11.6876 51.363L11.8157 51.2869L11.8917 51.4149L11.9437 51.3841L11.8676 51.256L11.9956 51.18L11.9648 51.128Z" fill="white"/>
<path d="M35.9517 71.7397L35.6957 71.8918L35.6196 71.7638L35.5157 71.8255L35.5918 71.9536L35.3357 72.1057L35.3666 72.1576L35.6226 72.0055L35.6987 72.1335L35.8026 72.0718L35.7265 71.9438L35.9826 71.7916L35.9517 71.7397Z" fill="white"/>
<path d="M87.3405 83.2561L87.0879 83.4062L86.9358 83.1501L86.8333 83.211L86.9854 83.4671L86.7328 83.6171L86.7946 83.721L87.0471 83.571L87.1993 83.827L87.3018 83.7661L87.1496 83.5101L87.4022 83.36L87.3405 83.2561Z" fill="white"/>
<path d="M47.922 81.614L47.794 81.6901L47.6418 81.434L47.5899 81.4649L47.742 81.7209L47.614 81.797L47.6757 81.9009L47.8037 81.8248L47.9559 82.0809L48.0078 82.05L47.8557 81.794L47.9837 81.7179L47.922 81.614Z" fill="white"/>
<path d="M18.375 65.2648L18.1102 65.4221L17.9529 65.1573L17.8455 65.2212L18.0028 65.4859L17.738 65.6432L17.8018 65.7507L18.0666 65.5934L18.2239 65.8582L18.3314 65.7943L18.1741 65.5295L18.4388 65.3722L18.375 65.2648Z" fill="white"/>
<path opacity="0.2" d="M49.0827 56.6895C49.508 56.4368 49.6889 55.9562 49.4867 55.616C49.2846 55.2758 48.776 55.2048 48.3507 55.4575C47.9254 55.7101 47.7446 56.1908 47.9467 56.531C48.1488 56.8712 48.6574 56.9422 49.0827 56.6895Z" fill="black"/>
<path opacity="0.2" d="M41.2657 39.9975C41.691 39.7448 41.8309 39.1953 41.5782 38.77C41.3256 38.3447 40.776 38.2048 40.3507 38.4575C39.9254 38.7101 39.7855 39.2597 40.0382 39.685C40.2909 40.1103 40.8404 40.2502 41.2657 39.9975Z" fill="black"/>
<path opacity="0.2" d="M95.1742 69.1567C95.4997 69.7048 95.6043 70.3562 95.4666 70.9786C95.3289 71.601 94.9594 72.1475 94.4331 72.507C94.3886 72.5334 94.3456 72.5653 94.2997 72.5925C93.9691 72.7893 93.5976 72.9073 93.214 72.9374C92.8304 72.9675 92.445 72.9089 92.0876 72.7662C91.7303 72.6234 91.4106 72.4004 91.1532 72.1143C90.8959 71.8282 90.7078 71.4867 90.6036 71.1163C90.4993 70.7459 90.4817 70.3564 90.5521 69.9781C90.6225 69.5998 90.779 69.2428 91.0095 68.9347C91.24 68.6266 91.5383 68.3757 91.8813 68.2014C92.2244 68.0271 92.6029 67.9341 92.9877 67.9296C93.3233 67.9262 93.6563 67.9899 93.967 68.117C94.4722 68.3224 94.8962 68.6876 95.1742 69.1567Z" fill="black"/>
<path opacity="0.2" d="M30.6427 45.8854C31.2281 46.8711 31.416 48.0429 31.1682 49.1624C30.9204 50.2819 30.2554 51.2649 29.3086 51.9117C29.2281 51.9595 29.1374 52.0135 29.0637 52.0572C28.469 52.4104 27.801 52.622 27.1115 52.6758C26.4219 52.7296 25.7292 52.624 25.087 52.3673C24.4448 52.1106 23.8702 51.7097 23.4078 51.1954C22.9453 50.6812 22.6074 50.0675 22.42 49.4017C22.2327 48.736 22.201 48.0361 22.3274 47.3561C22.4539 46.6761 22.735 46.0343 23.1491 45.4803C23.5632 44.9263 24.0992 44.475 24.7156 44.1612C25.332 43.8474 26.0123 43.6796 26.7039 43.6707C27.3091 43.6651 27.9092 43.7813 28.4686 44.0123C29.3789 44.3817 30.1427 45.0398 30.6427 45.8854Z" fill="black"/>
<path d="M79.0669 22.6124C79.152 22.5619 79.1799 22.452 79.1294 22.3669C79.0789 22.2819 78.969 22.2539 78.8839 22.3044C78.7989 22.355 78.7709 22.4649 78.8214 22.5499C78.8719 22.635 78.9819 22.663 79.0669 22.6124Z" fill="white"/>
<path d="M99.8224 23.4969C99.6468 19.7217 97.8324 18.3755 95.6082 18.3755C94.9058 18.3755 94.262 18.5511 93.6767 18.8437C93.3255 17.7609 92.3012 17 91.1013 17C89.7551 17 88.643 17.9658 88.4382 19.2534C87.7943 18.7267 87.0042 18.4047 86.0969 18.4047C84.7215 18.4047 83.5216 19.1949 82.907 20.3363C82.3217 20.0143 81.6486 19.868 80.9169 19.9265C79.0147 20.0729 77.5807 21.741 77.5807 23.6433C77.5807 25.4284 79.044 26.8917 80.8292 26.8917H96.4862C98.3299 26.8625 99.8517 25.3406 99.8224 23.4969Z" fill="#3F3D56"/>
<path d="M81.9526 88.9072C81.9526 92.6852 78.8715 95.8029 75.0568 95.8029H35.3696C31.5916 95.8029 28.4739 92.7219 28.4739 88.9072V17.8957C28.4739 14.1178 31.555 11 35.3696 11H75.0935C78.8715 11 81.9892 14.0811 81.9892 17.8957V88.9072H81.9526Z" fill="#E5E5E5"/>
<path d="M35.3696 92.6852C33.0955 92.6852 31.2249 90.8512 31.2249 88.5771V17.8591C31.2249 15.5849 33.0955 13.751 35.3696 13.751H75.0935C77.3676 13.751 79.2383 15.5849 79.2383 17.8591V88.5771C79.2383 90.8512 77.3676 92.6852 75.0935 92.6852H35.3696Z" fill="#3F3D56"/>
<path d="M35.3697 89.9709C34.5994 89.9709 33.9758 89.3474 33.9758 88.6138V17.8591C33.9758 17.0888 34.5994 16.502 35.3697 16.502H75.0935C75.8638 16.502 76.4873 17.1255 76.4873 17.8591V88.5771C76.4873 89.3474 75.8638 89.9342 75.0935 89.9342H35.3697V89.9709Z" fill="#EEEEEE"/>
<path d="M53.7422 67.6006H56.7545C60.2166 67.6006 63.5369 68.9759 65.985 71.424C68.4332 73.8721 69.8085 77.1925 69.8085 80.6546V90.1443H40.6882V80.6546C40.6882 77.1925 42.0635 73.8721 44.5116 71.424C46.9597 68.9759 50.2801 67.6006 53.7422 67.6006Z" fill="#D12421"/>
<path d="M55.2768 62.5249C62.6269 62.5249 68.5854 56.5665 68.5854 49.2163C68.5854 41.8662 62.6269 35.9078 55.2768 35.9078C47.9267 35.9078 41.9683 41.8662 41.9683 49.2163C41.9683 56.5665 47.9267 62.5249 55.2768 62.5249Z" fill="#333333"/>
<path opacity="0.1" d="M53.3173 63.7246H57.1662C57.8859 63.7246 58.5761 64.0105 59.0851 64.5194C59.594 65.0284 59.8799 65.7186 59.8799 66.4383V69.0828C59.8799 70.1833 59.4427 71.2386 58.6646 72.0168C57.8865 72.7949 56.8311 73.2321 55.7307 73.2321H54.7491C53.6486 73.2321 52.5933 72.7949 51.8151 72.0168C51.037 71.2386 50.5999 70.1833 50.5999 69.0828V66.4421C50.5999 65.7224 50.8858 65.0321 51.3947 64.5232C51.9036 64.0143 52.5939 63.7284 53.3136 63.7284L53.3173 63.7246Z" fill="black"/>
<path d="M50.5999 63.4531H59.8846V68.8151C59.8846 69.9156 59.4475 70.9709 58.6693 71.7491C57.8912 72.5272 56.8358 72.9644 55.7354 72.9644H54.7491C53.6486 72.9644 52.5933 72.5272 51.8151 71.7491C51.037 70.9709 50.5999 69.9156 50.5999 68.8151V63.4531Z" fill="#FDB797"/>
<path opacity="0.1" d="M50.6167 64.7924C53.6091 65.9103 56.903 65.9193 59.9014 64.8177V63.6779H50.6167V64.7924Z" fill="black"/>
<path d="M55.2768 65.4137C62.6269 65.4137 68.5854 59.4553 68.5854 52.1051C68.5854 44.755 62.6269 38.7966 55.2768 38.7966C47.9267 38.7966 41.9683 44.755 41.9683 52.1051C41.9683 59.4553 47.9267 65.4137 55.2768 65.4137Z" fill="#FDB797"/>
<path opacity="0.1" d="M42.5532 47.3944H67.9313C67.9313 47.3944 65.765 37.1468 56.1705 37.7953C46.5761 38.4438 42.5532 47.3944 42.5532 47.3944Z" fill="black"/>
<path d="M42.5532 47.0501H67.9313C67.9313 47.0501 65.765 36.8024 56.1705 37.4556C46.5761 38.1088 42.5532 47.0501 42.5532 47.0501Z" fill="#333333"/>
<path d="M42.2434 53.8597C42.9271 53.8597 43.4814 52.8203 43.4814 51.5381C43.4814 50.2559 42.9271 49.2164 42.2434 49.2164C41.5597 49.2164 41.0054 50.2559 41.0054 51.5381C41.0054 52.8203 41.5597 53.8597 42.2434 53.8597Z" fill="#FDB797"/>
<path d="M44.5229 40.2601C44.8271 39.2663 45.3801 38.3165 46.2335 37.7241C46.882 37.274 47.6578 37.0579 48.4017 36.794C49.5025 36.4039 50.5589 35.8986 51.5534 35.2865C52.6819 34.5912 53.7422 33.7537 54.9849 33.2942C57.1231 32.5035 59.5047 32.9311 61.7121 33.4982C62.2558 33.6376 62.8061 33.7892 63.2852 34.083C63.8401 34.4227 64.2659 34.9337 64.6814 35.4343L68.1849 39.6603C68.5059 40.0467 68.8287 40.4379 69.0552 40.8871C69.2664 41.3221 69.4012 41.7903 69.4538 42.2711C69.5474 43.0459 69.4744 43.8675 69.0795 44.5422C68.4871 45.5538 67.266 46.0619 66.0953 46.1087C64.9247 46.1555 63.7755 45.8158 62.6507 45.4864C59.0237 44.4243 55.3517 43.4342 51.5899 42.9935C49.723 42.7631 47.8391 42.702 45.9612 42.811C45.3717 42.8494 44.5931 43.1198 44.2347 42.519C43.925 41.9978 44.3629 40.7822 44.5229 40.2601Z" fill="#333333"/>
<path opacity="0.05" d="M46.3889 79.8114V90.1443" stroke="black" stroke-width="4" stroke-miterlimit="10"/>
<path opacity="0.05" d="M64.3408 79.8114V90.1443" stroke="black" stroke-width="4" stroke-miterlimit="10"/>
<path d="M40.3214 47.5327C40.2847 47.5327 40.2847 47.5327 40.248 47.5327C39.4411 47.5327 38.8542 49.33 38.8542 51.9342C38.8542 54.5018 39.5144 56.5925 40.2847 56.5925H42.5955V47.5327H40.3214Z" fill="url(#paint0_linear)"/>
<path d="M70.1051 47.5327C70.1418 47.5327 70.1418 47.5327 70.1784 47.5327C70.9854 47.5327 71.5723 49.33 71.5723 51.9342C71.5723 54.5018 70.912 56.5925 70.1418 56.5925H67.8309V47.5327H70.1051Z" fill="url(#paint1_linear)"/>
<path d="M46.7769 59.8937C45.97 59.8937 45.1997 59.5269 44.6862 58.9034C44.1727 58.2798 42.5955 56.3358 42.5955 56.3358H41.0549C41.0549 56.3358 43.6225 59.4169 44.4661 60.4806C44.9796 61.1041 45.7499 61.4709 46.5568 61.4709C47.7673 61.4709 51.3252 61.4709 51.3252 61.4709V59.8937C51.2885 59.8937 47.914 59.8937 46.7769 59.8937Z" fill="url(#paint2_linear)"/>
<path d="M73.0691 8.70178C72.8642 4.80948 70.9912 3.43401 68.7085 3.43401C68.0062 3.43401 67.3331 3.6096 66.7185 3.90225C66.338 2.79017 65.3138 2 64.0846 2C62.7091 2 61.5678 2.99502 61.3337 4.31197C60.6898 3.75593 59.8411 3.43401 58.9339 3.43401C57.4999 3.43401 56.2707 4.22417 55.6562 5.42406C55.0416 5.10214 54.3392 4.92654 53.6076 4.98507C51.6468 5.1314 50.1835 6.85806 50.1835 8.81885C50.1835 10.6626 51.6761 12.1844 53.5491 12.1844H69.645C71.518 12.1844 73.0691 10.6333 73.0691 8.70178Z" fill="#3F3D56"/>
<path d="M38.3603 30.5532C38.0384 24.1733 34.9655 21.8906 31.1903 21.8906C30.0196 21.8906 28.9076 22.1833 27.9418 22.6808C27.3272 20.8663 25.6006 19.5494 23.5812 19.5494C21.3278 19.5494 19.4256 21.1882 19.0451 23.3539C17.9623 22.4467 16.5868 21.8906 15.065 21.8906C12.7238 21.8906 10.6752 23.2076 9.6509 25.1391C8.65588 24.6123 7.48526 24.3489 6.25611 24.4367C3.06618 24.7001 0.637146 27.5096 0.637146 30.758C0.637146 33.8016 3.09544 36.2892 6.16831 36.2892H32.6828C35.8435 36.2892 38.3896 33.7431 38.3896 30.5824L38.3603 30.5532Z" fill="#3F3D56"/>
</g>
<defs>
<linearGradient id="paint0_linear" x1="38.8961" y1="52.0499" x2="42.6615" y2="52.0499" gradientUnits="userSpaceOnUse">
<stop stop-color="#0A3C5F"/>
<stop offset="1" stop-color="#051F30"/>
</linearGradient>
<linearGradient id="paint1_linear" x1="67.7817" y1="52.0499" x2="71.5471" y2="52.0499" gradientUnits="userSpaceOnUse">
<stop stop-color="#0A3C5F"/>
<stop offset="1" stop-color="#051F30"/>
</linearGradient>
<linearGradient id="paint2_linear" x1="46.164" y1="61.4691" x2="46.164" y2="56.3589" gradientUnits="userSpaceOnUse">
<stop stop-color="#000203"/>
<stop offset="1" stop-color="#0A4063"/>
</linearGradient>
<clipPath id="clip0">
<rect width="109.306" height="100" fill="white" transform="translate(0.637146)"/>
</clipPath>
</defs>
</svg>
