<svg width="141" height="100" viewBox="0 0 141 100" fill="none" xmlns="http://www.w3.org/2000/svg">
<g clip-path="url(#clip0)">
<path d="M122.502 86.9986C121.369 87.096 120.229 87.0808 119.1 86.9532C106.681 85.5801 89.7686 85.9706 75.9824 94.5126C56.9163 106.324 27.0362 96.2123 13.8555 90.7114C3.78449 86.5098 -1.44382 76.219 1.69661 66.5594C1.74082 66.4231 1.78626 66.2868 1.83416 66.1505C3.81029 60.41 7.71095 55.9174 12.5413 53.5359C16.7515 51.4603 22.8985 47.1261 25.6336 38.7979C26.7635 35.359 28.3135 32.124 30.3265 29.3042C35.7169 21.7522 47.0013 10.5058 66.4088 10.5758C69.8116 10.5923 73.1888 11.164 76.4074 12.2682C83.4976 14.684 89.9013 19.5955 94.7845 26.4045C97.9003 30.7473 102.57 34.7843 109.255 35.1134C118.532 35.5727 127.386 39.8922 134.028 47.5793C134.22 47.8004 134.409 48.0227 134.598 48.2474C146.424 62.3358 138.21 85.6255 122.502 86.9986Z" fill="#323145"/>
<g opacity="0.7">
<path opacity="0.7" d="M34.867 85.6169C35.803 85.6169 36.5619 84.8581 36.5619 83.922C36.5619 82.986 35.803 82.2272 34.867 82.2272C33.9309 82.2272 33.1721 82.986 33.1721 83.922C33.1721 84.8581 33.9309 85.6169 34.867 85.6169Z" fill="url(#paint0_linear)"/>
</g>
<path opacity="0.2" d="M34.867 85.5409C35.761 85.5409 36.4857 84.8161 36.4857 83.9221C36.4857 83.0281 35.761 82.3034 34.867 82.3034C33.973 82.3034 33.2483 83.0281 33.2483 83.9221C33.2483 84.8161 33.973 85.5409 34.867 85.5409Z" fill="black"/>
<path d="M25.7356 51.4897C26.0816 51.4897 26.362 51.2093 26.362 50.8634C26.362 50.5174 26.0816 50.237 25.7356 50.237C25.3897 50.237 25.1093 50.5174 25.1093 50.8634C25.1093 51.2093 25.3897 51.4897 25.7356 51.4897Z" fill="white"/>
<path d="M70.441 87.8436C70.7869 87.8436 71.0674 87.5631 71.0674 87.2172C71.0674 86.8713 70.7869 86.5908 70.441 86.5908C70.095 86.5908 69.8146 86.8713 69.8146 87.2172C69.8146 87.5631 70.095 87.8436 70.441 87.8436Z" fill="white"/>
<path d="M44.0353 90.7604C44.2286 90.7604 44.3854 90.6037 44.3854 90.4104C44.3854 90.2171 44.2286 90.0604 44.0353 90.0604C43.842 90.0604 43.6853 90.2171 43.6853 90.4104C43.6853 90.6037 43.842 90.7604 44.0353 90.7604Z" fill="white"/>
<path d="M121.533 73.8117C121.726 73.8117 121.883 73.655 121.883 73.4617C121.883 73.2684 121.726 73.1116 121.533 73.1116C121.34 73.1116 121.183 73.2684 121.183 73.4617C121.183 73.655 121.34 73.8117 121.533 73.8117Z" fill="white"/>
<path d="M101.514 42.3706C101.707 42.3706 101.864 42.2139 101.864 42.0206C101.864 41.8272 101.707 41.6705 101.514 41.6705C101.32 41.6705 101.164 41.8272 101.164 42.0206C101.164 42.2139 101.32 42.3706 101.514 42.3706Z" fill="white"/>
<path d="M129.884 57.7227C130.078 57.7227 130.234 57.566 130.234 57.3727C130.234 57.1794 130.078 57.0226 129.884 57.0226C129.691 57.0226 129.534 57.1794 129.534 57.3727C129.534 57.566 129.691 57.7227 129.884 57.7227Z" fill="white"/>
<path d="M36.7892 30.9793C37.1351 30.9793 37.4156 30.6989 37.4156 30.3529C37.4156 30.007 37.1351 29.7266 36.7892 29.7266C36.4433 29.7266 36.1628 30.007 36.1628 30.3529C36.1628 30.6989 36.4433 30.9793 36.7892 30.9793Z" fill="white"/>
<path d="M19.5738 72.7335H19.0162V72.1759H18.789V72.7335H18.2314V72.9607H18.789V73.5171H19.0162V72.9607H19.5738V72.7335Z" fill="white"/>
<path d="M33.5751 72.4878H33.0175V71.9302H32.7903V72.4878H32.2327V72.715H32.7903V73.2714H33.0175V72.715H33.5751V72.4878Z" fill="white"/>
<path d="M53.5942 83.787H53.0366V83.2294H52.8094V83.787H52.2518V84.0142H52.8094V84.5705H53.0366V84.0142H53.5942V83.787Z" fill="white"/>
<path d="M81.4773 16.0534H81.2231V15.7991H81.12V16.0534H80.8657V16.1565H81.12V16.4108H81.2231V16.1565H81.4773V16.0534Z" fill="white"/>
<path d="M117.708 39.3886H117.454V39.1344H117.351V39.3886H117.097V39.4918H117.351V39.746H117.454V39.4918H117.708V39.3886Z" fill="white"/>
<path d="M96.3382 54.6179H96.084V54.3636H95.9808V54.6179H95.7266V54.7211H95.9808V54.9753H96.084V54.7211H96.3382V54.6179Z" fill="white"/>
<path d="M9.38385 64.1977H9.12961V63.9434H9.02645V64.1977H8.77222V64.3008H9.02645V64.555H9.12961V64.3008H9.38385V64.1977Z" fill="white"/>
<path d="M19.8232 85.0764H19.5689V84.8222H19.4658V85.0764H19.2115V85.1796H19.4658V85.4338H19.5689V85.1796H19.8232V85.0764Z" fill="white"/>
<path d="M52.6153 19.1238H52.3611V18.8696H52.2579V19.1238H52.0037V19.227H52.2579V19.4812H52.3611V19.227H52.6153V19.1238Z" fill="white"/>
<path d="M37.1404 55.8461H36.8862V55.5919H36.783V55.8461H36.5288V55.9493H36.783V56.2035H36.8862V55.9493H37.1404V55.8461Z" fill="white"/>
<path d="M40.4565 45.2838H40.2022V45.0296H40.0991V45.2838H39.8448V45.387H40.0991V45.6412H40.2022V45.387H40.4565V45.2838Z" fill="white"/>
<g opacity="0.7">
<path opacity="0.7" d="M92.6757 69.6581C93.4571 69.6581 94.0906 69.0246 94.0906 68.2432C94.0906 67.4618 93.4571 66.8284 92.6757 66.8284C91.8943 66.8284 91.2609 67.4618 91.2609 68.2432C91.2609 69.0246 91.8943 69.6581 92.6757 69.6581Z" fill="url(#paint1_linear)"/>
</g>
<path opacity="0.2" d="M92.6758 69.5537C93.3996 69.5537 93.9863 68.9669 93.9863 68.2432C93.9863 67.5195 93.3996 66.9327 92.6758 66.9327C91.9521 66.9327 91.3654 67.5195 91.3654 68.2432C91.3654 68.9669 91.9521 69.5537 92.6758 69.5537Z" fill="black"/>
<path opacity="0.2" d="M96.2043 78.9332C97.0136 78.9332 97.6695 78.2772 97.6695 77.4679C97.6695 76.6587 97.0136 76.0027 96.2043 76.0027C95.3951 76.0027 94.7391 76.6587 94.7391 77.4679C94.7391 78.2772 95.3951 78.9332 96.2043 78.9332Z" fill="black"/>
<g opacity="0.7">
<path opacity="0.7" d="M83.074 37.7084C83.0841 34.6303 82.3465 31.5957 80.9247 28.8656C80.2504 27.5834 79.6351 26.7875 79.161 26.2975C78.9799 26.1062 78.7434 25.9765 78.4847 25.9267C78.2261 25.8769 77.9583 25.9095 77.7191 26.0199C77.5279 26.0878 77.3551 26.1992 77.2144 26.3454C76.5745 27.0086 75.996 27.8855 75.4949 28.8177C74 31.6129 73.2246 34.7363 73.2388 37.9061V39.8074H72.0192V17.6991C72.0192 13.0664 70.9826 8.4964 68.9488 4.44345C67.9859 2.52259 67.1065 1.32881 66.4323 0.595592C66.2686 0.408994 66.0669 0.259485 65.8409 0.157059C65.6148 0.0546323 65.3694 0.00164795 65.1212 0.00164795C64.873 0.00164795 64.6276 0.0546323 64.4015 0.157059C64.1754 0.259485 63.9738 0.408994 63.8101 0.595592C62.8964 1.58918 62.071 2.90332 61.3538 4.29975C59.218 8.44114 58.1335 13.1426 58.1335 17.9103V39.7988H57.0798V37.8054C57.0931 34.6377 56.3178 31.5164 54.8236 28.7231C54.3188 27.7909 53.7404 26.914 53.1042 26.2508C52.9194 26.0546 52.6765 25.9227 52.4113 25.8745C52.1461 25.8263 51.8724 25.8644 51.6304 25.9831L51.6746 26.0064C51.5203 26.0751 51.3807 26.1726 51.2631 26.2938C50.7903 26.7851 50.175 27.5797 49.5007 28.8619C48.0789 31.592 47.3413 34.6266 47.3514 37.7047V70.7425H51.1145L50.6994 73.458V81.5798H53.7772V73.458L53.3658 70.7413H57.0748V40.6511H58.1286V70.6111H61.1339L60.7028 73.458V81.5798H63.7806V73.458L63.3496 70.6074H67.4025L66.969 73.458V81.5798H70.0468V73.458L69.6157 70.6074H72.0155V40.6548H73.2351V70.7904H74.2238V70.7449H77.4932L77.0829 73.458V81.5798H80.1607V73.458L79.7493 70.7413H83.074V37.7084Z" fill="url(#paint2_linear)"/>
</g>
<path d="M54.3876 71.8787H51.4731L51.9939 68.3403H53.8668L54.3876 71.8787Z" fill="#535461"/>
<g opacity="0.1">
<path opacity="0.1" d="M51.849 69.7452H54.0118L53.8669 68.7565H51.9939L51.849 69.7452Z" fill="black"/>
</g>
<path d="M79.3624 71.8787H76.4492L76.9687 68.3403H78.8429L79.3624 71.8787Z" fill="#535461"/>
<g opacity="0.1">
<path opacity="0.1" d="M76.8237 69.7452H78.9878L78.8428 68.7565H76.9687L76.8237 69.7452Z" fill="black"/>
</g>
<path d="M63.8567 71.8787H60.9435L61.463 68.3403H63.3372L63.8567 71.8787Z" fill="#535461"/>
<g opacity="0.1">
<path opacity="0.1" d="M61.3182 69.7452H63.4822L63.3373 68.7565H61.4632L61.3182 69.7452Z" fill="black"/>
</g>
<path d="M69.7888 71.8787H66.8756L67.3951 68.3403H69.2681L69.7888 71.8787Z" fill="#535461"/>
<g opacity="0.1">
<path opacity="0.1" d="M67.2502 69.7452H69.4143L69.2681 68.7565H67.3952L67.2502 69.7452Z" fill="black"/>
</g>
<path d="M75.2002 39.0988H54.3876V39.9315H75.2002V39.0988Z" fill="#535461"/>
<path d="M78.4167 25.9476C78.3068 25.8261 78.1726 25.729 78.0228 25.6626C77.873 25.5962 77.711 25.5618 77.5472 25.5618C77.3833 25.5618 77.2213 25.5962 77.0715 25.6626C76.9218 25.729 76.7876 25.8261 76.6776 25.9476C76.0721 26.5936 75.5244 27.4472 75.0466 28.3548C73.6295 31.0861 72.8966 34.1206 72.9108 37.1976V69.2332H82.1221V37.0625C82.1336 34.0706 81.4362 31.1186 80.087 28.4481C79.4471 27.2003 78.865 26.4192 78.4167 25.9476Z" fill="#E0E0E0"/>
<path d="M52.0025 25.9476C52.1125 25.8261 52.2467 25.729 52.3964 25.6626C52.5462 25.5962 52.7082 25.5618 52.8721 25.5618C53.0359 25.5618 53.1979 25.5962 53.3477 25.6626C53.4975 25.729 53.6316 25.8261 53.7416 25.9476C54.3483 26.5936 54.8949 27.4472 55.3738 28.3548C56.7905 31.0863 57.5233 34.1207 57.5096 37.1976V69.2332H48.2984V37.0625C48.2868 34.0706 48.9842 31.1186 50.3334 28.4481C50.9721 27.2003 51.5542 26.4192 52.0025 25.9476Z" fill="#E0E0E0"/>
<path d="M48.3512 37.7454L50.5373 37.7564V40.451H48.3512V37.7454Z" fill="#535461"/>
<path d="M55.3235 37.7454L57.5096 37.7564V40.451H55.3235V37.7454Z" fill="#535461"/>
<path d="M72.9109 37.7454L75.0958 37.7564V40.451H72.9109V37.7454Z" fill="#535461"/>
<path d="M79.8832 37.7454L82.0681 37.7564V40.451H79.8832V37.7454Z" fill="#535461"/>
<g opacity="0.1">
<path opacity="0.1" d="M55.3737 28.313C54.8947 27.4054 54.3482 26.5518 53.7415 25.9058C53.5702 25.7159 53.3413 25.5874 53.0899 25.5401C52.8385 25.4929 52.5786 25.5294 52.35 25.6442C52.4816 25.7099 52.6006 25.7985 52.7012 25.9058C53.3067 26.5518 53.8545 27.4054 54.3322 28.313C55.7495 31.0443 56.4824 34.0788 56.468 37.1559V69.189H57.5095V37.1571C57.5235 34.0797 56.7906 31.0449 55.3737 28.313Z" fill="black"/>
</g>
<g opacity="0.1">
<path opacity="0.1" d="M75.8793 28.4014C76.3571 27.4938 76.9049 26.6402 77.5104 25.9942C77.6236 25.8719 77.7607 25.7741 77.9132 25.7068C77.6881 25.6083 77.4377 25.583 77.1975 25.6346C76.9573 25.6862 76.7393 25.812 76.5745 25.9942C75.9678 26.6402 75.42 27.4938 74.9423 28.4014C73.5256 31.1329 72.7928 34.1673 72.8065 37.2442V69.2822H73.7436V37.2467C73.7289 34.1688 74.4618 31.1334 75.8793 28.4014Z" fill="black"/>
</g>
<path d="M52.9703 79.788H52.8905C52.5146 79.788 52.1541 79.6387 51.8883 79.3729C51.6225 79.1071 51.4731 78.7466 51.4731 78.3707V71.8786H54.3876V78.3707C54.3876 78.7466 54.2383 79.1071 53.9725 79.3729C53.7067 79.6387 53.3462 79.788 52.9703 79.788Z" fill="url(#paint3_linear)"/>
<path d="M62.4406 79.788H62.3596C61.9839 79.7877 61.6237 79.6382 61.3582 79.3725C61.0926 79.1067 60.9435 78.7464 60.9435 78.3707V71.8786H63.8567V78.3707C63.8567 78.7464 63.7075 79.1067 63.442 79.3725C63.1765 79.6382 62.8163 79.7877 62.4406 79.788Z" fill="url(#paint4_linear)"/>
<path d="M68.3715 79.788H68.2892C67.914 79.787 67.5544 79.6373 67.2894 79.3716C67.0244 79.1059 66.8756 78.746 66.8756 78.3707V71.8786H69.7888V78.3707C69.7888 78.7466 69.6395 79.1071 69.3737 79.3729C69.1079 79.6387 68.7474 79.788 68.3715 79.788Z" fill="url(#paint5_linear)"/>
<path d="M77.9464 79.788H77.869C77.6827 79.7883 77.4981 79.7519 77.3258 79.6808C77.1536 79.6098 76.9971 79.5054 76.8652 79.3738C76.7333 79.2421 76.6287 79.0858 76.5573 78.9137C76.486 78.7415 76.4492 78.557 76.4492 78.3707V71.8786H79.3624V78.3707C79.3624 78.7464 79.2133 79.1067 78.9478 79.3725C78.6822 79.6382 78.322 79.7877 77.9464 79.788Z" fill="url(#paint6_linear)"/>
<path d="M66.3659 0.82903C66.2138 0.647972 66.0238 0.502403 65.8094 0.402534C65.595 0.302665 65.3614 0.250916 65.1249 0.250916C64.8883 0.250916 64.6547 0.302665 64.4403 0.402534C64.2259 0.502403 64.036 0.647972 63.8838 0.82903C63.0241 1.79683 62.238 3.07535 61.5503 4.43616C59.5287 8.46947 58.502 13.0481 58.502 17.6906V69.103H71.6434V17.4842C71.6434 12.9732 70.6608 8.5186 68.74 4.57618C67.8373 2.70567 67.0058 1.5426 66.3659 0.82903Z" fill="#EEEEEE"/>
<path d="M67.0659 6.53998H62.9098C62.1637 6.53998 61.5588 7.14484 61.5588 7.89096V8.33188C61.5588 9.07801 62.1637 9.68286 62.9098 9.68286H67.0659C67.812 9.68286 68.4169 9.07801 68.4169 8.33188V7.89096C68.4169 7.14484 67.812 6.53998 67.0659 6.53998Z" fill="#535461"/>
<g opacity="0.1">
<path opacity="0.1" d="M71.5808 19.4481H58.5732V19.9529H71.5808V19.4481Z" fill="black"/>
</g>
<path d="M94.2589 38.2366C93.9178 37.7887 93.4911 37.413 93.0037 37.1312C92.4436 36.8083 91.8168 36.6184 91.1716 36.5764C90.5265 36.5344 89.8803 36.6413 89.2831 36.8889C88.6858 37.1364 88.1535 37.518 87.7273 38.0042C87.3011 38.4903 86.9923 39.0679 86.825 39.6924C86.6576 40.3169 86.6361 40.9715 86.7621 41.6056C86.8882 42.2397 87.1583 42.8364 87.5517 43.3494C87.9451 43.8625 88.4512 44.2782 89.031 44.5644C89.6107 44.8506 90.2484 44.9997 90.8949 45.0001C90.9846 45.0001 91.0743 45.0001 91.1615 44.9903C91.9213 44.9423 92.654 44.6895 93.2817 44.2586C93.9093 43.8276 94.4086 43.2348 94.7264 42.5429C95.0441 41.851 95.1686 41.086 95.0865 40.3291C95.0044 39.5722 94.7188 38.8516 94.2601 38.244L94.2589 38.2366Z" fill="url(#paint7_linear)"/>
<path opacity="0.2" d="M94.8791 40.7764C94.8789 41.7897 94.4928 42.7649 93.7992 43.5037C93.1057 44.2424 92.1567 44.6893 91.1455 44.7533C91.0632 44.7533 90.9784 44.7619 90.8937 44.7619C90.282 44.7622 89.6784 44.6218 89.1296 44.3515C88.5809 44.0812 88.1017 43.6882 87.7292 43.203C87.3566 42.7178 87.1008 42.1534 86.9814 41.5534C86.8619 40.9535 86.8822 40.3341 87.0406 39.7432C87.1989 39.1524 87.4911 38.6059 87.8945 38.146C88.298 37.6862 88.8018 37.3254 89.367 37.0915C89.9323 36.8576 90.5438 36.7569 91.1541 36.7972C91.7645 36.8376 92.3575 37.0178 92.887 37.3241C93.3486 37.5919 93.752 37.9493 94.0734 38.3754C94.5971 39.0662 94.8801 39.9096 94.8791 40.7764Z" fill="black"/>
<path opacity="0.1" d="M89.9125 38.2476C89.7064 38.3362 89.5077 38.441 89.318 38.5608C89.1914 38.6299 89.0826 38.7274 89 38.8457C88.959 38.9053 88.9364 38.9756 88.9351 39.0478C88.9338 39.1201 88.9538 39.1912 88.9926 39.2522C89.0896 39.3849 89.2763 39.4045 89.4409 39.4143C89.6137 39.4363 89.7892 39.4187 89.9542 39.3627C90.0656 39.3076 90.1669 39.2342 90.2539 39.1454L90.5965 38.8346C90.7194 38.7266 90.8422 38.578 90.7943 38.4257C90.7659 38.3713 90.7245 38.3248 90.6737 38.2905C90.6228 38.2562 90.5642 38.2351 90.5032 38.2292C90.2078 38.1716 89.9016 38.2254 89.6435 38.3802" fill="black"/>
<g opacity="0.1">
<path opacity="0.1" d="M88.4815 42.5597C88.5975 42.5597 88.6915 42.4657 88.6915 42.3497C88.6915 42.2337 88.5975 42.1397 88.4815 42.1397C88.3655 42.1397 88.2715 42.2337 88.2715 42.3497C88.2715 42.4657 88.3655 42.5597 88.4815 42.5597Z" fill="black"/>
</g>
<g opacity="0.1">
<path opacity="0.1" d="M92.7459 41.7897C93.1705 41.7897 93.5147 41.4455 93.5147 41.0208C93.5147 40.5962 93.1705 40.252 92.7459 40.252C92.3213 40.252 91.9771 40.5962 91.9771 41.0208C91.9771 41.4455 92.3213 41.7897 92.7459 41.7897Z" fill="black"/>
</g>
<g opacity="0.1">
<path opacity="0.1" d="M94.0808 38.3753C94.0786 38.5763 94.0186 38.7725 93.9081 38.9404C93.7975 39.1083 93.6411 39.2409 93.4573 39.3224C93.2736 39.4039 93.0703 39.4309 92.8716 39.4002C92.673 39.3694 92.4873 39.2822 92.3368 39.149C92.1863 39.0158 92.0772 38.8421 92.0226 38.6486C91.968 38.4552 91.9701 38.2501 92.0287 38.0578C92.0874 37.8655 92.2 37.6941 92.3533 37.564C92.5065 37.434 92.6939 37.3506 92.8932 37.324C93.3552 37.5917 93.759 37.9492 94.0808 38.3753Z" fill="black"/>
</g>
<g opacity="0.1">
<path opacity="0.1" d="M94.152 43.0707C93.8091 43.5587 93.3609 43.9633 92.8404 44.2546C92.32 44.5458 91.7407 44.7163 91.1454 44.7532C91.1454 44.698 91.1381 44.6427 91.1381 44.5862C91.1384 44.2365 91.2358 43.8937 91.4195 43.596C91.6032 43.2984 91.8659 43.0576 92.1784 42.9004C92.4909 42.7433 92.8408 42.676 93.1893 42.7061C93.5378 42.7361 93.871 42.8623 94.152 43.0707Z" fill="black"/>
</g>
<path d="M39.8166 60.9884C39.5788 60.674 39.2806 60.4101 38.9397 60.2123C38.5483 59.9826 38.1092 59.8465 37.6566 59.8144C37.204 59.7823 36.7501 59.8551 36.3302 60.0272C35.9104 60.1993 35.5359 60.466 35.236 60.8065C34.9362 61.147 34.7189 61.5521 34.6013 61.9904C34.4836 62.4286 34.4688 62.8881 34.5578 63.333C34.6468 63.7779 34.8374 64.1963 35.1146 64.5555C35.3918 64.9147 35.7482 65.2051 36.1561 65.404C36.5639 65.6029 37.0121 65.7049 37.4659 65.7022C37.5285 65.7022 37.5887 65.7022 37.6525 65.696C38.1817 65.6604 38.6915 65.4827 39.1281 65.1815C39.5647 64.8804 39.912 64.4671 40.1333 63.9851C40.3546 63.5031 40.4418 62.9703 40.3856 62.4429C40.3294 61.9155 40.132 61.413 39.8141 60.9884H39.8166Z" fill="url(#paint8_linear)"/>
<path opacity="0.2" d="M40.2489 62.7607C40.2488 63.4676 39.9794 64.148 39.4955 64.6633C39.0116 65.1787 38.3495 65.4904 37.644 65.5351C37.5863 65.5351 37.5212 65.5351 37.4684 65.5351C37.0419 65.535 36.6212 65.4368 36.2388 65.2481C35.8564 65.0594 35.5224 64.7853 35.2629 64.447C35.0033 64.1086 34.8251 63.7151 34.7419 63.2969C34.6587 62.8786 34.6728 62.4468 34.7832 62.0349C34.8936 61.623 35.0972 61.242 35.3783 60.9213C35.6595 60.6007 36.0106 60.349 36.4046 60.1858C36.7985 60.0225 37.2248 59.9521 37.6503 59.9799C38.0758 60.0077 38.4893 60.133 38.8587 60.3461C39.1812 60.5338 39.4627 60.7843 39.6864 61.083C40.0526 61.5655 40.2502 62.1549 40.2489 62.7607Z" fill="black"/>
<path opacity="0.1" d="M36.783 60.997C36.6394 61.0582 36.5009 61.1309 36.3691 61.2144C36.2812 61.2635 36.2053 61.3314 36.1468 61.4134C36.1195 61.4557 36.105 61.5049 36.105 61.5553C36.105 61.6056 36.1195 61.6548 36.1468 61.6971C36.1875 61.7374 36.2365 61.7683 36.2904 61.7878C36.3442 61.8073 36.4017 61.8149 36.4587 61.8101C36.5794 61.8257 36.7021 61.8135 36.8174 61.7745C36.8954 61.7359 36.9664 61.6844 37.0274 61.6222L37.2656 61.406C37.3491 61.3299 37.44 61.2267 37.4032 61.1211C37.3844 61.0824 37.3558 61.0494 37.3202 61.0252C37.2847 61.0011 37.2434 60.9867 37.2005 60.9835C36.995 60.9432 36.7818 60.9809 36.6024 61.0891" fill="black"/>
<g opacity="0.1">
<path opacity="0.1" d="M35.7845 64.0036C35.8652 64.0036 35.9306 63.9382 35.9306 63.8575C35.9306 63.7767 35.8652 63.7113 35.7845 63.7113C35.7037 63.7113 35.6383 63.7767 35.6383 63.8575C35.6383 63.9382 35.7037 64.0036 35.7845 64.0036Z" fill="black"/>
</g>
<g opacity="0.1">
<path opacity="0.1" d="M38.7603 63.4681C39.0568 63.4681 39.2971 63.2278 39.2971 62.9314C39.2971 62.635 39.0568 62.3947 38.7603 62.3947C38.4639 62.3947 38.2236 62.635 38.2236 62.9314C38.2236 63.2278 38.4639 63.4681 38.7603 63.4681Z" fill="black"/>
</g>
<g opacity="0.1">
<path opacity="0.1" d="M39.6876 61.0854C39.6865 61.227 39.6447 61.3653 39.567 61.4837C39.4894 61.6021 39.3794 61.6956 39.25 61.7531C39.1206 61.8106 38.9774 61.8296 38.8375 61.8078C38.6977 61.7861 38.567 61.7245 38.4612 61.6304C38.3554 61.5364 38.2789 61.4138 38.2409 61.2775C38.2029 61.1411 38.205 60.9966 38.2469 60.8614C38.2888 60.7262 38.3688 60.6059 38.4773 60.515C38.5858 60.424 38.7182 60.3662 38.8586 60.3485C39.1816 60.5361 39.4635 60.7867 39.6876 61.0854Z" fill="black"/>
</g>
<g opacity="0.1">
<path opacity="0.1" d="M39.7416 64.361C39.5024 64.7015 39.1897 64.9838 38.8265 65.1871C38.4634 65.3903 38.0592 65.5093 37.6439 65.5352C37.6439 65.4971 37.6439 65.4578 37.6439 65.4123C37.6441 65.1683 37.7121 64.9292 37.8402 64.7215C37.9684 64.5139 38.1517 64.3458 38.3696 64.2362C38.5876 64.1266 38.8318 64.0796 39.0749 64.1006C39.318 64.1215 39.5505 64.2096 39.7465 64.3549L39.7416 64.361Z" fill="black"/>
</g>
<path d="M118.068 52.8199C118.193 52.8199 118.294 52.7187 118.294 52.5939C118.294 52.4691 118.193 52.3679 118.068 52.3679C117.943 52.3679 117.842 52.4691 117.842 52.5939C117.842 52.7187 117.943 52.8199 118.068 52.8199Z" fill="white"/>
</g>
<defs>
<linearGradient id="paint0_linear" x1="34.867" y1="85.6169" x2="34.867" y2="82.2284" gradientUnits="userSpaceOnUse">
<stop stop-color="#808080" stop-opacity="0.25"/>
<stop offset="0.54" stop-color="#808080" stop-opacity="0.12"/>
<stop offset="1" stop-color="#808080" stop-opacity="0.1"/>
</linearGradient>
<linearGradient id="paint1_linear" x1="2208.3" y1="1671.72" x2="2208.3" y2="1606.55" gradientUnits="userSpaceOnUse">
<stop stop-color="#808080" stop-opacity="0.25"/>
<stop offset="0.54" stop-color="#808080" stop-opacity="0.12"/>
<stop offset="1" stop-color="#808080" stop-opacity="0.1"/>
</linearGradient>
<linearGradient id="paint2_linear" x1="19942.4" y1="57688.8" x2="19942.4" y2="3498.89" gradientUnits="userSpaceOnUse">
<stop stop-color="#808080" stop-opacity="0.25"/>
<stop offset="0.54" stop-color="#808080" stop-opacity="0.12"/>
<stop offset="1" stop-color="#808080" stop-opacity="0.1"/>
</linearGradient>
<linearGradient id="paint3_linear" x1="52.931" y1="71.8786" x2="52.931" y2="79.788" gradientUnits="userSpaceOnUse">
<stop stop-color="#D12421"/>
<stop offset="0.31" stop-color="#D12421"/>
<stop offset="0.77" stop-color="#D12421"/>
</linearGradient>
<linearGradient id="paint4_linear" x1="1616.75" y1="5040.09" x2="1616.75" y2="5549.46" gradientUnits="userSpaceOnUse">
<stop stop-color="#D12421"/>
<stop offset="0.31" stop-color="#FCCC63"/>
<stop offset="0.77" stop-color="#F55F44"/>
</linearGradient>
<linearGradient id="paint5_linear" x1="1763.39" y1="5040.09" x2="1763.39" y2="5549.46" gradientUnits="userSpaceOnUse">
<stop stop-color="#D12421"/>
<stop offset="0.31" stop-color="#FCCC63"/>
<stop offset="0.77" stop-color="#F55F44"/>
</linearGradient>
<linearGradient id="paint6_linear" x1="2000.05" y1="5040.1" x2="2000.05" y2="5549.47" gradientUnits="userSpaceOnUse">
<stop stop-color="#D12421"/>
<stop offset="0.31" stop-color="#FCCC63"/>
<stop offset="0.77" stop-color="#F55F44"/>
</linearGradient>
<linearGradient id="paint7_linear" x1="6544.33" y1="3487.44" x2="6544.33" y2="2908.46" gradientUnits="userSpaceOnUse">
<stop stop-color="#808080" stop-opacity="0.25"/>
<stop offset="0.54" stop-color="#808080" stop-opacity="0.12"/>
<stop offset="1" stop-color="#808080" stop-opacity="0.1"/>
</linearGradient>
<linearGradient id="paint8_linear" x1="1988.26" y1="3466.36" x2="1988.26" y2="3183.92" gradientUnits="userSpaceOnUse">
<stop stop-color="#808080" stop-opacity="0.25"/>
<stop offset="0.54" stop-color="#808080" stop-opacity="0.12"/>
<stop offset="1" stop-color="#808080" stop-opacity="0.1"/>
</linearGradient>
<clipPath id="clip0">
<rect width="139.419" height="100" fill="white" transform="translate(0.790283)"/>
</clipPath>
</defs>
</svg>
