<svg width="140" height="100" viewBox="0 0 140 100" fill="none" xmlns="http://www.w3.org/2000/svg">
<g clip-path="url(#clip0)">
<g opacity="0.5">
<path opacity="0.5" d="M137.901 46.6204H124.492C123.503 46.6204 122.701 47.422 122.701 48.4107V61.8203C122.701 62.8091 123.503 63.6106 124.492 63.6106H137.901C138.89 63.6106 139.691 62.8091 139.691 61.8203V48.4107C139.691 47.422 138.89 46.6204 137.901 46.6204Z" fill="#D0D2D5"/>
<path opacity="0.1" d="M128.787 51.5032H133.605C133.605 51.5032 137.663 55.0534 133.605 58.7303H128.787C128.787 58.7303 124.73 55.4337 128.787 51.5032Z" fill="black"/>
<path opacity="0.5" d="M129.928 53.5306H129.294V55.4325H129.928V53.5306Z" fill="#3F3D56"/>
<path opacity="0.5" d="M133.098 53.277H132.464V55.5593H133.098V53.277Z" fill="#3F3D56"/>
<path opacity="0.5" d="M131.196 56.5736C131.398 56.5736 131.592 56.6538 131.734 56.7964C131.877 56.9391 131.957 57.1326 131.957 57.3344V57.9683H130.436V57.3344C130.436 57.1326 130.516 56.9391 130.658 56.7964C130.801 56.6538 130.995 56.5736 131.196 56.5736Z" fill="#3F3D56"/>
</g>
<path d="M79.7249 30.2349C80.1269 30.2261 80.5275 30.2565 80.9282 30.2349C81.2946 30.2172 81.6585 30.1576 82.025 30.1208C82.6513 30.0587 83.2827 30.0638 83.9116 30.0371C84.325 30.0194 84.7611 29.9788 85.0959 29.7354C85.4103 29.5084 85.5853 29.1382 85.8655 28.8694C87.0066 27.7726 87.7889 26.3056 88.8033 25.0884C89.0569 24.779 89.3219 24.4709 89.5514 24.14C89.9913 23.5061 90.302 22.7871 90.6113 22.0771C90.7333 21.8139 90.835 21.5418 90.9156 21.2631C90.9727 21.0399 91.0019 20.8092 91.0779 20.5911C91.2352 20.1448 91.613 19.7543 91.6587 19.2839L91.6054 19.2915C92.0669 18.7044 91.9959 17.6812 92.2241 16.9293C92.3701 16.4827 92.5467 16.0468 92.7529 15.6246L93.6011 13.7773C93.7469 13.4603 93.8991 13.1332 94.1514 12.8897C94.457 12.5943 94.883 12.4472 95.1898 12.153C95.3723 11.9719 95.5088 11.7498 95.5879 11.5051L95.6146 11.5305C95.7769 11.689 95.9037 11.883 96.0621 12.0465C96.4032 12.399 96.8762 12.6006 97.2236 12.9468C97.4011 13.123 97.5469 13.3373 97.7612 13.4654C97.8706 13.5251 97.996 13.5491 98.1197 13.5338C98.2434 13.5186 98.3593 13.4649 98.4509 13.3804C99.0735 12.8327 100.002 12.7819 100.675 12.2989C100.861 12.1645 101.024 12.0009 101.199 11.8538C101.616 11.5209 102.07 11.236 102.551 11.0043C102.834 11.0089 103.115 11.0489 103.387 11.1235C103.777 11.2313 104.159 11.41 104.565 11.4024C104.927 11.3846 105.274 11.2513 105.555 11.0221C105.762 10.8623 105.951 10.6417 105.981 10.3881C105.989 10.2579 105.965 10.1278 105.912 10.0087C105.859 9.88951 105.779 9.78483 105.677 9.70342C105.649 9.67933 105.62 9.65777 105.591 9.63622C105.582 9.52243 105.551 9.41154 105.498 9.31023C105.445 9.20891 105.373 9.11925 105.285 9.04663C105.08 8.88578 104.845 8.7661 104.594 8.69415C104.454 8.63931 104.307 8.60597 104.158 8.59525C103.925 8.60795 103.695 8.6616 103.481 8.75374C103.049 8.8927 102.604 8.98619 102.153 9.03269C102.073 9.04029 101.911 9.02381 101.773 9.02254L101.726 8.88814C101.199 9.13158 100.585 8.93125 100.007 8.93252C99.7252 8.93252 99.445 8.98197 99.1648 8.99972C98.8544 9.01199 98.5436 9.00521 98.2341 8.97943L97.2971 8.91984C96.897 8.89927 96.4983 8.85694 96.1027 8.79305C95.9975 8.57877 95.8922 8.36449 95.7743 8.15908C95.5757 7.81382 95.3425 7.48967 95.0782 7.19166C95.1844 7.10024 95.2962 7.01554 95.413 6.93807L95.4358 6.92413C95.465 6.90764 95.5005 6.88989 95.5398 6.87214C95.9055 7.04606 96.3092 7.12462 96.7135 7.10052C97.1177 7.07641 97.5093 6.95042 97.8517 6.73427C98.1941 6.51813 98.4763 6.21885 98.672 5.86431C98.8677 5.50976 98.9704 5.11148 98.9708 4.70652C99.0402 4.6798 99.1079 4.6489 99.1736 4.61397C99.2117 4.59368 99.2497 4.57212 99.2865 4.54803L99.341 4.51126C99.3757 4.48501 99.4087 4.45664 99.4399 4.42631C99.4551 4.4111 99.4703 4.39588 99.4843 4.3794C99.5121 4.34656 99.5363 4.31086 99.5565 4.27289C99.5642 4.25768 99.5718 4.24373 99.5781 4.22852C99.5844 4.2133 99.5781 4.21711 99.5844 4.21077C99.5908 4.20443 99.5933 4.18794 99.5971 4.1778C99.6009 4.16766 99.5971 4.16258 99.6035 4.15498L99.6111 4.12455C99.6117 4.11653 99.6117 4.10848 99.6111 4.10046C99.6111 4.09031 99.6111 4.08017 99.6111 4.07129V4.04467C99.6104 4.03538 99.6104 4.02606 99.6111 4.01677C99.6117 4.00748 99.6117 3.99817 99.6111 3.98888C99.6111 3.98 99.6111 3.96986 99.6111 3.96098C99.6117 3.9517 99.6117 3.94238 99.6111 3.93309V3.89886C99.6117 3.88915 99.6117 3.8794 99.6111 3.86969C99.6111 3.86082 99.6111 3.85194 99.6111 3.84307V3.81264V3.78728C99.6111 3.77587 99.6111 3.76446 99.6111 3.75431C99.6117 3.74672 99.6117 3.73909 99.6111 3.73149C99.6118 3.71967 99.6118 3.70781 99.6111 3.69599C99.6111 3.68838 99.6111 3.68204 99.6111 3.6757C99.6111 3.66936 99.6111 3.65034 99.6022 3.63766V3.61991L99.5908 3.57934V3.56412C99.5908 3.55018 99.5819 3.53623 99.5781 3.52228V3.5096L99.5629 3.46396V3.45635C99.5629 3.4348 99.5489 3.41197 99.5413 3.39042C99.4462 3.11655 99.3435 2.84394 99.2345 2.57514C99.155 2.35021 99.0356 2.14146 98.882 1.95893C98.6576 1.72056 98.3355 1.60138 98.0667 1.41119C97.7498 1.18803 97.5127 0.872319 97.2439 0.590839C96.9751 0.30936 96.6492 0.0545068 96.2625 0.00759354C95.9553 -0.0103187 95.6483 0.0457739 95.3673 0.171156C93.0382 1.03081 91.1312 2.72476 89.0429 4.06876C88.2302 4.59241 87.3198 5.0831 86.3575 5.0159L87.207 6.36497C87.2475 6.4309 87.2894 6.49176 87.3338 6.56023C87.3781 6.6287 87.4225 6.68702 87.4694 6.75042C87.5892 6.91472 87.7405 7.05351 87.9145 7.15869C87.9583 7.1842 88.0041 7.20624 88.0514 7.22462C88.0929 7.24021 88.1352 7.25333 88.1782 7.26393C88.4812 7.3362 88.8122 7.27534 89.119 7.21448C89.2242 7.19419 89.3295 7.17264 89.4334 7.14855L89.5602 7.11305H89.5805C89.5805 7.12065 89.5805 7.12699 89.5805 7.13333C89.5095 7.26013 89.4423 7.37551 89.3827 7.50103C89.187 7.9554 89.0354 8.42755 88.9301 8.91096C88.6904 9.86191 88.4495 10.8331 88.5129 11.8094C88.5345 12.1391 88.5903 12.4764 88.4952 12.7934C88.4495 12.9493 88.3684 13.1091 88.4115 13.2638C88.4567 13.3531 88.4957 13.4454 88.5281 13.5402C88.5484 13.6872 88.4318 13.814 88.3481 13.9358C88.2644 14.0575 88.2213 14.2515 88.3405 14.3364C88.2198 14.3787 88.1134 14.454 88.0334 14.5537C87.9534 14.6535 87.9029 14.7737 87.8878 14.9006C87.8905 14.9753 87.8758 15.0495 87.8447 15.1175C87.8091 15.1634 87.7663 15.2032 87.7179 15.2354C87.5892 15.3434 87.5048 15.4951 87.4808 15.6614C87.2361 15.6614 87.0295 15.8998 86.8063 16.0418C86.611 16.1406 86.4046 16.2156 86.1914 16.2649C85.5789 16.4602 85.0502 16.8621 84.5722 17.2856C84.306 17.5176 84.0372 17.7738 83.9205 18.106C83.8825 18.215 83.8622 18.3291 83.8292 18.4394C83.761 18.653 83.6619 18.8555 83.5351 19.0404C83.2919 19.4146 82.9926 19.749 82.6475 20.0319C82.4729 20.1725 82.3192 20.3373 82.1911 20.5214C81.9971 20.8016 81.6027 20.8853 81.3948 21.1553C81.32 21.2884 81.2353 21.4155 81.1412 21.5357C80.9802 21.6878 80.7368 21.7005 80.5313 21.7893C80.0508 21.9883 79.8289 22.55 79.4004 22.8467C79.3767 22.8667 79.3463 22.8767 79.3154 22.8746C79.2786 22.8746 79.2571 22.8302 79.2254 22.8087C79.1633 22.7669 79.0808 22.7985 79.0073 22.8176C78.9338 22.8366 78.8349 22.829 78.8158 22.7554C77.7825 22.1291 76.7669 21.4495 75.7323 20.8231L75.2606 20.5378L72.7374 19.0087C72.7076 18.9901 72.6731 18.9802 72.6379 18.9802C72.6027 18.9802 72.5682 18.9901 72.5383 19.0087L72.4597 19.0632C72.3329 18.9288 72.1922 18.8097 72.1085 18.7108C72.0743 18.6715 72.0401 18.6321 72.0046 18.5941C72.0276 18.5949 72.0506 18.5906 72.0718 18.5814C72.1001 18.566 72.1215 18.5404 72.1317 18.5098C72.1418 18.4792 72.1399 18.4459 72.1263 18.4166C72.0993 18.3588 72.0594 18.308 72.0096 18.2683C71.8993 18.1614 71.798 18.0456 71.7066 17.9221C71.6081 17.7674 71.4966 17.6215 71.3731 17.4859C71.3108 17.4181 71.234 17.3652 71.1483 17.3312C71.0627 17.2971 70.9705 17.2829 70.8786 17.2894C70.7766 17.309 70.6792 17.3481 70.5921 17.4048C70.2453 17.6063 69.9257 17.8513 69.6411 18.1339C69.6286 18.1428 69.6183 18.1546 69.611 18.1683C69.6038 18.1819 69.5997 18.197 69.5993 18.2125C69.5993 18.2378 69.6247 18.2568 69.6272 18.2809C69.6279 18.3044 69.6192 18.3272 69.6031 18.3443C69.4324 18.5562 69.2301 18.7405 69.0034 18.8908C68.6813 19.1317 68.3665 19.3819 68.0588 19.6414C67.8661 19.7783 67.7138 19.9644 67.6175 20.1803C67.5504 20.4307 67.578 20.697 67.6949 20.9284C67.9054 21.4241 68.2743 21.8349 68.6395 22.2318C68.6994 22.3135 68.7845 22.3732 68.8817 22.4017C68.9589 22.4123 69.0373 22.3933 69.101 22.3484C69.3254 22.2014 69.3622 21.8971 69.3787 21.6308C69.385 21.504 69.3926 21.3873 69.4002 21.2656C69.3997 21.2412 69.4045 21.217 69.4142 21.1946C69.4335 21.167 69.4604 21.1454 69.4915 21.1325L69.8402 20.9486C69.8301 20.9322 69.8187 20.9157 69.8072 20.8992C70.0702 20.8005 70.3566 20.782 70.6301 20.8459C70.8152 20.9005 70.9851 21.0108 71.1627 21.0792C71.1344 21.3159 71.1786 21.5555 71.2894 21.7665C71.9399 21.8337 72.5257 22.1227 73.1076 22.4144C73.5769 22.6469 74.0331 22.9046 74.4745 23.1865C74.8329 23.4198 75.1837 23.6637 75.5268 23.9181C76.0137 24.2782 76.4841 24.6599 76.9495 25.0453C77.2519 25.3122 77.5774 25.552 77.922 25.7617C78.8374 26.2752 80.0647 26.293 80.9054 25.6526C81.9654 24.845 83.3144 24.4253 84.4556 23.7267C84.7946 23.5371 85.1043 23.2992 85.3748 23.0204C85.3723 23.0533 85.3672 23.086 85.3596 23.1181C85.2911 23.4338 85.0185 23.662 84.9158 23.9815C84.8359 24.2351 84.8651 24.528 84.7104 24.7423C84.5925 24.9058 84.3719 25.0225 84.3655 25.2241C84.3655 25.2799 84.382 25.3357 84.382 25.3915C84.3756 25.4621 84.3549 25.5307 84.3212 25.5931C84.1944 25.8783 84.0524 26.1776 83.7924 26.3538C83.691 26.4235 83.5617 26.4869 83.5389 26.6074C83.5374 26.6423 83.5283 26.6765 83.5122 26.7076C83.4691 26.7672 83.374 26.7355 83.3056 26.7608C83.2105 26.7963 83.1953 26.9193 83.1572 27.0144C83.1224 27.0934 83.0637 27.1594 82.9892 27.2031C82.9148 27.2468 82.8285 27.266 82.7426 27.2578C81.8766 27.1526 81.0258 27.5444 80.1535 27.5216C79.853 27.5127 79.5538 27.4823 79.252 27.4797C78.3264 27.4721 77.4199 27.7333 76.5285 27.9869C76.4292 28.1624 76.3678 28.3568 76.3485 28.5575C76.0439 28.6357 75.7262 28.6478 75.4165 28.593C75.3395 28.5778 75.2616 28.5672 75.1832 28.5613C75.2056 28.5041 75.2126 28.442 75.2035 28.3812C74.8393 28.4967 74.4893 28.6528 74.16 28.8466C73.9432 28.9733 73.7137 29.1509 73.6934 29.4006C73.6904 29.4969 73.7042 29.593 73.734 29.6847L73.8519 30.1322C73.8664 30.2151 73.9027 30.2926 73.9572 30.3567C73.9965 30.3947 74.0484 30.4175 74.0839 30.4581C74.1184 30.506 74.1418 30.561 74.1524 30.6191L74.2513 31.0071C74.2882 31.1362 74.3145 31.2681 74.3299 31.4014C74.3413 31.5282 74.3299 31.6449 74.3388 31.7666C74.3521 31.9672 74.3814 32.1665 74.4263 32.3625L74.567 33.0649C74.5985 33.2613 74.6543 33.4529 74.7331 33.6355C74.7927 33.7623 74.8726 33.8713 74.9208 33.9981C74.9588 34.0958 74.9766 34.1997 75.0222 34.2923C75.1044 34.4427 75.2335 34.562 75.3899 34.6321C75.4444 34.6642 75.5056 34.6833 75.5687 34.6879C75.7487 34.6879 75.8781 34.5205 75.9617 34.3608C76.1286 34.0703 76.2189 33.7422 76.2242 33.4073C76.2242 33.2729 76.1976 33.1397 76.1862 33.0053C76.1557 32.625 76.2648 32.2547 76.2648 31.8756C76.2689 31.8248 76.2554 31.7741 76.2265 31.7321C76.1977 31.6901 76.1552 31.6593 76.1063 31.6449C76.1177 31.3228 76.1164 30.9817 76.2863 30.7066C76.3706 30.5786 76.4751 30.4651 76.5957 30.3706C76.6426 30.5202 76.6946 30.6686 76.7529 30.8131C77.7178 30.5316 78.7144 30.2603 79.7249 30.2349ZM100.34 10.7634C100.272 10.7888 100.202 10.8141 100.131 10.8369C99.5401 11.0335 98.863 11.2249 98.2519 11.0905C98.0666 11.0371 97.8923 10.9512 97.7371 10.8369L97.6927 10.809C98.5536 10.6582 99.4526 10.6949 100.34 10.7634Z" fill="url(#paint0_linear)"/>
<path d="M103.771 9.45875C103.985 9.36728 104.213 9.31447 104.444 9.3028C104.593 9.31409 104.739 9.34786 104.878 9.40296C105.129 9.47607 105.363 9.59659 105.568 9.75798C105.669 9.83988 105.75 9.94462 105.803 10.0636C105.856 10.1826 105.88 10.3125 105.873 10.4427C105.844 10.6962 105.657 10.9156 105.451 11.0766C105.172 11.3056 104.828 11.439 104.467 11.457C104.064 11.4633 103.684 11.282 103.294 11.1742C103.011 11.0942 102.719 11.0515 102.425 11.0475C102.277 11.0554 102.128 11.0461 101.982 11.0196C101.909 11.0058 101.84 10.9749 101.781 10.9295C101.722 10.8842 101.674 10.8255 101.642 10.7584C101.606 10.6342 101.606 10.5021 101.642 10.378C101.671 10.2208 101.666 9.848 101.806 9.75418C101.917 9.6781 102.313 9.73896 102.45 9.72755C102.899 9.68503 103.342 9.59493 103.771 9.45875Z" fill="#FBBEBE"/>
<path d="M94.7194 6.90643C95.1035 7.28206 95.4342 7.70869 95.7021 8.17436C96.1484 8.95286 96.4324 9.85816 97.1044 10.4566C97.283 10.6069 97.4724 10.7438 97.6712 10.8662C97.8265 10.9804 98.0008 11.0662 98.186 11.1197C98.7895 11.2554 99.4666 11.0665 100.055 10.8662C100.637 10.6571 101.202 10.4028 101.745 10.1054C101.749 10.3504 101.817 10.59 101.943 10.8002C102.084 10.9993 102.371 11.1159 102.577 10.9904C102.057 11.2349 101.566 11.5382 101.115 11.8944C100.941 12.0415 100.78 12.2038 100.595 12.337C99.9268 12.8175 99.0025 12.8657 98.385 13.4109C98.2935 13.4943 98.1782 13.5472 98.0552 13.5619C97.9323 13.5767 97.8077 13.5527 97.6991 13.4933C97.4848 13.3665 97.339 13.1484 97.1627 12.9722C96.8153 12.6248 96.3437 12.4219 96.0026 12.0682C95.8441 11.9046 95.7173 11.7106 95.555 11.5508C95.323 11.3226 95.0212 11.1705 94.8082 10.9169C94.6497 10.7305 94.5546 10.5035 94.4063 10.3045C94.2795 10.132 94.1299 9.98115 94.017 9.7973C93.7406 9.35733 93.7431 8.78296 93.9016 8.28974C94.0601 7.79652 94.424 7.33626 94.7194 6.90643Z" fill="#F86D70"/>
<path opacity="0.1" d="M94.7194 6.90643C95.1035 7.28206 95.4342 7.70869 95.7021 8.17436C96.1484 8.95286 96.4324 9.85816 97.1044 10.4566C97.283 10.6069 97.4724 10.7438 97.6712 10.8662C97.8265 10.9804 98.0008 11.0662 98.186 11.1197C98.7895 11.2554 99.4666 11.0665 100.055 10.8662C100.637 10.6571 101.202 10.4028 101.745 10.1054C101.749 10.3504 101.817 10.59 101.943 10.8002C102.084 10.9993 102.371 11.1159 102.577 10.9904C102.057 11.2349 101.566 11.5382 101.115 11.8944C100.941 12.0415 100.78 12.2038 100.595 12.337C99.9268 12.8175 99.0025 12.8657 98.385 13.4109C98.2935 13.4943 98.1782 13.5472 98.0552 13.5619C97.9323 13.5767 97.8077 13.5527 97.6991 13.4933C97.4848 13.3665 97.339 13.1484 97.1627 12.9722C96.8153 12.6248 96.3437 12.4219 96.0026 12.0682C95.8441 11.9046 95.7173 11.7106 95.555 11.5508C95.323 11.3226 95.0212 11.1705 94.8082 10.9169C94.6497 10.7305 94.5546 10.5035 94.4063 10.3045C94.2795 10.132 94.1299 9.98115 94.017 9.7973C93.7406 9.35733 93.7431 8.78296 93.9016 8.28974C94.0601 7.79652 94.424 7.33626 94.7194 6.90643Z" fill="black"/>
<path d="M72.1846 18.6157C72.0864 18.4868 71.9652 18.3771 71.8271 18.2923C71.6172 18.1993 71.3832 18.1753 71.1589 18.2239C70.5934 18.3101 70.0685 18.5687 69.5715 18.8578C69.1708 19.0873 68.7727 19.3422 68.4861 19.7035C68.3917 19.8125 68.3259 19.9432 68.2947 20.0839C68.2784 20.2 68.2883 20.3183 68.3238 20.4301C68.3493 20.5559 68.4034 20.6741 68.4818 20.7757C68.5603 20.8773 68.6611 20.9595 68.7765 21.0158C69.0415 21.1198 69.3369 21.0095 69.6032 20.9081C69.9607 20.7699 70.3538 20.6418 70.7215 20.7508C70.9941 20.832 71.2286 21.0387 71.5164 21.0463C71.855 21.0564 72.1288 20.7825 72.3444 20.5213C72.5308 20.2931 72.939 19.881 72.9124 19.5603C72.8858 19.2395 72.385 18.8452 72.1846 18.6157Z" fill="#FBBEBE"/>
<path d="M76.4576 28.4839C76.1473 28.5666 75.8227 28.58 75.5066 28.5232C75.3139 28.4877 75.0781 28.4421 74.9551 28.593C74.9155 28.6489 74.889 28.713 74.8777 28.7806C74.562 30.0726 74.8511 31.4433 75.3849 32.6668C75.3917 32.6875 75.4039 32.7059 75.4204 32.7201C75.4546 32.7454 75.5016 32.7277 75.5409 32.7112C75.67 32.6593 75.7909 32.5888 75.8997 32.502C76.1431 32.2814 76.1951 31.9225 76.2065 31.5941C76.2179 31.2657 76.2129 30.9183 76.3828 30.6369C76.5958 30.2882 77.0408 30.1183 77.2158 29.7493C77.3566 29.4488 77.283 29.0925 77.1588 28.7857C77.1169 28.6792 77.1004 28.4053 77.0015 28.3533C76.9026 28.3013 76.5704 28.4535 76.4576 28.4839Z" fill="#FBBEBE"/>
<path d="M72.1478 18.4863C72.176 18.4707 72.1971 18.445 72.207 18.4144C72.2169 18.3838 72.2148 18.3506 72.2011 18.3215C72.1739 18.2636 72.134 18.2124 72.0844 18.1719C71.9739 18.0652 71.8729 17.9489 71.7827 17.8245C71.6831 17.6706 71.5716 17.5248 71.4492 17.3883C71.387 17.3206 71.3104 17.2676 71.2251 17.2334C71.1397 17.1992 71.0478 17.1845 70.956 17.1905C70.8541 17.2088 70.757 17.2476 70.6707 17.3046C70.3258 17.5045 70.0083 17.7483 69.7261 18.0299C69.7045 18.0514 69.6805 18.0781 69.6855 18.1085C69.6906 18.1389 69.7109 18.1516 69.7134 18.177C69.7142 18.1999 69.7061 18.2222 69.6906 18.2391C69.5212 18.4501 69.3202 18.6336 69.0947 18.783C68.7752 19.0231 68.4624 19.2725 68.1564 19.5311C67.965 19.6673 67.8139 19.8526 67.719 20.0674C67.6541 20.3178 67.6825 20.5832 67.7989 20.8143C68.0106 21.3113 68.3796 21.7221 68.7435 22.1215C68.8044 22.2029 68.8896 22.2629 68.9869 22.2927C69.0637 22.3031 69.1416 22.2841 69.205 22.2394C69.4269 22.0936 69.4586 21.7893 69.4776 21.5243L69.4979 21.1579C69.4974 21.1339 69.5021 21.1101 69.5118 21.0881C69.5309 21.0602 69.5578 21.0386 69.5892 21.026L69.934 20.8434C69.8286 20.6719 69.6785 20.5322 69.4998 20.4393C69.3212 20.3464 69.1207 20.3038 68.9197 20.316C68.8278 20.3378 68.7311 20.3247 68.6484 20.2792C68.6084 20.2376 68.5861 20.1822 68.5861 20.1245C68.5861 20.0668 68.6084 20.0114 68.6484 19.9698C68.7324 19.8899 68.8354 19.8328 68.9476 19.8037C69.8567 19.4703 70.6783 18.9352 71.5608 18.5358C71.6574 18.4869 71.7644 18.4621 71.8727 18.4635C71.9614 18.4699 72.0654 18.5218 72.1478 18.4863Z" fill="#F86D70"/>
<path d="M75.7298 31.764C75.6892 31.8401 75.6752 31.9288 75.6308 32.0036C75.5865 32.0784 75.4901 32.1304 75.4153 32.0924C75.3759 32.0648 75.3466 32.0252 75.3316 31.9795C74.9471 31.1002 74.8388 30.1248 75.021 29.1825C75.0462 29.0284 75.0919 28.8783 75.1566 28.7362C75.2238 28.5993 75.3215 28.4598 75.2936 28.3102C74.9315 28.4244 74.5836 28.5792 74.2564 28.7717C74.0409 28.8985 73.8139 29.0747 73.7936 29.3233C73.7917 29.4196 73.8058 29.5156 73.8355 29.6073L73.9547 30.0548C73.969 30.138 74.0059 30.2156 74.0612 30.2793C74.0992 30.3173 74.1512 30.3414 74.188 30.382C74.2228 30.4292 74.2462 30.4839 74.2564 30.5417L74.3566 30.9297C74.3939 31.0592 74.4206 31.1915 74.4365 31.3253C74.4479 31.4521 74.4365 31.5687 74.4466 31.6905C74.461 31.8907 74.4906 32.0895 74.5354 32.2851L74.6786 32.9875C74.711 33.1838 74.7672 33.3755 74.846 33.5581C74.9056 33.6849 74.9855 33.7939 75.0349 33.922C75.0717 34.0196 75.0907 34.1236 75.1364 34.2162C75.2187 34.3662 75.3472 34.4858 75.5028 34.5572C75.5575 34.5892 75.6185 34.6087 75.6816 34.6143C75.8603 34.6206 75.9884 34.4469 76.0721 34.2872C76.2356 33.9967 76.3228 33.6695 76.3257 33.3362C76.3257 33.2018 76.2978 33.0687 76.2864 32.9343C76.2547 32.5539 76.3612 32.185 76.3599 31.8058C76.3624 31.4508 75.8603 31.518 75.7298 31.764Z" fill="#F86D70"/>
<path d="M94.3327 9.673C93.9377 9.49122 93.5904 9.2199 93.3184 8.88055C93.1785 8.70162 93.0514 8.51308 92.938 8.31632C92.4565 7.5036 92.043 6.65246 91.7018 5.77159C92.2419 5.8819 92.8087 5.98207 93.3399 5.82992C93.617 5.74547 93.8753 5.60859 94.1007 5.42672C94.3896 5.18921 94.6576 4.92749 94.902 4.64441C95.0867 4.99844 95.2987 5.33758 95.536 5.65875C95.6717 5.84133 96.1306 6.21283 96.0964 6.46135C96.0622 6.70986 95.555 6.83412 95.3496 6.95203L95.328 6.96598C95.0251 7.15745 94.7607 7.40386 94.5483 7.6925C94.1501 8.258 94.0119 9.04665 94.3327 9.673Z" fill="#FBBEBE"/>
<path opacity="0.1" d="M95.3598 6.94695C95.055 6.7973 94.7858 6.58406 94.5703 6.3216C94.3549 6.05914 94.1982 5.75356 94.1108 5.42544C94.3997 5.18792 94.6678 4.92621 94.9122 4.64313C95.0969 4.99716 95.3089 5.33629 95.5462 5.65747C95.6818 5.84005 96.1408 6.21155 96.1066 6.46006C96.0724 6.70858 95.5652 6.82903 95.3598 6.94695Z" fill="black"/>
<path d="M96.5009 7.13338C97.8125 7.13338 98.8758 6.07013 98.8758 4.75855C98.8758 3.44697 97.8125 2.38373 96.5009 2.38373C95.1894 2.38373 94.1261 3.44697 94.1261 4.75855C94.1261 6.07013 95.1894 7.13338 96.5009 7.13338Z" fill="#FBBEBE"/>
<path d="M91.3062 19.5514C91.1419 19.65 90.9548 19.7042 90.7632 19.7089C90.5717 19.7136 90.3822 19.6685 90.2132 19.578C90.0374 19.4696 89.8784 19.3359 89.7416 19.1812C88.9618 18.3811 88.2201 17.5329 87.6989 16.5401C87.5778 16.3306 87.4993 16.0992 87.4682 15.8592C87.4535 15.7393 87.4681 15.6176 87.5107 15.5045C87.5533 15.3915 87.6227 15.2904 87.7129 15.21C87.7614 15.178 87.8042 15.1381 87.8397 15.0921C87.8703 15.0245 87.8846 14.9507 87.8815 14.8766C87.8956 14.7501 87.9452 14.6302 88.0247 14.5308C88.1041 14.4314 88.2101 14.3565 88.3304 14.3149C88.2036 14.2287 88.2543 14.0372 88.3367 13.9142C88.4191 13.7912 88.5345 13.6606 88.5142 13.5186C88.4818 13.4239 88.4428 13.3316 88.3976 13.2422C88.3519 13.0875 88.4343 12.9278 88.4787 12.7731C88.5713 12.4561 88.5155 12.1188 88.4927 11.7892C88.4255 10.8129 88.6626 9.84418 88.8971 8.8945C89.0009 8.41226 89.1503 7.94099 89.3434 7.4871C89.403 7.36031 89.4702 7.23352 89.5387 7.12067C89.7782 6.73265 90.0447 6.36193 90.3362 6.01124C90.4727 5.80493 90.66 5.63725 90.8802 5.52435C90.9008 5.51543 90.922 5.50781 90.9436 5.50153C91.1016 5.46072 91.2656 5.44827 91.4279 5.46476C91.8565 5.49139 92.3066 5.59155 92.6121 5.89332C92.9177 6.19509 93.0166 6.61857 93.1548 7.02685C93.1988 7.16349 93.2522 7.29694 93.3146 7.42624C93.5162 7.82691 93.8446 8.14643 94.1679 8.45707L94.5191 8.7956C94.6953 8.9655 95.0009 8.9224 95.167 9.10117C95.2346 9.18519 95.285 9.2817 95.3154 9.38519C95.5029 9.84252 95.6122 10.3281 95.6387 10.8217C95.6399 10.9315 95.6336 11.0412 95.6197 11.1501C95.5767 11.5323 95.4076 11.8892 95.1391 12.1645C94.8348 12.4574 94.4113 12.6019 94.1083 12.8961C93.8547 13.1395 93.7076 13.4654 93.5631 13.7836C93.2841 14.3973 93.0048 15.0118 92.725 15.6272C92.5224 16.0483 92.3483 16.4824 92.2039 16.9268C91.9401 17.8131 92.0898 19.0633 91.3062 19.5514Z" fill="#F86D70"/>
<path d="M83.9839 29.9991C83.3575 30.0244 82.7299 30.0168 82.1061 30.0764C81.7422 30.1119 81.3796 30.1715 81.0144 30.1867C80.6163 30.2045 80.2169 30.1728 79.8175 30.1804C78.812 30.2019 77.8205 30.4695 76.8531 30.7459C76.58 30.0789 76.4375 29.3657 76.4334 28.6449C76.4309 28.5972 76.4309 28.5494 76.4334 28.5017C76.4511 28.2976 76.512 28.0996 76.6122 27.9209C77.4997 27.6674 78.4 27.4138 79.3217 27.4265C79.6222 27.4265 79.9202 27.462 80.2194 27.4708C81.088 27.4975 81.9324 27.1082 82.7946 27.2172C82.8801 27.2257 82.966 27.2068 83.0401 27.1633C83.1141 27.1198 83.1725 27.0539 83.2067 26.9751C83.2434 26.8812 83.2586 26.7583 83.3537 26.7215C83.4222 26.6961 83.516 26.7278 83.5591 26.6695C83.5745 26.6382 83.5835 26.6042 83.5858 26.5693C83.6111 26.4425 83.7392 26.3855 83.8394 26.3158C84.0929 26.1408 84.2362 25.8416 84.363 25.555C84.3963 25.493 84.4166 25.4248 84.4226 25.3547C84.4226 25.2989 84.4049 25.2431 84.4061 25.186C84.4061 24.9857 84.6305 24.8703 84.7472 24.7068C84.9006 24.4912 84.874 24.1996 84.9488 23.946C85.0502 23.6265 85.3203 23.3995 85.3875 23.0851C85.3951 23.053 85.4002 23.0203 85.4027 22.9875C85.1338 23.2648 84.8258 23.5015 84.4885 23.6899C83.3626 24.3834 82.0161 24.798 80.965 25.6006C80.1307 26.2346 78.9084 26.2156 77.9955 25.6995C77.6513 25.4889 77.3263 25.2483 77.0243 24.9806C76.5602 24.6003 76.0911 24.211 75.6055 23.8484C75.2673 23.5948 74.917 23.3501 74.5544 23.1142C74.1153 22.8238 73.6607 22.5576 73.1926 22.3167C72.6119 22.0226 72.0274 21.7309 71.3807 21.6612C71.2976 21.4915 71.2515 21.3061 71.2454 21.1173C71.2393 20.9284 71.2733 20.7404 71.3452 20.5657C71.4929 20.2182 71.6931 19.8953 71.9386 19.6084C72.1224 19.3389 72.3525 19.1041 72.6182 18.9149C72.6478 18.8962 72.6821 18.8862 72.7171 18.8862C72.7521 18.8862 72.7864 18.8962 72.816 18.9149L75.3291 20.4579L75.7995 20.7458C76.8303 21.3797 77.8446 22.0581 78.8754 22.6882C78.8945 22.7605 78.9946 22.7694 79.0669 22.7503C79.1392 22.7313 79.2216 22.7009 79.2837 22.7427C79.3141 22.763 79.3357 22.8011 79.3737 22.8087C79.4041 22.8097 79.4338 22.7998 79.4574 22.7808C79.8834 22.4879 80.1015 21.9249 80.5795 21.7284C80.7837 21.6447 81.0258 21.632 81.1856 21.4748C81.2801 21.3549 81.3649 21.2278 81.4392 21.0944C81.6458 20.8244 82.0376 20.7432 82.2291 20.4605C82.3559 20.2774 82.5083 20.1134 82.6817 19.9736C83.0271 19.6924 83.3265 19.3592 83.5693 18.9859C83.6946 18.8016 83.7925 18.6 83.8596 18.3874C83.8926 18.2771 83.9129 18.163 83.9497 18.054C84.065 17.7218 84.33 17.4669 84.595 17.2361C85.0756 16.8152 85.5942 16.4158 86.2028 16.2218C86.4151 16.1727 86.6207 16.0982 86.8152 15.9999C87.0599 15.8503 87.2843 15.5726 87.5645 15.6373C87.6708 15.6702 87.7666 15.7306 87.8422 15.8123C88.1859 16.1465 88.5018 16.5082 88.7868 16.8938C89.239 17.4694 89.6908 18.0455 90.1422 18.622C90.2846 18.8293 90.4648 19.0078 90.6735 19.1482C90.9761 19.3039 91.3238 19.3488 91.6561 19.275C91.6117 19.7454 91.2377 20.1334 91.083 20.5797C91.0082 20.7965 90.979 21.0272 90.9232 21.2491C90.8447 21.5275 90.7442 21.7993 90.6227 22.0619C90.3184 22.7706 90.0116 23.4832 89.5754 24.1197C89.3497 24.4506 89.0898 24.7537 88.835 25.0643C87.8295 26.2777 87.0599 27.7409 85.9187 28.8326C85.6423 29.1001 85.4674 29.4665 85.158 29.696C84.822 29.9446 84.3884 29.9826 83.9839 29.9991Z" fill="#434175"/>
<path opacity="0.1" d="M88.7615 13.9117C88.6497 13.9171 88.5409 13.9498 88.4445 14.0068C88.6766 13.9256 88.9593 14.1424 89.1736 14.0397C89.2738 13.9916 89.2585 13.9776 89.1736 13.9485C89.0455 13.9053 88.8908 13.9446 88.7615 13.9117Z" fill="black"/>
<path d="M128.79 55.8113L119.471 59.1207L120.065 60.7935L129.384 57.4841L128.79 55.8113Z" fill="#D0D2D5"/>
<path d="M122.588 62.5894L131.072 59.577C131.294 59.4982 131.538 59.5108 131.75 59.6119C131.963 59.7131 132.126 59.8945 132.205 60.1164C132.284 60.3382 132.271 60.5822 132.17 60.7948C132.069 61.0073 131.888 61.171 131.666 61.2498L123.182 64.2622L122.588 62.5894Z" fill="#D0D2D5"/>
<path d="M114.506 57.3861L116.573 56.6521C118.411 55.9994 120.433 56.1036 122.194 56.9418C123.956 57.7799 125.312 59.2833 125.964 61.1213L126.698 63.1883C126.954 63.907 126.913 64.6977 126.585 65.3863C126.257 66.075 125.669 66.6053 124.951 66.8605L118.664 69.0931C117.945 69.3483 117.154 69.3075 116.466 68.9798C115.777 68.652 115.247 68.0642 114.991 67.3455L112.759 61.0583C112.504 60.3396 112.544 59.5489 112.872 58.8602C113.2 58.1716 113.788 57.6413 114.506 57.3861Z" fill="#3F3D56"/>
<path opacity="0.1" d="M88.6473 15.1492C88.5614 15.1191 88.4688 15.1133 88.3798 15.1327C88.247 15.1468 88.1235 15.2075 88.0311 15.3039C88.0556 15.3149 88.0822 15.3206 88.1091 15.3206C88.136 15.3206 88.1626 15.3149 88.1871 15.3039C88.2699 15.2829 88.3553 15.2735 88.4407 15.276C88.5142 15.276 88.7335 15.3571 88.7906 15.3216C88.8743 15.2671 88.7044 15.1708 88.6473 15.1492Z" fill="black"/>
<path opacity="0.1" d="M95.6197 11.1501C95.4288 11.0856 95.2465 10.9979 95.077 10.889C94.632 10.6062 94.2579 10.222 93.818 9.93294C93.5958 9.79335 93.3659 9.66636 93.1295 9.55256L91.6448 8.7918C91.5316 8.72741 91.4106 8.67797 91.2847 8.64472C91.0425 8.59147 90.7699 8.75377 90.5239 8.71953C90.3964 8.6961 90.2754 8.6459 90.1687 8.57225C90.0621 8.49859 89.9722 8.40316 89.9052 8.29224C89.7711 8.07064 89.6767 7.82736 89.6262 7.57333C89.5884 7.42353 89.56 7.2715 89.5413 7.11814C89.5193 6.95888 89.5163 6.79757 89.5324 6.6376C89.5578 6.3199 89.7083 6.02528 89.9508 5.81852C90.1269 5.6935 90.3274 5.60708 90.5391 5.56493C90.6727 5.53116 90.8088 5.50868 90.9461 5.49773C91.0242 5.4914 91.1026 5.4914 91.1807 5.49773C91.7411 5.54211 92.2153 5.92249 92.5894 6.3409C92.7859 6.56152 92.9697 6.79863 93.1574 7.02305C93.2014 7.15969 93.2548 7.29314 93.3171 7.42245C93.5187 7.82311 93.8471 8.14263 94.1705 8.45327L94.5217 8.7918C94.6979 8.96171 95.0035 8.9186 95.1696 9.09737C95.2372 9.18139 95.2876 9.2779 95.3179 9.38139C95.5051 9.84006 95.6135 10.327 95.6387 10.8218C95.64 10.9315 95.6336 11.0413 95.6197 11.1501Z" fill="black"/>
<path opacity="0.1" d="M84.0727 27.3771L76.4322 28.5017C76.4499 28.2976 76.5108 28.0997 76.611 27.921C77.4985 27.6674 78.3987 27.4138 79.3205 27.4265C79.621 27.4265 79.919 27.462 80.2182 27.4709C81.0867 27.4975 81.9312 27.1083 82.7934 27.2173C82.8788 27.2257 82.9648 27.2069 83.0389 27.1633C83.1129 27.1198 83.1712 27.0539 83.2054 26.9751C83.2422 26.8813 83.2574 26.7583 83.3525 26.7215C83.421 26.6962 83.5148 26.7279 83.5579 26.6696C83.5733 26.6382 83.5823 26.6042 83.5846 26.5694C83.6099 26.4426 83.738 26.3855 83.8381 26.3158C84.0917 26.1408 84.235 25.8416 84.3618 25.555C84.3951 25.493 84.4154 25.4249 84.4214 25.3547C84.4214 25.2989 84.4036 25.2431 84.4049 25.1861C84.4049 24.9857 84.6293 24.8704 84.746 24.7068C84.8994 24.4913 84.8728 24.1996 84.9476 23.9461C85.049 23.6265 85.3191 23.3996 85.3863 23.0851L85.4192 23.042L86.7201 22.5349L84.0727 27.3771Z" fill="black"/>
<path opacity="0.1" d="M54.776 88.9666C84.5369 88.9666 108.663 87.0933 108.663 84.7824C108.663 82.4716 84.5369 80.5983 54.776 80.5983C25.0151 80.5983 0.889191 82.4716 0.889191 84.7824C0.889191 87.0933 25.0151 88.9666 54.776 88.9666Z" fill="#D12421"/>
<path opacity="0.1" d="M102.415 100C121.672 100 137.282 97.9694 137.282 95.4646C137.282 92.9598 121.672 90.9293 102.415 90.9293C83.1575 90.9293 67.5466 92.9598 67.5466 95.4646C67.5466 97.9694 83.1575 100 102.415 100Z" fill="#D12421"/>
<path d="M61.1473 81.3944L61.1828 79.599C62.8734 79.5027 64.564 79.4384 66.2545 79.4063C67.2359 79.3886 68.23 79.3822 69.1796 79.6282C69.8377 79.7994 70.4602 80.0885 71.1094 80.2913C72.4027 80.6945 73.7721 80.7478 75.13 80.7845C76.4474 80.8213 77.8231 80.834 79.006 80.252C81.0537 79.2377 81.9147 76.7462 82.0148 74.4652C82.115 72.1842 81.6611 69.8855 81.9768 67.6184" stroke="#3F3D56" stroke-width="12" stroke-miterlimit="10"/>
<path d="M65.7829 84.908L43.1897 84.6189L43.2556 84.0394L44.3486 74.4805H64.1891L65.6497 84.0394L65.7613 84.7634L65.7829 84.908Z" fill="#D0D2D5"/>
<path opacity="0.1" d="M65.7613 84.7633H54.4856L43.1897 84.6187L43.2556 84.0393H65.6497L65.7613 84.7633Z" fill="black"/>
<path d="M69.404 84.184H39.4239V84.9079H69.404V84.184Z" fill="#D0D2D5"/>
<path d="M98.0072 17.0688C98.0094 16.8206 97.9625 16.5744 97.8693 16.3443C97.7761 16.1142 97.6383 15.9048 97.464 15.7281C97.2896 15.5514 97.0821 15.4109 96.8533 15.3146C96.6245 15.2183 96.3789 15.1681 96.1307 15.1669H12.407C12.1589 15.1683 11.9134 15.2185 11.6846 15.3149C11.4559 15.4113 11.2484 15.5518 11.0741 15.7285C10.8998 15.9052 10.7621 16.1145 10.6688 16.3445C10.5755 16.5745 10.5285 16.8206 10.5305 17.0688V67.8188H98.0072V17.0688Z" fill="#3F3D56"/>
<path d="M10.5305 67.3116V73.2569C10.5305 73.7546 10.7282 74.2319 11.0801 74.5839C11.4321 74.9358 11.9094 75.1335 12.407 75.1335H96.1307C96.6284 75.1335 97.1057 74.9358 97.4576 74.5839C97.8095 74.2319 98.0072 73.7546 98.0072 73.2569V67.3116H10.5305Z" fill="#D0D2D5"/>
<path d="M94.8209 18.3596H14.1517V63.9808H94.8209V18.3596Z" fill="#2F2E41"/>
<path d="M54.7037 72.8778C54.9999 72.8778 55.2922 72.8106 55.5586 72.6813C55.8251 72.5519 56.0586 72.3638 56.2417 72.131C56.2976 72.0598 56.3485 71.9848 56.3939 71.9066L55.3212 71.7303L56.4814 71.7392C56.5926 71.497 56.6533 71.2347 56.6596 70.9683C56.6659 70.7019 56.6178 70.437 56.5182 70.1898L54.9624 70.9975L56.3977 69.9426C56.2653 69.7064 56.0853 69.5003 55.869 69.3374C55.6528 69.1744 55.4051 69.0581 55.1416 68.9959C54.8781 68.9337 54.6046 68.9269 54.3383 68.9759C54.072 69.025 53.8188 69.1287 53.5948 69.2807C53.3707 69.4327 53.1807 69.6296 53.0367 69.8589C52.8927 70.0881 52.7978 70.3448 52.7582 70.6126C52.7186 70.8805 52.7351 71.1536 52.8065 71.4148C52.878 71.6759 53.0029 71.9194 53.1734 72.1297C53.3554 72.3619 53.5876 72.5499 53.8527 72.6794C54.1177 72.809 54.4087 72.8768 54.7037 72.8778Z" fill="#D12421"/>
<path opacity="0.1" d="M56.6589 75.1321L65.6726 84.1839L64.2893 75.1321H56.6589Z" fill="black"/>
<path d="M95.3725 17.988L100.213 11.5736C100.503 11.1932 100.8 10.7963 101.197 10.5225C102.338 9.73382 104.011 10.2004 104.966 11.2109C105.92 12.2215 106.321 13.6276 106.614 14.9868C107.296 18.1153 107.601 21.3143 107.522 24.5153C107.481 26.2004 107.33 27.9032 106.794 29.502C105.98 31.9339 104.33 33.9816 103.084 36.222C101.077 39.8318 100.236 44.6461 102.777 47.9034C103.605 48.9647 104.732 49.7762 105.497 50.8843C106.36 52.1358 106.696 53.6662 107.018 55.1522C107.499 57.3964 107.981 59.6546 108.069 61.9482C108.356 69.3643 104.128 76.7741 97.5977 80.3015C93.0648 82.7511 87.5811 83.4611 83.6391 86.7831C82.2444 87.9534 81.0424 89.674 81.3847 91.4567C81.6637 92.9034 82.9341 94.0027 84.3288 94.4807C85.7236 94.9587 87.2362 94.9194 88.707 94.8357C92.2396 94.6337 95.7551 94.1996 99.2308 93.5361C102.176 92.9731 105.116 92.4875 107.684 90.9381C107.941 90.802 108.161 90.6048 108.324 90.3637C108.49 90.0861 108.518 89.7501 108.541 89.4267C108.611 88.4745 108.677 87.4868 108.341 86.5929C107.949 85.5481 107.055 84.757 106.627 83.7274C106.198 82.6979 106.275 81.5123 106.553 80.4308C106.895 79.0944 107.518 77.8493 108.144 76.6207C108.754 75.4238 109.373 74.2306 110.091 73.0959C112.112 69.9058 114.873 67.2634 117.606 64.6578" stroke="#3F3D56" stroke-width="2" stroke-miterlimit="10"/>
<path d="M103.383 8.79304C103.596 8.70037 103.824 8.64752 104.056 8.63708C104.205 8.64863 104.351 8.68196 104.49 8.73598C104.741 8.80953 104.975 8.93048 105.18 9.09227C105.281 9.17403 105.362 9.27875 105.415 9.39779C105.468 9.51683 105.492 9.64678 105.485 9.77695C105.456 10.0305 105.269 10.2486 105.063 10.4109C104.785 10.6403 104.44 10.7737 104.079 10.7913C103.676 10.7913 103.296 10.6163 102.906 10.5073C102.623 10.4272 102.331 10.3846 102.037 10.3805C101.889 10.3881 101.74 10.3783 101.594 10.3513C101.521 10.3377 101.452 10.3071 101.393 10.262C101.334 10.2168 101.287 10.1584 101.254 10.0914C101.219 9.96915 101.219 9.8396 101.254 9.71736C101.285 9.56013 101.28 9.1861 101.419 9.09227C101.531 9.01746 101.926 9.07832 102.063 9.06691C102.512 9.02144 102.954 8.92966 103.383 8.79304Z" fill="#FBBEBE"/>
<path d="M101.625 8.91985C101.1 9.16076 100.483 8.96043 99.9129 8.95916C99.6326 8.95916 99.3537 9.00607 99.0748 9.02255C98.7656 9.03355 98.4561 9.02551 98.1479 8.99846L97.2198 8.93507C96.673 8.91692 96.1295 8.84213 95.5981 8.71191C95.1442 8.17685 94.4075 7.94101 93.8598 7.50485C93.4211 7.1549 93.1067 6.67816 92.7326 6.25848C92.3586 5.83879 91.8844 5.45968 91.3252 5.41531C91.1087 5.4045 90.8918 5.4276 90.6824 5.48378C90.4707 5.52508 90.2705 5.61158 90.0953 5.73736C89.975 5.83955 89.8761 5.96453 89.8043 6.10511C89.7325 6.24568 89.6892 6.39907 89.6769 6.55644C89.6538 6.87135 89.6851 7.18789 89.7695 7.49217C89.82 7.7466 89.9143 7.9903 90.0484 8.21235C90.1163 8.32284 90.2065 8.41792 90.3133 8.4915C90.4201 8.56508 90.541 8.61554 90.6684 8.63964C90.9131 8.67261 91.1845 8.51285 91.4292 8.56357C91.5551 8.59681 91.6761 8.64625 91.7893 8.71064L93.2753 9.4714C93.5112 9.58548 93.7406 9.71246 93.9625 9.85178C94.4037 10.1409 94.7765 10.525 95.2215 10.8078C95.6666 11.0905 96.2283 11.268 96.7228 11.0829C98.2443 10.5162 99.9585 10.7799 101.573 10.9206C101.562 10.8902 101.628 10.8623 101.647 10.837C101.847 10.563 101.937 10.2244 101.901 9.88728C101.862 9.55382 101.735 9.23937 101.625 8.91985Z" fill="#F86D70"/>
<path d="M99.0723 4.64823C99.2302 4.57559 99.3627 4.45721 99.4526 4.30843C99.5972 4.0409 99.5084 3.7125 99.4095 3.42088C99.3106 3.12926 99.2105 2.8744 99.1002 2.6056C99.0212 2.38005 98.9018 2.17079 98.7477 1.98813C98.5233 1.74849 98.2025 1.62803 97.9349 1.43911C97.618 1.21469 97.3808 0.896442 97.1133 0.61623C96.8458 0.336019 96.5187 0.0760942 96.1332 0.029181C95.8363 0.0142649 95.5401 0.0694275 95.2685 0.190208C92.9532 1.04099 91.0602 2.72606 88.9872 4.06245C88.1808 4.58357 87.2755 5.06918 86.3245 4.99945L87.1753 6.35106C87.3921 6.6972 87.6356 7.06363 88.0159 7.21198C88.3519 7.33877 88.7272 7.27537 89.0797 7.21198C89.3603 7.17134 89.6334 7.0893 89.8899 6.96854C90.3971 6.6934 90.723 6.12156 91.2682 5.9225C91.6752 5.77415 92.1291 5.86544 92.5361 6.00745C92.9431 6.14946 93.3425 6.34218 93.7711 6.40051C94.5318 6.50321 95.2926 6.1596 95.9265 5.71583C96.3069 5.4521 96.6531 5.14906 97.0677 4.95507C97.3796 4.79322 97.7336 4.73083 98.082 4.77629C98.4662 4.82955 98.6919 4.8473 99.0723 4.64823Z" fill="#2F2E41"/>
<path opacity="0.1" d="M99.4526 4.30842C99.5946 4.04596 99.511 3.72391 99.4146 3.44116C99.4458 3.60316 99.4236 3.77092 99.3512 3.91917C99.2604 4.06722 99.1281 4.18536 98.9708 4.25897C98.5904 4.45931 98.3597 4.44156 97.9692 4.37689C97.6207 4.33224 97.267 4.39459 96.9548 4.55567C96.5427 4.75473 96.1941 5.06284 95.8137 5.31642C95.1797 5.7602 94.419 6.10254 93.6582 5.99984C93.2284 5.94278 92.8315 5.74625 92.4233 5.60678C92.015 5.46731 91.5598 5.37348 91.1553 5.52183C90.6114 5.72089 90.2893 6.29399 89.7784 6.56787C89.5218 6.68846 89.2487 6.77049 88.9682 6.81131C88.6144 6.87978 88.2391 6.94698 87.9044 6.81131C87.524 6.66423 87.2806 6.29653 87.0625 5.95039L86.4602 4.9931C86.412 4.9931 86.3626 4.9931 86.3144 4.9931L87.1652 6.34471C87.382 6.69086 87.6254 7.05729 88.0058 7.20563C88.3418 7.33243 88.7171 7.26903 89.0696 7.20563C89.3502 7.165 89.6233 7.08296 89.8798 6.96219C90.387 6.68705 90.7128 6.11522 91.258 5.91615C91.665 5.76781 92.1189 5.8591 92.526 6.0011C92.933 6.14311 93.3324 6.33584 93.7609 6.39416C94.5217 6.49686 95.2824 6.15326 95.9164 5.70948C96.2968 5.44575 96.6429 5.14272 97.0575 4.94873C97.3694 4.78688 97.7234 4.72448 98.0719 4.76995C98.4624 4.83334 98.6931 4.8511 99.0722 4.65203C99.2307 4.57837 99.3633 4.45862 99.4526 4.30842Z" fill="black"/>
<path d="M106.008 91.0383C106.083 90.9216 106.176 90.818 106.284 90.7315C106.838 90.2091 107.096 89.4407 107.233 88.6876C107.37 87.9344 107.409 87.1661 107.628 86.4294C107.747 86.0514 107.896 85.6837 108.075 85.3301C108.201 85.0588 108.36 84.5262 108.593 84.3373C108.638 84.2977 108.694 84.271 108.753 84.26C108.862 84.0267 109.018 83.8185 109.212 83.6488C109.574 83.3204 110.017 83.0593 110.259 82.6345C110.325 82.487 110.407 82.3472 110.504 82.2174C110.667 82.036 110.926 81.9638 111.077 81.7723C111.273 81.5263 111.229 81.1751 111.204 80.8607C111.178 80.5462 111.204 80.1722 111.475 80.0086C111.637 79.9085 111.847 79.9173 112.015 79.8298C112.269 79.7031 112.369 79.3823 112.364 79.097C112.359 78.8117 112.27 78.534 112.247 78.25C112.176 77.3422 112.775 76.4394 112.543 75.5595C112.455 75.226 112.256 74.9357 112.108 74.6263C112.057 74.5225 112.015 74.4148 111.981 74.3042C111.586 74.4612 111.171 74.5615 110.747 74.6022C111.446 73.035 111.268 71.213 111.594 69.5305L111.552 69.4722C111.223 69.0389 111.036 68.5139 111.017 67.9697C111.017 67.3357 111.31 66.7563 111.442 66.1439C111.554 65.6215 111.55 65.0775 111.696 64.5653C111.798 64.2471 111.933 63.9404 112.098 63.6499C112.256 63.3557 112.422 63.0679 112.596 62.7839C112.758 62.2463 112.921 61.7087 113.084 61.1711C113.312 60.4103 113.547 59.6496 113.991 58.9978C114.153 58.7582 114.202 58.2751 114.452 58.1306C114.655 58.025 114.885 57.9847 115.111 58.0152C115.464 57.8174 115.773 57.5321 115.818 57.1416C115.822 57.0563 115.814 56.9708 115.792 56.888H115.749C115.19 56.836 114.909 56.3441 114.618 55.9142C114.148 55.2156 114.328 54.2723 114.618 53.4798C114.69 53.2293 114.821 52.9994 114.999 52.8091C115.406 52.4287 116.05 52.5124 116.575 52.3285C116.745 52.2541 116.919 52.1885 117.096 52.132C117.444 52.0496 117.81 52.165 118.129 52.3247C118.449 52.4845 118.747 52.695 119.081 52.8218C119.416 52.9486 119.829 53.0487 119.912 53.3923C119.935 53.5081 119.925 53.6282 119.883 53.7385C119.806 53.9583 119.671 54.1533 119.492 54.3027C119.635 54.5967 119.712 54.918 119.718 55.2446C119.724 55.5712 119.66 55.8953 119.529 56.1946C119.398 56.4939 119.204 56.7611 118.959 56.978C118.715 57.1949 118.427 57.3563 118.114 57.451C118.018 57.6044 117.928 57.7629 117.845 57.9239C117.698 58.2079 117.574 58.5427 117.623 58.847C117.715 58.9437 117.8 59.0471 117.877 59.1563C118.241 59.6635 118.447 60.2594 118.638 60.8528C118.894 61.6102 119.099 62.3842 119.251 63.1693C119.561 63.8261 119.938 64.455 120.163 65.146C120.565 65.1469 120.965 65.0936 121.352 64.9875L122.422 64.7441C122.794 64.6604 123.183 64.5691 123.475 64.3231C123.629 64.1963 123.75 64.0277 123.907 63.9009C124.064 63.7741 124.38 63.6283 124.552 63.7323C124.584 63.7514 124.613 63.774 124.64 63.7995C124.796 63.4825 125.794 64.7796 125.112 64.9076L125.156 65.0344C125.246 65.2969 125.437 65.6164 125.389 65.8903L120.627 67.5246C120.322 67.6484 119.998 67.72 119.668 67.7364C119.54 67.7353 119.412 67.7183 119.288 67.6857V67.9291V67.938C119.275 69.6104 119.542 71.2726 119.591 72.9437C119.6 73.248 119.591 73.5777 119.398 73.8161C119.183 74.0773 118.8 74.128 118.466 74.0697C118.387 74.0569 118.308 74.0395 118.231 74.0177C118.118 74.4379 118.037 74.866 117.987 75.2983L117.671 77.5501C117.63 77.7819 117.614 78.0173 117.622 78.2526C117.659 78.7825 117.939 79.2593 118.142 79.75C118.345 80.2407 118.465 80.8277 118.198 81.2854C118.115 81.4274 118 81.5492 117.925 81.6962C117.83 81.9235 117.787 82.1691 117.798 82.4152C117.779 83.0998 117.76 83.7837 117.742 84.4667C117.798 84.4586 117.854 84.4703 117.902 84.4996C118.166 84.7038 118.137 85.6826 118.156 85.9856C118.176 86.4928 118.156 87.0101 118.184 87.5224C118.218 88.2149 118.332 88.9011 118.523 89.5675C118.569 89.7838 118.669 89.9849 118.814 90.152C118.962 90.2805 119.138 90.3722 119.329 90.4196C119.961 90.6173 120.622 90.7073 121.284 90.6858C121.551 90.677 121.83 90.6516 122.079 90.753C122.327 90.8545 122.528 91.1334 122.438 91.387C122.36 91.6 122.126 91.7014 121.914 91.7813C121.43 91.9512 120.963 92.166 120.519 92.4229C120.348 92.5396 120.167 92.6418 119.979 92.7285C119.799 92.7934 119.613 92.8393 119.424 92.8654L117.177 93.2458C116.717 93.3256 116.163 93.3726 115.87 92.9922C115.711 92.7868 115.688 92.5078 115.696 92.2479C115.709 91.7407 115.81 91.2247 115.743 90.7175C115.694 90.4172 115.615 90.1225 115.508 89.8376L114.834 87.8444C114.608 87.1762 114.38 86.5029 114.292 85.803C114.261 85.5495 114.263 85.2616 114.457 85.1031C114.506 85.0629 114.563 85.0335 114.625 85.0169C114.632 84.4058 114.712 83.7934 114.678 83.1822C114.669 83.0301 114.654 82.8767 114.641 82.7245C114.523 82.8356 114.417 82.9598 114.327 83.0948C114.111 83.4333 114.031 83.8821 113.7 84.1091C113.419 84.3018 113.002 84.2917 112.804 84.5706C112.74 84.6778 112.692 84.7935 112.662 84.9142C112.546 85.2128 112.374 85.4862 112.155 85.7194C112.078 85.9974 111.973 86.2668 111.842 86.5232C111.655 86.9163 111.469 87.3093 111.284 87.7024C111.085 88.1233 110.884 88.5443 110.65 88.9424C110.472 89.195 110.329 89.4706 110.225 89.7615C110.046 90.3879 110.336 91.0751 110.799 91.5366C111.262 91.9981 111.869 92.2631 112.468 92.5104C112.532 92.5313 112.59 92.5659 112.639 92.6118C112.691 92.6735 112.718 92.752 112.715 92.8324C112.715 93.1253 112.475 93.3764 112.199 93.4664C111.917 93.5422 111.62 93.5531 111.333 93.4981C109.713 93.3016 108.097 92.906 106.665 92.1186C106.45 92.0164 106.26 91.8699 106.107 91.6888C106.034 91.5986 105.987 91.491 105.97 91.3768C105.953 91.2626 105.966 91.1458 106.008 91.0383Z" fill="url(#paint1_linear)"/>
<path d="M112.857 62.6051C112.587 63.0193 112.334 63.4444 112.096 63.8806C111.931 64.1682 111.796 64.4725 111.694 64.7884C111.546 65.2956 111.551 65.8383 111.441 66.3556C111.314 66.9642 111.017 67.5449 111.017 68.1674C111.036 68.7085 111.223 69.2302 111.552 69.6598C111.881 70.085 112.256 70.472 112.671 70.8136C113.628 68.3332 114.163 65.7099 114.253 63.0526C114.266 62.6849 114.267 62.3046 114.134 61.9622C114.05 61.7467 113.656 61.1558 113.401 61.3879C113.308 61.4728 113.284 61.8557 113.227 61.9825C113.121 62.1995 112.997 62.4076 112.857 62.6051Z" fill="#F86D70"/>
<path opacity="0.1" d="M112.857 62.6051C112.587 63.0193 112.334 63.4444 112.096 63.8806C111.931 64.1682 111.796 64.4725 111.694 64.7884C111.546 65.2956 111.551 65.8383 111.441 66.3556C111.314 66.9642 111.017 67.5449 111.017 68.1674C111.036 68.7085 111.223 69.2302 111.552 69.6598C111.881 70.085 112.256 70.472 112.671 70.8136C113.628 68.3332 114.163 65.7099 114.253 63.0526C114.266 62.6849 114.267 62.3046 114.134 61.9622C114.05 61.7467 113.656 61.1558 113.401 61.3879C113.308 61.4728 113.284 61.8557 113.227 61.9825C113.121 62.1995 112.997 62.4076 112.857 62.6051Z" fill="black"/>
<path d="M126.468 63.991C126.964 63.9085 127.514 63.9491 127.9 64.2699C128.132 64.4674 128.28 64.7473 128.311 65.0509C128.343 65.4034 128.139 65.8193 127.787 65.8472C127.702 65.8482 127.617 65.8426 127.533 65.8307C127.311 65.8293 127.088 65.8476 126.869 65.8852C126.437 65.9258 126.001 65.8622 125.599 65.6998C125.197 65.5374 124.839 65.281 124.556 64.952C124.254 64.5793 124.653 64.4081 125.011 64.332C125.501 64.2281 125.979 64.0746 126.468 63.991Z" fill="#FBBEBE"/>
<path d="M117.988 75.4428L117.674 77.6769C117.633 77.907 117.617 78.1407 117.626 78.3742C117.663 78.9004 117.941 79.3734 118.144 79.8602C118.347 80.3471 118.469 80.9291 118.201 81.3817C118.119 81.5238 118.002 81.6429 117.929 81.7887C117.834 82.0147 117.791 82.259 117.802 82.5039L117.716 85.6737C116.737 85.7398 115.755 85.7343 114.777 85.6572C114.738 85.6604 114.7 85.6506 114.668 85.6293C114.642 85.5964 114.629 85.5555 114.631 85.5139C114.588 84.7722 114.717 84.0292 114.675 83.2874C114.66 83.0161 114.621 82.746 114.617 82.4734C114.601 81.3691 115.147 80.2875 114.982 79.1946C114.93 78.9196 114.863 78.6478 114.779 78.3806C114.258 76.4787 114.368 74.4792 114.483 72.5164C114.481 72.4849 114.49 72.4539 114.508 72.4277C114.528 72.4092 114.552 72.3961 114.578 72.3896C115.133 72.2237 115.719 72.1936 116.288 72.302C116.857 72.4103 117.391 72.6539 117.846 73.0122C117.985 73.1238 118.333 73.2315 118.425 73.3634C118.551 73.5498 118.384 73.7336 118.312 73.9314C118.15 74.4222 118.042 74.9289 117.988 75.4428Z" fill="#3F3D56"/>
<path opacity="0.1" d="M117.988 75.4428L117.674 77.6769C117.633 77.907 117.617 78.1407 117.626 78.3742C117.663 78.9004 117.941 79.3734 118.144 79.8602C118.347 80.3471 118.469 80.9291 118.201 81.3817C118.119 81.5238 118.002 81.6429 117.929 81.7887C117.834 82.0147 117.791 82.259 117.802 82.5039L117.716 85.6737C116.737 85.7398 115.755 85.7343 114.777 85.6572C114.738 85.6604 114.7 85.6506 114.668 85.6293C114.642 85.5964 114.629 85.5555 114.631 85.5139C114.588 84.7722 114.717 84.0292 114.675 83.2874C114.66 83.0161 114.621 82.746 114.617 82.4734C114.601 81.3691 115.147 80.2875 114.982 79.1946C114.93 78.9196 114.863 78.6478 114.779 78.3806C114.258 76.4787 114.368 74.4792 114.483 72.5164C114.481 72.4849 114.49 72.4539 114.508 72.4277C114.528 72.4092 114.552 72.3961 114.578 72.3896C115.133 72.2237 115.719 72.1936 116.288 72.302C116.857 72.4103 117.391 72.6539 117.846 73.0122C117.985 73.1238 118.333 73.2315 118.425 73.3634C118.551 73.5498 118.384 73.7336 118.312 73.9314C118.15 74.4222 118.042 74.9289 117.988 75.4428Z" fill="black"/>
<path d="M112.109 74.7683C112.257 75.0764 112.456 75.3642 112.544 75.6951C112.776 76.5687 112.179 77.4702 112.25 78.3654C112.273 78.6481 112.36 78.9233 112.366 79.206C112.373 79.4888 112.269 79.8032 112.018 79.9325C111.849 80.02 111.637 80.0112 111.479 80.11C111.211 80.2723 111.181 80.6451 111.208 80.9558C111.234 81.2664 111.277 81.6164 111.081 81.8611C110.93 82.05 110.671 82.1223 110.509 82.301C110.412 82.4298 110.329 82.5688 110.263 82.7156C110.021 83.1379 109.579 83.3978 109.217 83.73C108.854 84.0622 108.547 84.5491 108.71 85.008C108.829 85.3466 109.164 85.5545 109.486 85.713C110.073 86.0034 110.693 86.2227 111.333 86.366C111.402 86.3864 111.474 86.3899 111.545 86.3761C111.616 86.3498 111.68 86.3062 111.73 86.2494C112.104 85.8829 112.491 85.4987 112.663 85.0055C112.694 84.8857 112.742 84.7708 112.805 84.6644C113.003 84.388 113.419 84.3969 113.702 84.2067C114.031 83.9823 114.111 83.536 114.327 83.2C114.531 82.883 114.858 82.6649 115.087 82.3682C115.468 81.8763 115.57 81.2208 115.848 80.6591C115.966 80.4194 116.117 80.1975 116.211 79.9478C116.306 79.6503 116.364 79.3425 116.384 79.0311C116.563 77.5501 117.018 76.059 116.732 74.5933C116.668 74.27 116.571 73.9593 116.53 73.6271C116.459 73.0515 116.571 72.4645 116.486 71.8901C116.484 71.8183 116.466 71.7479 116.433 71.6841C116.399 71.6204 116.352 71.5651 116.294 71.5224C116.226 71.4919 116.151 71.4763 116.076 71.4767C115.325 71.4376 114.571 71.455 113.822 71.5287C113.442 71.5655 113.014 71.6428 112.787 71.9535C112.593 72.2185 112.604 72.576 112.534 72.8994C112.458 73.2962 112.256 73.5143 112.044 73.8262C111.833 74.1381 111.953 74.4475 112.109 74.7683Z" fill="#3F3D56"/>
<path d="M115.034 85.0715C114.834 85.0715 114.612 85.0601 114.457 85.1869C114.264 85.3441 114.261 85.6344 114.292 85.8829C114.381 86.5765 114.608 87.2447 114.835 87.9116L115.51 89.8908C115.616 90.1731 115.695 90.4653 115.744 90.7632C115.811 91.2703 115.71 91.7775 115.697 92.2847C115.697 92.5383 115.714 92.8197 115.872 93.0239C116.159 93.3916 116.718 93.3485 117.178 93.2699L119.424 92.8895C119.613 92.8636 119.799 92.8182 119.979 92.7538C120.167 92.6673 120.347 92.5656 120.518 92.4495C120.962 92.1956 121.429 91.9834 121.913 91.8156C122.123 91.7369 122.359 91.6355 122.435 91.4238C122.525 91.1702 122.325 90.8925 122.076 90.7898C121.828 90.6871 121.55 90.7137 121.281 90.7226C120.62 90.7439 119.96 90.6543 119.329 90.4576C119.138 90.4119 118.962 90.321 118.814 90.1926C118.669 90.0276 118.568 89.8281 118.522 89.6132C118.332 88.9521 118.218 88.2714 118.182 87.5845C118.157 87.0773 118.175 86.5702 118.154 86.063C118.142 85.7625 118.171 84.7951 117.901 84.5884C117.699 84.4337 116.869 84.861 116.597 84.9231C116.085 85.0377 115.559 85.0876 115.034 85.0715Z" fill="#2F2E41"/>
<path d="M107.636 86.4814C107.418 87.2092 107.382 87.9763 107.242 88.7231C107.101 89.4699 106.849 90.2332 106.294 90.7518C106.186 90.8371 106.093 90.9399 106.019 91.0561C105.973 91.1646 105.957 91.284 105.973 91.401C105.99 91.518 106.039 91.6282 106.114 91.7192C106.267 91.8996 106.457 92.0452 106.671 92.1465C108.102 92.9275 109.714 93.3206 111.338 93.5158C111.625 93.5707 111.921 93.5603 112.203 93.4854C112.479 93.3916 112.724 93.1431 112.719 92.8514C112.722 92.7718 112.694 92.6941 112.643 92.6334C112.594 92.5883 112.535 92.5541 112.472 92.5332C111.873 92.2872 111.265 92.0184 110.803 91.5658C110.342 91.1131 110.05 90.4246 110.229 89.8084C110.333 89.52 110.476 89.2467 110.652 88.9957C110.885 88.5969 111.096 88.1864 111.286 87.7658L111.844 86.5955C112.006 86.2544 112.172 85.902 112.199 85.5228C111.499 85.5546 110.799 85.4428 110.144 85.1945C109.838 85.0696 109.552 84.8985 109.298 84.6873C109.083 84.5072 108.886 84.1725 108.596 84.4071C108.362 84.5947 108.215 85.1222 108.077 85.391C107.902 85.7424 107.754 86.107 107.636 86.4814Z" fill="#2F2E41"/>
<path d="M115.809 57.423C115.753 57.9087 115.281 58.2307 114.831 58.4222L117.679 59.3325C117.495 58.9801 117.645 58.549 117.827 58.1914C117.976 57.9087 118.146 57.6375 118.335 57.3799C118.363 57.3406 118.394 57.2899 118.374 57.2455C118.356 57.2157 118.327 57.1936 118.294 57.1834C117.708 56.9222 117.105 56.6522 116.464 56.5571C116.279 56.5292 115.929 56.4556 115.791 56.6445C115.653 56.8335 115.839 57.1986 115.809 57.423Z" fill="#FBBEBE"/>
<path opacity="0.1" d="M115.809 57.423C115.753 57.9087 115.281 58.2307 114.831 58.4222L117.679 59.3325C117.495 58.9801 117.645 58.549 117.827 58.1914C117.976 57.9087 118.146 57.6375 118.335 57.3799C118.363 57.3406 118.394 57.2899 118.374 57.2455C118.356 57.2157 118.327 57.1936 118.294 57.1834C117.708 56.9222 117.105 56.6522 116.464 56.5571C116.279 56.5292 115.929 56.4556 115.791 56.6445C115.653 56.8335 115.839 57.1986 115.809 57.423Z" fill="black"/>
<path d="M117.469 57.8174C118.702 57.8174 119.703 56.8172 119.703 55.5833C119.703 54.3495 118.702 53.3492 117.469 53.3492C116.235 53.3492 115.234 54.3495 115.234 55.5833C115.234 56.8172 116.235 57.8174 117.469 57.8174Z" fill="#FBBEBE"/>
<path d="M119.398 73.9644C119.183 74.218 118.801 74.2738 118.468 74.218C117.688 74.0912 117.049 73.5168 116.287 73.3102C115.351 73.0566 114.36 73.3824 113.477 73.7806C112.595 74.1787 111.715 74.6618 110.749 74.7378C111.622 72.7903 111.123 70.4459 111.957 68.4819C112.162 68.0026 112.448 67.5386 112.493 67.02C112.55 66.3746 112.228 65.752 112.179 65.1092C112.133 64.5374 112.306 63.9681 112.469 63.4241L113.082 61.4145C113.31 60.6664 113.544 59.9044 113.987 59.259C114.149 59.0219 114.2 58.5426 114.448 58.3981C114.991 58.0862 115.814 58.4805 116.402 58.5021C116.991 58.5236 117.527 58.942 117.871 59.415C118.235 59.9145 118.441 60.5092 118.631 61.0975C118.935 61.9733 119.162 62.874 119.308 63.7893C119.327 63.9262 119.344 64.0632 119.357 64.2014C119.483 65.5035 119.298 66.8133 119.288 68.1205C119.288 68.1205 119.288 68.1205 119.288 68.1307C119.277 69.7891 119.542 71.4387 119.592 73.0971C119.6 73.4052 119.592 73.7362 119.398 73.9644Z" fill="#F86D70"/>
<path opacity="0.1" d="M119.288 68.132C118.851 68.0217 118.454 67.7402 118.115 67.4309C117.822 67.1691 117.56 66.8733 117.337 66.5497C117.056 66.1074 116.831 65.6321 116.666 65.1347C116.196 63.8139 115.898 62.4384 115.778 61.0418C115.745 60.6614 115.735 60.2544 115.962 59.9526C116.089 59.7891 116.268 59.6733 116.469 59.6243C116.67 59.5752 116.882 59.5958 117.07 59.6826C117.371 59.8297 117.565 60.1251 117.744 60.4066C118.101 60.9683 118.46 61.535 118.69 62.1588C118.791 62.4352 118.866 62.7205 118.965 62.9982C119.065 63.2721 119.181 63.54 119.312 63.8008C119.331 63.9377 119.348 64.0747 119.36 64.2129C119.478 65.5087 119.298 66.8185 119.288 68.132Z" fill="black"/>
<path d="M115.967 59.7066C115.742 60.0071 115.752 60.4192 115.784 60.7958C115.903 62.192 116.202 63.567 116.671 64.8874C116.835 65.3852 117.06 65.8606 117.342 66.3024C117.565 66.6263 117.826 66.9222 118.12 67.1836C118.551 67.5779 119.076 67.9291 119.661 67.9342C119.99 67.9181 120.314 67.8474 120.619 67.725L125.375 66.1097C125.424 65.8371 125.232 65.5213 125.142 65.2601L124.889 64.507C124.816 64.3003 124.731 64.0759 124.544 63.9631C124.356 63.8502 124.055 64.0049 123.898 64.1304C123.741 64.2559 123.621 64.4208 123.467 64.5488C123.173 64.7923 122.786 64.8823 122.415 64.966L121.346 65.2069C120.958 65.312 120.558 65.3649 120.157 65.3641C119.859 64.455 119.292 63.6537 118.971 62.7509C118.872 62.4745 118.796 62.1892 118.695 61.9128C118.465 61.289 118.106 60.7222 117.75 60.1605C117.571 59.8778 117.377 59.5824 117.077 59.4365C116.889 59.3499 116.676 59.3294 116.475 59.3784C116.274 59.4275 116.095 59.5431 115.967 59.7066Z" fill="#F86D70"/>
<path d="M116.756 56.0867C116.773 55.9402 116.819 55.7984 116.89 55.6695C116.928 55.6048 116.985 55.5536 117.053 55.5234C117.121 55.4931 117.198 55.4852 117.271 55.5009C117.494 55.5706 117.569 55.9168 117.802 55.9282C117.959 55.9358 118.072 55.776 118.122 55.6251C118.171 55.4742 118.198 55.3056 118.316 55.1991C118.397 55.1374 118.492 55.0942 118.592 55.0723C119.133 54.9011 119.692 54.5842 119.873 54.0453C119.914 53.9362 119.924 53.8175 119.902 53.7029C119.819 53.3619 119.394 53.2592 119.071 53.1349C118.748 53.0107 118.437 52.8027 118.12 52.643C117.803 52.4832 117.436 52.3691 117.087 52.4502C116.91 52.5059 116.736 52.5711 116.566 52.6455C116.041 52.8268 115.397 52.7431 114.99 53.121C114.812 53.3099 114.682 53.5379 114.609 53.7866C114.324 54.574 114.145 55.511 114.616 56.2033C114.905 56.6306 115.188 57.1187 115.745 57.1695C116.395 57.2278 116.653 56.6344 116.756 56.0867Z" fill="#2F2E41"/>
<g opacity="0.1">
<path opacity="0.1" d="M117.748 55.3564C117.797 55.2068 117.824 55.0369 117.94 54.9304C118.023 54.8694 118.117 54.8262 118.217 54.8036C118.759 54.6324 119.317 54.3167 119.499 53.7765C119.54 53.6673 119.55 53.5487 119.526 53.4342C119.514 53.38 119.491 53.3288 119.459 53.2833C119.666 53.3721 119.846 53.4925 119.897 53.703C119.919 53.8176 119.909 53.9362 119.868 54.0453C119.687 54.5842 119.128 54.9012 118.587 55.0724C118.487 55.0942 118.392 55.1375 118.311 55.1992C118.193 55.3057 118.166 55.4756 118.117 55.6252C118.067 55.7748 117.954 55.9358 117.797 55.9282C117.64 55.9206 117.564 55.7773 117.464 55.6569C117.602 55.6391 117.701 55.4946 117.748 55.3564Z" fill="black"/>
<path opacity="0.1" d="M115.374 56.8981C116.026 56.9577 116.283 56.3656 116.388 55.8179C116.405 55.6714 116.451 55.5296 116.523 55.4007C116.56 55.3361 116.617 55.2851 116.686 55.255C116.754 55.2249 116.83 55.2173 116.903 55.2333C117.024 55.2701 117.101 55.3893 117.183 55.4869C117.125 55.4925 117.069 55.5114 117.019 55.5422C116.97 55.573 116.928 55.6148 116.897 55.6644C116.825 55.7934 116.779 55.9351 116.762 56.0816C116.66 56.6293 116.401 57.2227 115.748 57.1619C115.489 57.1343 115.251 57.0108 115.079 56.8157C115.172 56.8591 115.272 56.887 115.374 56.8981Z" fill="black"/>
</g>
<path d="M22.5428 82.4519L24.9696 81.0242C24.6407 80.4645 24.2213 79.9632 23.7283 79.5407L19.1498 80.9646L22.7431 78.8548C21.8549 78.3682 20.8552 78.1213 19.8426 78.1384C18.83 78.1555 17.8392 78.436 16.9679 78.9522C16.0966 79.4685 15.3747 80.2028 14.8734 81.0827C14.372 81.9627 14.1084 82.9581 14.1086 83.9709C14.1086 87.1914 16.7192 87.3043 19.941 87.3043C23.1628 87.3043 25.7735 87.1914 25.7735 83.9709C25.7728 83.1553 25.5999 82.3491 25.2663 81.6049L22.5428 82.4519Z" fill="#D12421"/>
<path opacity="0.1" d="M23.1603 85.5836C22.902 85.3246 22.6134 85.0976 22.3006 84.9078C21.8594 84.6149 21.4042 84.3157 20.8844 84.2168C20.4279 84.1293 19.9575 84.2029 19.4896 84.1775C18.6823 84.128 17.9225 83.7795 17.3583 83.1999C17.0273 82.8576 16.7661 82.4392 16.368 82.1742C15.9382 81.8927 15.393 81.8319 14.8833 81.9016C14.7355 81.9233 14.589 81.9534 14.4446 81.9916C14.2158 82.6264 14.0991 83.2961 14.0997 83.9708C14.0997 87.1913 16.7104 87.3042 19.9322 87.3042C21.4955 87.3042 22.9143 87.2776 23.9616 86.882L23.7866 86.5548C23.6198 86.2059 23.4093 85.8796 23.1603 85.5836Z" fill="black"/>
<path d="M74.931 90.6059L71.7117 88.7129C72.148 87.9699 72.705 87.3049 73.36 86.7451L79.4321 88.633L74.6736 85.836C75.8514 85.1907 77.177 84.8632 78.5198 84.8857C79.8626 84.9083 81.1764 85.2801 82.3319 85.9646C83.4874 86.6492 84.4447 87.6228 85.1097 88.7896C85.7746 89.9565 86.1243 91.2764 86.1242 92.6194C86.1242 96.891 82.6615 97.0394 78.3899 97.0394C74.1182 97.0394 70.6555 96.891 70.6555 92.6194C70.6543 91.5384 70.8802 90.4693 71.3186 89.4813L74.931 90.6059Z" fill="#D12421"/>
<path opacity="0.1" d="M74.1106 94.7583C74.4535 94.4147 74.8367 94.1137 75.2517 93.8619C75.8363 93.4739 76.4411 93.0783 77.1295 92.9465C77.7343 92.8311 78.3582 92.9287 78.9731 92.8932C80.0436 92.8274 81.0513 92.366 81.8006 91.5987C82.2393 91.1435 82.5854 90.5843 83.1141 90.2382C83.6834 89.8578 84.4061 89.783 85.0819 89.8768C85.2786 89.9046 85.4734 89.9444 85.6652 89.996C85.9682 90.8374 86.1226 91.7251 86.1216 92.6193C86.1216 96.8909 82.6589 97.0393 78.3873 97.0393C76.3143 97.0393 74.4327 97.0051 73.043 96.4801L73.2751 96.0465C73.5172 95.5939 73.7632 95.1387 74.1106 94.7583Z" fill="black"/>
</g>
<defs>
<linearGradient id="paint0_linear" x1="70.3524" y1="26.4309" x2="103.864" y2="6.55766" gradientUnits="userSpaceOnUse">
<stop stop-color="#808080" stop-opacity="0.25"/>
<stop offset="0.54" stop-color="#808080" stop-opacity="0.12"/>
<stop offset="1" stop-color="#808080" stop-opacity="0.1"/>
</linearGradient>
<linearGradient id="paint1_linear" x1="-27694.3" y1="32979.2" x2="-27150.1" y2="19374.7" gradientUnits="userSpaceOnUse">
<stop stop-color="#808080" stop-opacity="0.25"/>
<stop offset="0.54" stop-color="#808080" stop-opacity="0.12"/>
<stop offset="1" stop-color="#808080" stop-opacity="0.1"/>
</linearGradient>
<clipPath id="clip0">
<rect width="138.802" height="100" fill="white" transform="translate(0.889191)"/>
</clipPath>
</defs>
</svg>
