<svg width="106" height="100" viewBox="0 0 106 100" fill="none" xmlns="http://www.w3.org/2000/svg">
<g clip-path="url(#clip0)">
<path d="M98.2351 26.5678V20.9531H97.3621V26.5678C97.1116 26.6691 96.9042 26.8543 96.7754 27.0918C96.6466 27.3292 96.6044 27.6041 96.656 27.8692C96.7076 28.1344 96.8498 28.3734 97.0582 28.5452C97.2667 28.717 97.5285 28.8109 97.7986 28.8109C98.0687 28.8109 98.3305 28.717 98.5389 28.5452C98.7474 28.3734 98.8896 28.1344 98.9412 27.8692C98.9928 27.6041 98.9506 27.3292 98.8218 27.0918C98.693 26.8543 98.4856 26.6691 98.2351 26.5678Z" fill="#E6E6E6"/>
<path d="M100.272 83.2303H94.3065V10.7676H91.9784V83.2303H86.0126C85.3055 83.2303 84.6055 83.3696 83.9523 83.6401C83.2991 83.9107 82.7056 84.3072 82.2057 84.8072C81.7057 85.3071 81.3092 85.9006 81.0386 86.5538C80.768 87.207 80.6288 87.9071 80.6288 88.6141V88.6141H105.656V88.6141C105.656 87.9071 105.517 87.207 105.246 86.5538C104.976 85.9006 104.579 85.3071 104.079 84.8072C103.579 84.3072 102.986 83.9107 102.333 83.6401C101.679 83.3695 100.979 83.2303 100.272 83.2303Z" fill="#E6E6E6"/>
<path d="M80.6409 21.5351H105.644L104.115 2.42411C104.059 1.76512 103.759 1.1509 103.273 0.702293C102.787 0.253683 102.151 0.00315606 101.489 0H84.7956C84.1343 0.00315643 83.4981 0.253683 83.0121 0.702293C82.5262 1.1509 82.2257 1.76512 82.1698 2.42411L80.6409 21.5351Z" fill="#D12421"/>
<path d="M9.81445 66.5748H86.13V58.7834C86.13 37.7432 69.0124 20.6257 47.9722 20.6257C26.932 20.6257 9.81445 37.7432 9.81445 58.7834V66.5748Z" fill="#3F3D56"/>
<path opacity="0.2" d="M9.81445 66.5748H86.13V58.7834C86.13 37.7432 69.0124 20.6257 47.9722 20.6257C26.932 20.6257 9.81445 37.7432 9.81445 58.7834V66.5748Z" fill="black"/>
<path d="M19.7053 69.2719H78.4368C78.381 66.1819 77.1152 63.2372 74.9115 61.0705C72.7078 58.9038 69.742 57.6881 66.6516 57.6847H31.4905C28.4001 57.6881 25.4343 58.9038 23.2306 61.0705C21.0269 63.2372 19.7611 66.1819 19.7053 69.2719Z" fill="#D12421"/>
<path d="M12.7113 68.0731C19.221 68.0731 24.4982 62.7959 24.4982 56.2862C24.4982 49.7764 19.221 44.4992 12.7113 44.4992C6.20152 44.4992 0.924316 49.7764 0.924316 56.2862C0.924316 62.7959 6.20152 68.0731 12.7113 68.0731Z" fill="#3F3D56"/>
<path d="M84.2321 68.0731C90.7419 68.0731 96.0191 62.7959 96.0191 56.2862C96.0191 49.7764 90.7419 44.4992 84.2321 44.4992C77.7224 44.4992 72.4452 49.7764 72.4452 56.2862C72.4452 62.7959 77.7224 68.0731 84.2321 68.0731Z" fill="#3F3D56"/>
<path d="M75.3421 62.2795V66.6747H20.9023V62.2795H8.71582V83.7015C8.71582 85.014 9.23721 86.2728 10.1653 87.2009C11.0934 88.129 12.3522 88.6504 13.6647 88.6504H82.5797C83.2296 88.6504 83.8732 88.5224 84.4736 88.2737C85.074 88.025 85.6196 87.6604 86.0791 87.2009C86.5387 86.7413 86.9032 86.1958 87.1519 85.5954C87.4006 84.9949 87.5286 84.3514 87.5286 83.7015V62.2795H75.3421Z" fill="#3F3D56"/>
<path opacity="0.2" d="M12.7113 58.6836C14.0353 58.6836 15.1087 57.6102 15.1087 56.2862C15.1087 54.9622 14.0353 53.8889 12.7113 53.8889C11.3873 53.8889 10.314 54.9622 10.314 56.2862C10.314 57.6102 11.3873 58.6836 12.7113 58.6836Z" fill="black"/>
<path opacity="0.2" d="M84.2323 58.6836C85.5563 58.6836 86.6297 57.6102 86.6297 56.2862C86.6297 54.9622 85.5563 53.8889 84.2323 53.8889C82.9083 53.8889 81.835 54.9622 81.835 56.2862C81.835 57.6102 82.9083 58.6836 84.2323 58.6836Z" fill="black"/>
<path d="M52.3143 19.2792C52.3143 19.2792 52.55 23.7572 54.1998 24.6999C55.8495 25.6426 54.1998 32.006 54.1998 32.006L46.4223 32.2417L45.9509 24.6999C45.9509 24.6999 46.8937 21.636 46.4223 20.2219C45.9509 18.8079 52.3143 19.2792 52.3143 19.2792Z" fill="#FFB8B8"/>
<path d="M61.0345 81.499L58.2064 84.7985L62.6844 89.0408L65.0412 84.3272L61.0345 81.499Z" fill="#FFB8B8"/>
<path d="M41.0015 81.499L43.8298 84.7985L39.3518 89.0408L36.995 84.3272L41.0015 81.499Z" fill="#FFB8B8"/>
<path d="M59.5027 50.2713C59.5027 50.2713 76.4717 55.9276 75.529 61.3483C74.5863 66.7689 67.2802 85.8591 67.2802 85.8591C67.2802 85.8591 63.2736 85.8591 60.2097 81.6168L62.3309 76.9032C62.3309 76.9032 61.3881 74.3107 63.0379 73.8394C64.6877 73.368 65.6304 65.1192 65.6304 65.1192C65.6304 65.1192 53.6107 64.1764 51.0182 59.6985L46.3046 48.3858L59.5027 50.2713Z" fill="#2F2E41"/>
<path d="M42.5337 50.2713C42.5337 50.2713 25.5646 55.9276 26.5074 61.3483C27.4501 66.7689 34.7562 85.8591 34.7562 85.8591C34.7562 85.8591 38.7628 85.8591 41.8266 81.6168L39.7055 76.9032C39.7055 76.9032 40.6482 74.3107 38.9985 73.8394C37.3487 73.368 36.406 65.1192 36.406 65.1192C36.406 65.1192 48.4257 64.1764 51.0182 59.6985L55.7318 48.3858L42.5337 50.2713Z" fill="#2F2E41"/>
<path d="M61.8594 87.2733C61.8594 87.2733 64.2162 85.1522 64.4519 86.802C64.6876 88.4517 64.2162 95.0508 64.2162 95.0508C64.2162 95.0508 66.573 100 63.0378 100C59.5026 100 57.8528 96.2292 58.3242 92.4583C58.7956 88.6874 56.6744 87.2733 56.6744 87.2733C56.6744 87.2733 54.0819 82.0883 56.6744 81.617C59.2669 81.1456 60.2096 82.324 60.2096 82.324C60.2096 82.324 59.2669 86.5663 61.8594 87.2733Z" fill="#2F2E41"/>
<path d="M40.1768 87.2733C40.1768 87.2733 37.82 85.1522 37.5843 86.802C37.3486 88.4517 37.82 95.0508 37.82 95.0508C37.82 95.0508 35.4632 100 38.9984 100C42.5336 100 44.1834 96.2292 43.712 92.4583C43.2406 88.6874 45.3618 87.2733 45.3618 87.2733C45.3618 87.2733 47.9543 82.0883 45.3618 81.617C42.7693 81.1456 41.8266 82.324 41.8266 82.324C41.8266 82.324 42.7693 86.5663 40.1768 87.2733Z" fill="#2F2E41"/>
<path d="M48.6611 21.9895C51.6549 21.9895 54.0818 19.5626 54.0818 16.5689C54.0818 13.5751 51.6549 11.1482 48.6611 11.1482C45.6674 11.1482 43.2405 13.5751 43.2405 16.5689C43.2405 19.5626 45.6674 21.9895 48.6611 21.9895Z" fill="#FFB8B8"/>
<path d="M49.4862 25.8783L46.1867 23.2858L38.1736 27.0567L37.9379 48.5037C37.9379 48.5037 32.9886 50.8605 34.4027 53.9243C34.4027 53.9243 38.6449 54.867 40.5304 56.7525C42.4158 58.6379 53.0215 56.0455 57.4994 54.6314C61.9773 53.2173 63.1557 51.5675 63.1557 51.5675L58.6778 45.2041L61.2703 28.9421L53.258 23.5553L49.4862 25.8783Z" fill="#E6E6E6"/>
<path d="M55.2515 12.8795C55.1334 12.7192 55.0255 12.5517 54.9283 12.3779C54.7603 11.9686 55.0258 11.4862 54.7777 11.1039C54.5244 10.7137 53.8815 10.6314 53.4441 10.3663C52.7703 9.95793 52.6478 9.15659 52.0165 8.70657C51.5616 8.38233 50.9129 8.29492 50.3051 8.31342C49.6972 8.33192 49.0975 8.44181 48.4894 8.45387C47.6686 8.47219 46.8541 8.30564 46.1064 7.96655L46.555 8.84408C46.0565 8.73543 45.5802 8.54238 45.1468 8.27329C44.9484 8.51939 45.3114 8.89294 45.0863 9.12378C44.9941 9.19824 44.8849 9.24886 44.7685 9.27115C43.9032 9.51703 43.0884 9.91453 42.3621 10.4451C42.1939 10.5521 42.0548 10.6989 41.9571 10.8726C41.8402 11.1318 41.9439 11.418 41.935 11.6935C41.919 12.1941 41.5367 12.6307 41.2655 13.0817C40.9943 13.5327 40.8479 14.1174 41.2501 14.5002C41.348 14.578 41.4418 14.6607 41.5312 14.7481C41.9342 15.2235 41.2208 15.9197 41.5647 16.4242C41.714 16.6432 42.02 16.7541 42.286 16.8835C42.7954 17.1217 43.224 17.5037 43.519 17.9825L43.3123 16.4651C43.3014 16.4276 43.2995 16.388 43.3067 16.3497C43.3138 16.3113 43.3298 16.2751 43.3535 16.244C43.4536 16.142 43.6633 16.1827 43.8015 16.1151C43.9536 16.0407 43.965 15.8701 43.959 15.7273L43.9125 14.6256C43.8915 14.1302 43.8857 14.0644 44.2506 13.6645C44.5055 13.3852 44.9064 13.2166 45.3092 13.0927C46.2296 12.8094 47.2195 12.7114 48.1979 12.6157C49.3342 12.5045 50.6137 11.9531 51.4961 12.5385C52.2184 13.0177 52.4586 13.8053 52.8067 14.5039C53.1195 15.1317 53.9224 16.9804 54.5908 15.9797C55.0106 15.3513 55.6526 13.5792 55.2515 12.8795Z" fill="#2F2E41"/>
<path d="M49.5918 14.9965C49.5695 14.9965 49.5481 15.0054 49.5323 15.0211C49.5165 15.0369 49.5076 15.0583 49.5076 15.0807V17.3502C49.5076 17.3725 49.5165 17.3939 49.5323 17.4097C49.5481 17.4255 49.5695 17.4343 49.5918 17.4343H53.4986C53.521 17.4343 53.5424 17.4255 53.5582 17.4097C53.574 17.3939 53.5829 17.3725 53.5829 17.3502V15.0807C53.5829 15.0583 53.574 15.0369 53.5582 15.0211C53.5424 15.0054 53.521 14.9965 53.4986 14.9965L49.5918 14.9965Z" fill="#3F3D56"/>
<path d="M50.0284 15.1966C49.9868 15.1966 49.9469 15.2132 49.9175 15.2426C49.8881 15.272 49.8715 15.3119 49.8715 15.3535V17.0772C49.8715 17.1189 49.8881 17.1588 49.9175 17.1882C49.9469 17.2176 49.9868 17.2341 50.0284 17.2342H53.062C53.1036 17.2341 53.1435 17.2176 53.173 17.1882C53.2024 17.1588 53.2189 17.1189 53.219 17.0772V15.3535C53.2189 15.3119 53.2024 15.272 53.173 15.2426C53.1435 15.2132 53.1036 15.1966 53.062 15.1966H50.0284Z" fill="#FF6584"/>
<path d="M49.6359 15.744H47.6008V16.2154H49.6359V15.744Z" fill="#3F3D56"/>
<path d="M44.0595 14.9965C44.0372 14.9965 44.0158 15.0054 44 15.0212C43.9843 15.0369 43.9754 15.0583 43.9753 15.0807V17.3502C43.9754 17.3725 43.9843 17.3939 44 17.4097C44.0158 17.4254 44.0372 17.4343 44.0595 17.4343H47.9664C47.9887 17.4343 48.0101 17.4254 48.0259 17.4097C48.0417 17.3939 48.0506 17.3725 48.0506 17.3502V15.0807C48.0506 15.0583 48.0417 15.0369 48.0259 15.0212C48.0101 15.0054 47.9887 14.9965 47.9664 14.9965L44.0595 14.9965Z" fill="#3F3D56"/>
<path d="M44.4961 15.1966C44.4545 15.1966 44.4146 15.2132 44.3852 15.2426C44.3557 15.272 44.3392 15.3119 44.3391 15.3535V17.0772C44.3392 17.1189 44.3557 17.1588 44.3852 17.1882C44.4146 17.2176 44.4545 17.2342 44.4961 17.2342H47.5297C47.5713 17.2342 47.6112 17.2176 47.6406 17.1882C47.6701 17.1588 47.6866 17.1189 47.6867 17.0772V15.3535C47.6866 15.3119 47.6701 15.272 47.6406 15.2426C47.6112 15.2132 47.5713 15.1966 47.5297 15.1966H44.4961Z" fill="#D12421"/>
<path d="M41.9238 43.3248H55.456C55.9963 43.3248 56.5144 43.5395 56.8965 43.9215C57.2785 44.3035 57.4931 44.8217 57.4931 45.3619H39.8867C39.8867 44.8217 40.1013 44.3035 40.4834 43.9215C40.8654 43.5395 41.3835 43.3248 41.9238 43.3248Z" fill="#3F3D56"/>
<path d="M56.4018 43.1793C56.3226 43.1797 56.244 43.1931 56.1692 43.219C56.1435 43.1156 56.0809 43.0253 55.9931 42.965C55.9054 42.9047 55.7986 42.8786 55.693 42.8916C55.5873 42.9046 55.4901 42.9559 55.4196 43.0357C55.3491 43.1155 55.3103 43.2184 55.3105 43.3248C55.3105 43.327 55.3111 43.329 55.3111 43.3312C55.2566 43.3364 55.2027 43.3475 55.1506 43.3645C55.1358 43.3057 55.109 43.2507 55.0719 43.2028C55.0347 43.1549 54.988 43.1153 54.9348 43.0864C55.0747 43.0091 55.1853 42.888 55.2497 42.7417C55.3315 42.7499 55.4141 42.7407 55.4921 42.7147C55.5701 42.6888 55.6418 42.6467 55.7025 42.5912C55.7631 42.5357 55.8114 42.4681 55.8441 42.3927C55.8769 42.3173 55.8934 42.2358 55.8925 42.1536C55.8917 42.0714 55.8735 41.9903 55.8393 41.9156C55.805 41.8409 55.7553 41.7742 55.6935 41.72C55.6318 41.6657 55.5592 41.6251 55.4807 41.6008C55.4022 41.5765 55.3194 41.569 55.2378 41.5788C55.1586 41.5791 55.08 41.5925 55.0051 41.6184C54.9917 41.5612 54.9668 41.5073 54.9319 41.4599C54.8971 41.4126 54.853 41.3728 54.8024 41.343C54.7517 41.3131 54.6956 41.2939 54.6373 41.2864C54.579 41.2788 54.5198 41.2832 54.4632 41.2992C54.4066 41.3152 54.3539 41.3425 54.3082 41.3794C54.2624 41.4163 54.2247 41.4621 54.1971 41.514C54.1696 41.566 54.1529 41.6229 54.148 41.6815C54.1431 41.7401 54.1501 41.799 54.1686 41.8548C54.1512 41.8669 54.135 41.8805 54.1187 41.8941C54.0364 41.8232 53.9295 41.7876 53.8211 41.795C53.7652 41.6343 53.6545 41.4984 53.5084 41.4112C53.3623 41.3239 53.1902 41.2909 53.0222 41.3178C52.8541 41.3447 52.701 41.4298 52.5894 41.5584C52.4779 41.6869 52.4152 41.8505 52.4122 42.0207C52.3538 42.0253 52.2961 42.0368 52.2405 42.0549C52.2342 42.0303 52.2258 42.0062 52.2154 41.9831C52.2728 41.9324 52.319 41.8702 52.3508 41.8006C52.3827 41.7309 52.3996 41.6554 52.4004 41.5788C52.3902 41.415 52.3156 41.2618 52.193 41.1528C52.0703 41.0438 51.9095 40.9877 51.7456 40.9967C51.6664 40.9971 51.5878 41.0105 51.5129 41.0363C51.4995 40.9791 51.4746 40.9252 51.4397 40.8779C51.4049 40.8306 51.3608 40.7908 51.3102 40.7609C51.2595 40.7311 51.2034 40.7119 51.1451 40.7043C51.0868 40.6968 51.0276 40.7012 50.971 40.7172C50.9144 40.7331 50.8617 40.7604 50.816 40.7974C50.7703 40.8343 50.7325 40.8801 50.705 40.932C50.6774 40.9839 50.6607 41.0409 50.6558 41.0995C50.6509 41.1581 50.6579 41.217 50.6764 41.2728C50.5848 41.3364 50.5091 41.4203 50.4551 41.518C50.4012 41.6156 50.3705 41.7244 50.3654 41.8358C50.3593 41.8413 50.3522 41.8457 50.3464 41.8515C50.3573 41.81 50.3629 41.7672 50.3633 41.7243C50.3531 41.5605 50.2785 41.4073 50.1558 41.2983C50.0332 41.1893 49.8724 41.1332 49.7085 41.1422C49.6293 41.1426 49.5507 41.156 49.4758 41.1819C49.4624 41.1246 49.4375 41.0707 49.4026 41.0234C49.3678 40.9761 49.3237 40.9363 49.2731 40.9065C49.2224 40.8766 49.1663 40.8574 49.108 40.8498C49.0497 40.8423 48.9905 40.8467 48.9339 40.8627C48.8773 40.8786 48.8246 40.9059 48.7789 40.9429C48.7332 40.9798 48.6954 41.0256 48.6678 41.0775C48.6403 41.1295 48.6236 41.1864 48.6187 41.245C48.6138 41.3036 48.6208 41.3625 48.6393 41.4183C48.5427 41.4851 48.4637 41.5743 48.4092 41.6782C48.3547 41.7822 48.3262 41.8979 48.3262 42.0153C48.3262 42.1327 48.3547 42.2483 48.4092 42.3523C48.4637 42.4563 48.5427 42.5455 48.6393 42.6122C48.6098 42.6968 48.6098 42.7888 48.6393 42.8734C48.5664 42.9243 48.5033 42.9879 48.4531 43.0614C48.4262 42.9636 48.3659 42.8784 48.2827 42.8205C48.1994 42.7626 48.0986 42.7357 47.9976 42.7444C47.8966 42.7532 47.8018 42.797 47.7298 42.8683C47.6577 42.9396 47.6129 43.0339 47.6031 43.1348C47.5448 43.1006 47.4818 43.0752 47.4161 43.0592C47.5339 42.9814 47.6267 42.8712 47.6833 42.7417C47.7651 42.7499 47.8477 42.7407 47.9257 42.7147C48.0037 42.6888 48.0754 42.6467 48.1361 42.5912C48.1967 42.5357 48.245 42.4681 48.2777 42.3927C48.3105 42.3173 48.327 42.2358 48.3261 42.1536C48.3253 42.0714 48.3071 41.9903 48.2729 41.9156C48.2386 41.8409 48.1889 41.7742 48.1271 41.72C48.0654 41.6657 47.9928 41.6251 47.9143 41.6008C47.8358 41.5765 47.753 41.569 47.6714 41.5788C47.5922 41.5791 47.5136 41.5925 47.4387 41.6184C47.4253 41.5612 47.4004 41.5073 47.3655 41.4599C47.3307 41.4126 47.2866 41.3728 47.236 41.343C47.1853 41.3131 47.1291 41.2939 47.0709 41.2864C47.0126 41.2788 46.9534 41.2832 46.8968 41.2992C46.8402 41.3152 46.7875 41.3425 46.7418 41.3794C46.696 41.4163 46.6583 41.4621 46.6307 41.514C46.6032 41.566 46.5865 41.6229 46.5816 41.6815C46.5767 41.7401 46.5837 41.799 46.6022 41.8548C46.5928 41.8613 46.5844 41.869 46.5754 41.8759C46.5527 41.8738 46.5307 41.8698 46.5073 41.8698C46.4281 41.8701 46.3495 41.8835 46.2746 41.9094C46.2719 41.8984 46.2674 41.8882 46.2638 41.8776C46.2779 41.8128 46.2768 41.7457 46.2605 41.6814C46.2443 41.6171 46.2133 41.5575 46.1702 41.5072C46.127 41.4569 46.0727 41.4173 46.0117 41.3915C45.9506 41.3657 45.8844 41.3544 45.8182 41.3585C45.7803 41.253 45.7185 41.1577 45.6377 41.08C45.5569 41.0023 45.4591 40.9444 45.3522 40.9108C45.2452 40.8771 45.132 40.8687 45.0212 40.8861C44.9105 40.9035 44.8052 40.9463 44.7138 41.0112C44.6223 41.076 44.5471 41.1611 44.494 41.2599C44.4409 41.3586 44.4114 41.4683 44.4077 41.5803C44.404 41.6924 44.4263 41.8038 44.4728 41.9058C44.5194 42.0078 44.5889 42.0976 44.6759 42.1683C44.6258 42.174 44.5765 42.1848 44.5285 42.2004C44.5113 42.1295 44.4765 42.064 44.4272 42.0102C44.3779 41.9564 44.3157 41.9159 44.2466 41.8925C44.1774 41.8692 44.1035 41.8637 44.0316 41.8766C43.9598 41.8895 43.8924 41.9204 43.8357 41.9664C43.7708 41.8893 43.6897 41.8277 43.5981 41.7858C43.5065 41.744 43.4068 41.7229 43.3062 41.7243C43.2269 41.7246 43.1483 41.738 43.0735 41.7639C43.06 41.7067 43.0351 41.6528 43.0003 41.6054C42.9654 41.5581 42.9214 41.5183 42.8707 41.4885C42.8201 41.4586 42.7639 41.4394 42.7056 41.4319C42.6473 41.4243 42.5881 41.4287 42.5316 41.4447C42.475 41.4607 42.4223 41.488 42.3765 41.5249C42.3308 41.5618 42.293 41.6076 42.2655 41.6596C42.238 41.7115 42.2213 41.7685 42.2163 41.827C42.2114 41.8856 42.2184 41.9446 42.2369 42.0003C42.1404 42.0671 42.0614 42.1563 42.0069 42.2603C41.9524 42.3643 41.9239 42.4799 41.9238 42.5973C41.9238 42.5996 41.9245 42.6016 41.9245 42.6039C41.8213 42.5882 41.7159 42.5996 41.6184 42.6369C41.6049 42.5797 41.5801 42.5258 41.5452 42.4785C41.5104 42.4311 41.4663 42.3914 41.4156 42.3615C41.365 42.3317 41.3088 42.3124 41.2505 42.3049C41.1923 42.2974 41.133 42.3017 41.0765 42.3177C41.0199 42.3337 40.9672 42.361 40.9215 42.3979C40.8757 42.4349 40.838 42.4807 40.8104 42.5326C40.7829 42.5845 40.7662 42.6415 40.7613 42.7001C40.7563 42.7586 40.7634 42.8176 40.7819 42.8734C40.6415 42.9684 40.5389 43.1096 40.4919 43.2724C40.4449 43.4352 40.4565 43.6093 40.5246 43.7645C40.5926 43.9197 40.713 44.0461 40.8646 44.1217C41.0162 44.1974 41.1896 44.2175 41.3545 44.1786C41.3808 44.3304 41.4547 44.4699 41.5656 44.5768C41.6765 44.6837 41.8186 44.7526 41.9713 44.7733C42.1239 44.7941 42.2792 44.7656 42.4146 44.6921C42.55 44.6187 42.6585 44.5039 42.7243 44.3646C43.2484 44.4328 43.7803 44.4088 44.2962 44.2938C44.3443 44.4316 44.4328 44.5517 44.5503 44.6384C44.6678 44.725 44.8087 44.7742 44.9546 44.7795C45.1005 44.7847 45.2446 44.7458 45.368 44.6678C45.4913 44.5898 45.5883 44.4764 45.6462 44.3423C45.7523 44.3402 45.8565 44.3144 45.9514 44.2668C46.0178 44.3842 46.1156 44.4807 46.2339 44.5454C46.3521 44.6102 46.4861 44.6406 46.6208 44.6334C46.7554 44.6261 46.8853 44.5814 46.9959 44.5042C47.1065 44.4271 47.1934 44.3206 47.2468 44.1968C47.4086 44.1661 47.5761 44.1931 47.7201 44.2731C47.8641 44.353 47.9756 44.4808 48.0351 44.6344C48.1325 44.5012 48.2577 44.3908 48.402 44.3109C48.5463 44.231 48.7064 44.1836 48.8709 44.1719C49.0172 44.2126 49.1726 44.2054 49.3144 44.1513C49.4562 44.0971 49.5769 43.9989 49.6588 43.871C49.6131 44.0482 49.6358 44.2361 49.7225 44.3973C49.8092 44.5584 49.9535 44.6809 50.1265 44.7404C50.2996 44.7999 50.4887 44.792 50.6561 44.7182C50.8236 44.6444 50.9571 44.5102 51.03 44.3423C51.1361 44.3402 51.2403 44.3144 51.3352 44.2668C51.4015 44.3842 51.4994 44.4807 51.6177 44.5454C51.7359 44.6102 51.8699 44.6406 52.0045 44.6334C52.1392 44.6261 52.2691 44.5814 52.3797 44.5042C52.4903 44.4271 52.5772 44.3206 52.6305 44.1968C52.7366 44.1947 52.8409 44.1689 52.9357 44.1213C52.9869 44.2125 53.0573 44.2914 53.1421 44.3526C53.2269 44.4138 53.3239 44.4559 53.4266 44.4757C53.5292 44.4956 53.635 44.4929 53.7365 44.4678C53.838 44.4427 53.9328 44.3958 54.0143 44.3304C54.0396 44.4695 54.105 44.5983 54.2026 44.7007C54.3002 44.8031 54.4256 44.8747 54.5634 44.9067C54.7013 44.9387 54.8454 44.9296 54.9781 44.8805C55.1108 44.8315 55.2263 44.7447 55.3102 44.6309C55.3975 44.6978 55.499 44.7439 55.6068 44.7656C55.7147 44.7874 55.8261 44.7843 55.9325 44.7564C56.039 44.7286 56.1377 44.6768 56.221 44.6051C56.3044 44.5333 56.3703 44.4434 56.4137 44.3423C56.4955 44.3505 56.5781 44.3413 56.6562 44.3153C56.7342 44.2894 56.8058 44.2473 56.8665 44.1918C56.9272 44.1363 56.9754 44.0687 57.0082 43.9933C57.0409 43.9178 57.0574 43.8364 57.0566 43.7542C57.0557 43.672 57.0376 43.5909 57.0033 43.5162C56.969 43.4414 56.9193 43.3748 56.8576 43.3206C56.7958 43.2663 56.7233 43.2257 56.6448 43.2014C56.5662 43.177 56.4835 43.1695 56.4018 43.1793L56.4018 43.1793ZM43.3967 42.879C43.3959 42.8825 43.3954 42.8861 43.3946 42.8897C43.3893 42.8895 43.3843 42.8883 43.3789 42.8883C43.3572 42.8889 43.3355 42.8911 43.3141 42.8949C43.3153 42.8922 43.3169 42.8899 43.3181 42.8873C43.3444 42.8859 43.3706 42.8832 43.3967 42.879ZM49.4758 42.6369C49.4737 42.6285 49.4701 42.6207 49.4675 42.6124C49.5786 42.5354 49.6661 42.429 49.7204 42.3052C49.8161 42.3047 49.9106 42.2841 49.9978 42.2446C50.0849 42.2051 50.1628 42.1477 50.2263 42.0761C50.2207 42.104 50.2179 42.1324 50.2178 42.1608C50.2184 42.2052 50.2258 42.2492 50.2399 42.2914C50.1149 42.3785 50.0204 42.5024 49.9694 42.646C49.8112 42.5844 49.6362 42.5812 49.4758 42.6369V42.6369ZM53.8338 42.6912C53.8335 42.6823 53.8346 42.6731 53.834 42.6642C53.8526 42.6641 53.8711 42.6629 53.8895 42.6605C53.9177 42.7546 53.9649 42.842 54.0281 42.9172C54.0144 42.9211 53.9999 42.9234 53.9865 42.9279C53.963 42.8344 53.9094 42.7512 53.8338 42.6912Z" fill="#F9A825"/>
<path d="M41.3525 44.0524C41.1461 44.0524 40.9419 44.0944 40.7523 44.1759C40.5627 44.2574 40.3916 44.3768 40.2497 44.5266C40.1077 44.6764 39.9977 44.8535 39.9265 45.0472C39.8553 45.2409 39.8242 45.4471 39.8353 45.6532L40.8206 59.2022C40.8414 59.5905 41.0103 59.9561 41.2926 60.2236C41.5748 60.4912 41.9489 60.6403 42.3378 60.6402H55.0421C55.431 60.6403 55.8051 60.4912 56.0874 60.2236C56.3696 59.9561 56.5385 59.5905 56.5593 59.2022L57.5446 45.6532C57.5557 45.4471 57.5247 45.2409 57.4534 45.0472C57.3822 44.8535 57.2722 44.6764 57.1303 44.5266C56.9883 44.3768 56.8173 44.2574 56.6277 44.1759C56.4381 44.0944 56.2338 44.0524 56.0274 44.0524H41.3525Z" fill="#3F3D56"/>
<path d="M42.9424 44.0524H42.0693V60.6402H42.9424V44.0524Z" fill="#D12421"/>
<path d="M45.416 44.0524H44.543V60.6402H45.416V44.0524Z" fill="#D12421"/>
<path d="M47.8896 44.0524H47.0166V60.6402H47.8896V44.0524Z" fill="#D12421"/>
<path d="M50.3633 44.0524H49.4902V60.6402H50.3633V44.0524Z" fill="#D12421"/>
<path d="M52.8369 44.0524H51.9639V60.6402H52.8369V44.0524Z" fill="#D12421"/>
<path d="M55.3105 44.0524H54.4375V60.6402H55.3105V44.0524Z" fill="#D12421"/>
<path d="M54.4354 52.2745L51.6072 53.9242C51.6072 53.9242 44.7725 59.5806 49.4861 60.5233C54.1997 61.466 55.3782 56.5167 55.3782 56.5167L57.0279 54.6313L54.4354 52.2745Z" fill="#FFB8B8"/>
<path d="M41.0017 51.0962L43.8299 52.746C43.8299 52.746 50.6646 58.4023 45.951 59.345C41.2374 60.2878 40.0589 55.3385 40.0589 55.3385L38.4092 53.453L41.0017 51.0962Z" fill="#FFB8B8"/>
<path d="M58.2062 28.7065L61.2701 28.9422C61.2701 28.9422 63.6269 31.0634 63.3912 33.8915C63.3912 33.8915 65.5124 40.0192 65.041 42.6117C65.041 42.6117 65.5124 46.854 64.8053 48.5038C64.0983 50.1535 58.2062 56.5169 58.2062 56.5169C58.2062 56.5169 52.7856 52.2747 53.0213 52.039L60.0917 44.9685L56.5565 40.2549L58.2062 28.7065Z" fill="#E6E6E6"/>
<path d="M38.1734 27.0566L38.0555 27.1745C38.0555 27.1745 32.7527 29.4135 32.9884 32.2416C32.9884 32.2416 30.8672 38.3693 31.3386 40.9618C31.3386 40.9618 30.8672 45.2041 31.5743 46.8539C32.2813 48.5036 38.1734 54.867 38.1734 54.867C38.1734 54.867 43.594 50.6248 43.3583 50.3891L36.2879 43.3186L39.8231 38.605L38.1734 27.0566Z" fill="#E6E6E6"/>
</g>
<defs>
<clipPath id="clip0">
<rect width="104.732" height="100" fill="white" transform="translate(0.924316)"/>
</clipPath>
</defs>
</svg>
