<svg width="100" height="100" viewBox="0 0 100 100" fill="none" xmlns="http://www.w3.org/2000/svg">
<path d="M57.142 14.2861H28.5706C26.6762 14.2861 24.8594 15.0387 23.5198 16.3782C22.1803 17.7178 21.4277 19.5346 21.4277 21.429V78.5719C21.4277 80.4663 22.1803 82.2831 23.5198 83.6226C24.8594 84.9622 26.6762 85.7147 28.5706 85.7147H71.4277C73.3221 85.7147 75.1389 84.9622 76.4785 83.6226C77.818 82.2831 78.5706 80.4663 78.5706 78.5719V35.7147M57.142 14.2861L78.5706 35.7147M57.142 14.2861V35.7147H78.5706M64.2849 53.5718H35.7134M64.2849 67.8576H35.7134M42.8563 39.2861H35.7134" stroke="#D12421" stroke-width="2" stroke-linecap="round" stroke-linejoin="round"/>
</svg>
