<svg width="130" height="50" viewBox="0 0 130 50" fill="none" xmlns="http://www.w3.org/2000/svg">
<rect width="130" height="50" fill="white"/>
<path d="M14.8052 41.6803C12.4555 41.6803 10.3889 41.1849 8.60537 40.1941C6.82184 39.2032 5.43465 37.816 4.44381 36.0325C3.48127 34.2207 3 32.1399 3 29.7902V12.8467H9.19988V29.3231C9.19988 31.418 9.6953 33.0883 10.6861 34.3339C11.7053 35.5512 13.0783 36.1599 14.8052 36.1599C16.5321 36.1599 17.9052 35.5512 18.9243 34.3339C19.9435 33.0883 20.4531 31.418 20.4531 29.3231V12.8467H26.6105V29.7902C26.6105 32.1399 26.1151 34.2207 25.1242 36.0325C24.1617 37.816 22.7886 39.2032 21.0051 40.1941C19.2216 41.1849 17.155 41.6803 14.8052 41.6803Z" fill="#D12421"/>
<path d="M39.1648 7.98071V31.2527H33.175V7.98071H25.5107V3H46.8291V7.98071H39.1648Z" fill="#D12421"/>
<path d="M60.9736 18.0066C60.9593 16.561 60.5871 15.4375 59.8572 14.636C59.1273 13.8345 58.1325 13.4337 56.8731 13.4337C55.6279 13.4337 54.6475 13.8345 53.9319 14.636C53.2162 15.4232 52.8083 16.5467 52.7082 18.0066H60.9736ZM65.2888 30.1148C63.2564 31.131 60.7231 31.6391 57.6889 31.6391C54.211 31.6391 51.4916 30.6873 49.5308 28.7838C47.5843 26.8659 46.6111 24.1179 46.6111 20.5398C46.6111 16.9617 47.5127 14.1851 49.3161 12.21C51.1481 10.2349 53.617 9.24736 56.7228 9.24736C59.8429 9.24736 62.2545 10.1204 63.9577 11.8665C65.6609 13.6126 66.5125 16.01 66.5125 19.0585V21.9138H52.5793C52.6366 23.6027 53.1304 24.9194 54.0607 25.8641C55.0053 26.7944 56.3077 27.2595 57.968 27.2595C60.444 27.2595 62.8843 26.6942 65.2888 25.5635V30.1148Z" fill="#D12421"/>
<path d="M89.1499 31.2527H85.028L83.8901 28.3115H83.7398C82.738 29.571 81.7146 30.444 80.6698 30.9307C79.625 31.403 78.2582 31.6391 76.5693 31.6391C74.4797 31.6391 72.8409 31.0452 71.653 29.8572C70.4651 28.655 69.8711 26.9446 69.8711 24.7262C69.8711 22.5078 70.6583 20.8476 72.2327 19.7455C73.8213 18.6435 76.2545 18.0352 79.532 17.9207L83.289 17.8133V16.8687C83.289 14.6789 82.1655 13.584 79.9184 13.584C78.2153 13.584 76.19 14.0993 73.8428 15.1298L71.8892 11.1581C74.3652 9.85564 77.0917 9.20442 80.0687 9.20442C83.06 9.20442 85.3214 9.84848 86.8528 11.1366C88.3842 12.4104 89.1499 14.3211 89.1499 16.8687V31.2527ZM83.289 23.0302V21.2483L81.0133 21.3127C79.2815 21.37 78.0006 21.6848 77.1705 22.2573C76.3403 22.8155 75.9253 23.6743 75.9253 24.8336C75.9253 26.4938 76.877 27.3239 78.7806 27.3239C80.1546 27.3239 81.2495 26.9375 82.0653 26.1646C82.8811 25.3774 83.289 24.3326 83.289 23.0302Z" fill="#D12421"/>
<path d="M114.539 20.411V31.2527H108.635V18.6291C108.635 17.0548 108.371 15.8883 107.841 15.1298C107.311 14.3569 106.496 13.9705 105.394 13.9705C103.891 13.9705 102.796 14.5215 102.109 15.6235C101.422 16.7113 101.078 18.5361 101.078 21.098V31.2527H95.196V9.65527H99.7044L100.499 12.4247H100.821C101.393 11.4228 102.223 10.6428 103.311 10.0846C104.413 9.52645 105.673 9.24736 107.09 9.24736C110.339 9.24736 112.528 10.3065 113.659 12.4247H114.196C114.754 11.4085 115.598 10.6285 116.729 10.0846C117.86 9.52645 119.141 9.24736 120.572 9.24736C123.062 9.24736 124.923 9.88426 126.154 11.1581C127.385 12.4319 128 14.4356 128 17.1693V31.2527H122.096V18.6291C122.096 17.0548 121.831 15.8883 121.302 15.1298C120.772 14.3569 119.956 13.9705 118.854 13.9705C117.395 13.9705 116.307 14.4929 115.591 15.5377C114.89 16.5682 114.539 18.1926 114.539 20.411Z" fill="#D12421"/>
<path d="M39.5672 38.0939L39.4311 39.0045H37.1425V44.2859H35.9549V39.0045H33.6044V38.0939H39.5672Z" fill="#D12421"/>
<path d="M43.8613 37.947C44.6778 37.947 45.3314 38.088 45.8222 38.37C46.3129 38.6481 46.5582 39.0475 46.5582 39.5684C46.5582 39.8935 46.4593 40.1716 46.2613 40.4027C46.0634 40.6337 45.7211 40.8061 45.2345 40.9197C46.3397 41.0293 46.8923 41.5404 46.8923 42.453C46.8923 42.8877 46.7644 43.2402 46.5088 43.5104C46.2572 43.7807 45.9191 43.9785 45.4943 44.1038C45.0737 44.2252 44.6098 44.2859 44.1026 44.2859H41.5665V38.1702C41.9294 38.1076 42.3005 38.0547 42.6799 38.0116C43.0593 37.9685 43.4531 37.947 43.8613 37.947ZM43.8675 38.7988C43.6407 38.7988 43.4428 38.8047 43.2737 38.8165C43.1088 38.8282 42.9356 38.8458 42.7541 38.8693V40.6024H44.016C44.4242 40.6024 44.7479 40.5358 44.9871 40.4027C45.2304 40.2695 45.3521 40.0306 45.3521 39.6859C45.3521 39.3648 45.2283 39.1376 44.9809 39.0045C44.7376 38.8674 44.3665 38.7988 43.8675 38.7988ZM42.7541 43.4164H44.0778C45.1211 43.4164 45.6428 43.0875 45.6428 42.4295C45.6428 42.1514 45.5665 41.9399 45.4139 41.795C45.2655 41.6462 45.0716 41.5443 44.8325 41.4895C44.5974 41.4347 44.35 41.4073 44.0902 41.4073H42.7541V43.4164Z" fill="#D12421"/>
<path d="M51.3967 37.947C52.3286 37.947 53.0359 38.2407 53.5183 38.8282C54.0049 39.4157 54.2482 40.201 54.2482 41.184C54.2482 41.8224 54.1369 42.3864 53.9142 42.876C53.6956 43.3655 53.374 43.7474 52.9493 44.0216C52.5245 44.2957 52.0029 44.4328 51.3843 44.4328C50.4524 44.4328 49.741 44.139 49.2503 43.5516C48.7637 42.9641 48.5204 42.1788 48.5204 41.1958C48.5204 40.5535 48.6297 39.9895 48.8482 39.5038C49.0709 39.0143 49.3946 38.6324 49.8194 38.3582C50.2482 38.0841 50.774 37.947 51.3967 37.947ZM51.3967 38.8458C50.8606 38.8458 50.4565 39.0378 50.1843 39.4216C49.9122 39.8015 49.7761 40.3929 49.7761 41.1958C49.7761 41.9908 49.9101 42.5803 50.1781 42.9641C50.4462 43.344 50.8482 43.5339 51.3843 43.5339C51.9204 43.5339 52.3225 43.344 52.5905 42.9641C52.8585 42.5803 52.9926 41.9869 52.9926 41.184C52.9926 40.385 52.8585 39.7956 52.5905 39.4157C52.3225 39.0358 51.9245 38.8458 51.3967 38.8458Z" fill="#D12421"/>
<path d="M55.6722 44.2859L57.2372 41.6716C56.4702 41.3309 56.0867 40.7708 56.0867 39.9914C56.0867 39.3765 56.3197 38.9065 56.7856 38.5815C57.2557 38.2564 57.9114 38.0939 58.7526 38.0939H61.1774V44.2859H59.9897V41.9242H58.3691L56.9959 44.2859H55.6722ZM58.7093 41.0841H59.9897V38.9457H58.7279C58.2702 38.9457 57.9238 39.0299 57.6887 39.1983C57.4537 39.3628 57.3362 39.6272 57.3362 39.9914C57.3362 40.3753 57.4434 40.6533 57.6578 40.8257C57.8764 40.998 58.2269 41.0841 58.7093 41.0841Z" fill="#D12421"/>
<path d="M71.1635 44.2859V38.0939H72.3512V40.573H73.5945L75.4006 38.0939H76.6872L74.5594 40.9608L77.0027 44.2859H75.6109L73.5697 41.4425H72.3512V44.2859H71.1635Z" fill="#D12421"/>
<path d="M81.0679 37.947C81.9999 37.947 82.7071 38.2407 83.1896 38.8282C83.6762 39.4157 83.9195 40.201 83.9195 41.184C83.9195 41.8224 83.8081 42.3864 83.5855 42.876C83.3669 43.3655 83.0452 43.7474 82.6205 44.0216C82.1958 44.2957 81.6741 44.4328 81.0556 44.4328C80.1236 44.4328 79.4123 44.139 78.9216 43.5516C78.435 42.9641 78.1917 42.1788 78.1917 41.1958C78.1917 40.5535 78.3009 39.9895 78.5195 39.5038C78.7422 39.0143 79.0659 38.6324 79.4906 38.3582C79.9195 38.0841 80.4453 37.947 81.0679 37.947ZM81.0679 38.8458C80.5319 38.8458 80.1277 39.0378 79.8556 39.4216C79.5834 39.8015 79.4473 40.3929 79.4473 41.1958C79.4473 41.9908 79.5813 42.5803 79.8494 42.9641C80.1174 43.344 80.5195 43.5339 81.0556 43.5339C81.5916 43.5339 81.9937 43.344 82.2617 42.9641C82.5298 42.5803 82.6638 41.9869 82.6638 41.184C82.6638 40.385 82.5298 39.7956 82.2617 39.4157C81.9937 39.0358 81.5958 38.8458 81.0679 38.8458Z" fill="#D12421"/>
<path d="M91.2383 38.0939L91.7022 44.2859H90.5888L90.36 41.4073C90.3352 41.0626 90.3187 40.7101 90.3105 40.3498C90.3022 39.9895 90.3043 39.6017 90.3167 39.1866H90.2672L89.0424 43.252H87.9414L86.5806 39.1866H86.5311C86.5517 39.5352 86.5579 39.9053 86.5497 40.2969C86.5456 40.6847 86.5332 41.0528 86.5126 41.4014L86.3456 44.2859H85.2445L85.6961 38.0939H87.1868L88.5105 42.2532L89.7229 38.0939H91.2383Z" fill="#D12421"/>
<path d="M98.1675 42.8642C98.1675 43.111 98.2087 43.2911 98.2912 43.4047C98.3737 43.5144 98.5035 43.5966 98.6809 43.6514L98.4025 44.4269C98.1056 44.3917 97.8458 44.3075 97.6231 44.1743C97.4046 44.0411 97.2438 43.8375 97.1407 43.5633C96.9056 43.8531 96.6087 44.0705 96.25 44.2154C95.8912 44.3603 95.5015 44.4328 95.0809 44.4328C94.4252 44.4328 93.9077 44.2565 93.5283 43.9041C93.1489 43.5516 92.9592 43.0875 92.9592 42.5117C92.9592 41.8694 93.2232 41.3759 93.751 41.0313C94.2829 40.6827 95.0458 40.5084 96.0396 40.5084H96.986V40.0384C96.986 39.6115 96.852 39.308 96.584 39.1278C96.3201 38.9477 95.951 38.8576 95.4768 38.8576C95.2582 38.8576 95.0005 38.8831 94.7036 38.934C94.4108 38.9849 94.0974 39.0652 93.7634 39.1748L93.4603 38.3524C93.8603 38.2074 94.2458 38.1037 94.617 38.041C94.9881 37.9783 95.3345 37.947 95.6561 37.947C96.4932 37.947 97.12 38.1291 97.5365 38.4934C97.9572 38.8576 98.1675 39.353 98.1675 39.9797V42.8642ZM95.4149 43.5868C95.7159 43.5868 96.0067 43.5124 96.2871 43.3636C96.5716 43.2147 96.8046 43.0072 96.986 42.7408V41.2428H96.1201C95.4314 41.2428 94.9427 41.3544 94.6541 41.5776C94.3654 41.797 94.2211 42.0985 94.2211 42.4824C94.2211 43.2187 94.619 43.5868 95.4149 43.5868Z" fill="#D12421"/>
<path d="M104.651 44.2859V41.5718H101.967V44.2859H100.779V38.0939H101.967V40.6729H104.651V38.0939H105.839V44.2859H104.651Z" fill="#D12421"/>
<path d="M107.312 43.3871H107.764C107.95 43.2304 108.106 43.0365 108.234 42.8055C108.362 42.5705 108.467 42.2415 108.55 41.8185C108.632 41.3916 108.7 40.8159 108.754 40.0913L108.908 38.0939H113.207V43.3871H113.708V46.066H112.749L112.558 44.2859H108.463L108.271 46.066H107.312V43.3871ZM112.026 38.9751H109.972L109.904 40.0208C109.863 40.577 109.815 41.043 109.762 41.419C109.708 41.795 109.638 42.1064 109.552 42.3531C109.469 42.5959 109.364 42.7976 109.236 42.9582C109.108 43.1188 108.954 43.2617 108.772 43.3871H112.026V38.9751Z" fill="#D12421"/>
<path d="M120.421 42.8642C120.421 43.111 120.462 43.2911 120.545 43.4047C120.627 43.5144 120.757 43.5966 120.934 43.6514L120.656 44.4269C120.359 44.3917 120.099 44.3075 119.877 44.1743C119.658 44.0411 119.497 43.8375 119.394 43.5633C119.159 43.8531 118.862 44.0705 118.503 44.2154C118.145 44.3603 117.755 44.4328 117.334 44.4328C116.679 44.4328 116.161 44.2565 115.782 43.9041C115.402 43.5516 115.213 43.0875 115.213 42.5117C115.213 41.8694 115.477 41.3759 116.004 41.0313C116.536 40.6827 117.299 40.5084 118.293 40.5084H119.239V40.0384C119.239 39.6115 119.105 39.308 118.837 39.1278C118.573 38.9477 118.204 38.8576 117.73 38.8576C117.512 38.8576 117.254 38.8831 116.957 38.934C116.664 38.9849 116.351 39.0652 116.017 39.1748L115.714 38.3524C116.114 38.2074 116.499 38.1037 116.87 38.041C117.242 37.9783 117.588 37.947 117.91 37.947C118.747 37.947 119.373 38.1291 119.79 38.4934C120.211 38.8576 120.421 39.353 120.421 39.9797V42.8642ZM117.668 43.5868C117.969 43.5868 118.26 43.5124 118.54 43.3636C118.825 43.2147 119.058 43.0072 119.239 42.7408V41.2428H118.373C117.685 41.2428 117.196 41.3544 116.908 41.5776C116.619 41.797 116.475 42.0985 116.475 42.4824C116.475 43.2187 116.872 43.5868 117.668 43.5868Z" fill="#D12421"/>
<path d="M126.193 36.1904L126.063 41.5659H125.024L124.882 36.1904H126.193ZM125.55 42.7702C125.802 42.7702 126.012 42.8505 126.181 43.0111C126.35 43.1717 126.435 43.3655 126.435 43.5927C126.435 43.8238 126.35 44.0216 126.181 44.186C126.012 44.3505 125.802 44.4328 125.55 44.4328C125.307 44.4328 125.101 44.3505 124.932 44.186C124.767 44.0216 124.684 43.8238 124.684 43.5927C124.684 43.3655 124.767 43.1717 124.932 43.0111C125.101 42.8505 125.307 42.7702 125.55 42.7702Z" fill="#D12421"/>
</svg>
