<svg width="18" height="18" viewBox="0 0 18 18" fill="none" xmlns="http://www.w3.org/2000/svg">
<path d="M17.3465 0.865206L13.6902 0.0214735C13.293 -0.0699309 12.8851 0.137487 12.7234 0.510135L11.0359 4.44755C10.8883 4.79208 10.9867 5.19636 11.2785 5.43191L13.409 7.17562C12.1433 9.87205 9.93202 12.115 7.17928 13.4052L5.43553 11.2748C5.19647 10.983 4.79568 10.8845 4.45115 11.0322L0.513648 12.7196C0.137476 12.8849 -0.0699464 13.2927 0.02146 13.6899L0.865211 17.3461C0.953102 17.7258 1.2906 18 1.68787 18C10.6914 18 18.0004 10.7052 18.0004 1.68784C18.0004 1.2941 17.7297 0.953094 17.3465 0.865206Z" fill="#5BA200"/>
</svg>
