<svg width="341" height="90" viewBox="0 0 341 90" fill="none" xmlns="http://www.w3.org/2000/svg">
<path fill-rule="evenodd" clip-rule="evenodd" d="M26.9524 74.2403L4.2959 74.2149L4.32133 51.5583L26.9779 51.5838L26.9524 74.2403Z" fill="#333333"/>
<path fill-rule="evenodd" clip-rule="evenodd" d="M81.7354 75.1656H71.6045V39.87H108.051V75.1656H97.9256V46.7217H81.7354V75.1656ZM112.958 48.8641V83.8115H122.282V71.8532C125.407 75.193 130.5 75.4474 131.732 75.4474C140.627 75.4474 146.083 69.8576 146.083 61.7204C146.083 53.2546 140.687 47.9054 131.912 47.9054C129.705 47.9054 125.407 48.2576 121.858 51.9359H121.664L121.733 48.8641H112.958ZM121.86 61.6265C121.86 54.4656 126.33 53.0628 129.148 53.0628C131.912 53.0628 136.391 54.4656 136.391 61.6265C136.391 66.0619 134.495 70.3017 129.148 70.3017C123.691 70.3017 121.858 66.0619 121.858 61.6265H121.86ZM169.213 71.4091C165.778 74.5943 162.461 75.4474 158.785 75.4474C148.727 75.4474 148.349 67.9832 148.349 64.9096V48.8641H157.678V63.6985C157.678 68.7874 159.464 70.3037 162.896 70.3037C168.789 70.3037 169.213 65.1033 169.213 63.2348V48.8641H178.53V74.4828H169.213V71.4091ZM191.905 63.6985H197.612C202.028 63.6985 202.954 64.9976 202.954 66.7154C202.954 67.8306 202.339 69.3372 197.738 69.3372H191.907V63.6985H191.905ZM182.588 48.8641V74.4848H201.107C207.861 74.4848 212.521 73.1739 212.521 67.9441C212.521 63.898 210.248 62.1293 205.094 61.2274V61.0728C208.465 60.6228 211.414 58.543 211.414 55.0683C211.414 48.8661 204.049 48.8661 201.173 48.8661H182.588V48.8641ZM191.905 54.0098H196.935C199.581 54.0098 201.844 54.4109 201.844 56.5317C201.844 58.8502 198.289 58.905 196.757 58.905H191.905V54.0078V54.0098ZM224.305 57.1383C224.305 53.3543 228.339 53.0628 230.003 53.0628C231.049 53.0628 234.917 53.1117 235.031 56.4398V57.1383C234.851 59.6661 232.399 59.1476 225.526 60.0143C219.876 60.7676 213.938 62.1841 213.938 68.0322C213.938 70.153 214.849 75.4474 224.79 75.4474C228.596 75.4474 232.763 74.4848 235.219 71.9589H235.404L236.199 74.4828H246.007V74.0387C244.234 73.6787 244.121 71.9589 244.178 69.1963L244.361 57.4904C244.42 54.5165 244.121 47.9054 230.061 47.9054C226.696 47.9054 215.833 48.2087 215.405 57.1383H224.305ZM235.099 63.8961C235.099 69.0417 230.56 70.3037 228.279 70.3037C226.577 70.3037 223.503 69.7461 223.503 67.3219C223.503 64.4478 226.997 63.898 228.964 63.6496C232.581 63.137 232.278 63.2837 235.099 62.278V63.8961ZM245.402 54.0078V48.8622H275.341V54.0078H265.038V74.4848H255.705V54.0078H245.402Z" fill="#74B027"/>
<path fill-rule="evenodd" clip-rule="evenodd" d="M3.91309 74.5827H27.2759V51.5349H3.91309V74.5827Z" fill="#363636"/>
<path fill-rule="evenodd" clip-rule="evenodd" d="M51.2981 27.8335V62.4013H46.5437C44.4816 45.3092 33.5935 34.5718 16.2627 32.535V27.8335H51.3H51.2981ZM3.91309 15.6522V44.327H10.0898C26.3387 44.327 34.5855 52.4564 34.5855 68.49V74.5807H63.6516V15.6522H3.91309Z" fill="#74B027"/>
<path d="M299.139 65.6595V71.5219H277.015C277.254 69.3057 277.973 67.2094 279.171 65.2328C280.369 63.2413 282.735 60.6058 286.269 57.3265C289.114 54.6761 290.858 52.8793 291.502 51.9359C292.37 50.6332 292.805 49.3454 292.805 48.0726C292.805 46.6651 292.423 45.587 291.659 44.8383C290.91 44.0746 289.87 43.6927 288.537 43.6927C287.219 43.6927 286.171 44.0896 285.393 44.8832C284.614 45.6768 284.165 46.9945 284.045 48.8363L277.756 48.2074C278.13 44.7334 279.306 42.2403 281.282 40.7279C283.259 39.2155 285.729 38.4594 288.694 38.4594C291.944 38.4594 294.497 39.3353 296.354 41.0873C298.21 42.8392 299.139 45.0179 299.139 47.6234C299.139 49.1058 298.869 50.5209 298.33 51.8685C297.806 53.2012 296.967 54.6013 295.814 56.0687C295.051 57.042 293.673 58.4421 291.682 60.2689C289.69 62.0957 288.425 63.3086 287.886 63.9076C287.362 64.5066 286.935 65.0905 286.605 65.6595H299.139Z" fill="#363636"/>
<path d="M315.805 71.5219V64.8959H302.328V59.3705L316.613 38.4594H321.914V59.348H326.002V64.8959H321.914V71.5219H315.805ZM315.805 59.348V48.0951L308.235 59.348H315.805Z" fill="#363636"/>
</svg>
