<svg width="307" height="80" viewBox="0 0 307 80" fill="none" xmlns="http://www.w3.org/2000/svg">
<path d="M40.2503 71.1408C33.0994 71.1408 26.0992 68.6455 20.5057 64.1239C14.8285 59.552 10.9097 53.0877 9.4695 45.9367C6.01964 28.9386 17.0558 12.3257 34.0372 8.87579C36.1138 8.45712 38.2239 8.23941 40.3173 8.23941C47.4682 8.23941 54.4684 10.7347 60.0618 15.2564C65.7223 19.8283 69.6411 26.2926 71.0813 33.4435C74.5144 50.4249 63.495 67.0546 46.5136 70.4877C44.437 70.9231 42.3269 71.1408 40.2503 71.1408Z" fill="white"/>
<path d="M40.3173 8.59111C47.3845 8.59111 54.3177 11.0529 59.8609 15.5243C62.6074 17.7517 64.952 20.3977 66.7941 23.3954C68.7033 26.4936 70.043 29.9099 70.7799 33.5105C71.6172 37.6303 71.6172 41.7835 70.7799 45.853C69.976 49.7885 68.4353 53.5063 66.208 56.8725C63.9806 60.2386 61.1672 63.1023 57.8345 65.3632C54.4014 67.7077 50.5664 69.3322 46.4634 70.1528C44.4203 70.5715 42.3269 70.7724 40.2503 70.7724C33.1831 70.7724 26.2499 68.3106 20.7067 63.8392C17.9602 61.6119 15.6156 58.9658 13.7735 55.9681C11.8643 52.87 10.5246 49.4536 9.78773 45.853C8.95038 41.7333 8.95038 37.58 9.78773 33.5105C10.5916 29.575 12.1323 25.8572 14.3596 22.4911C16.587 19.1249 19.4004 16.2612 22.7331 14.0004C26.1662 11.6558 30.0012 10.0313 34.1042 9.21075C36.1473 8.79207 38.2407 8.59111 40.3173 8.59111ZM40.3173 7.92123C38.2239 7.92123 36.1138 8.1222 33.9702 8.55762C16.7712 12.041 5.65125 28.8046 9.1346 46.0037C12.1825 61.076 25.4293 71.4758 40.2336 71.4758C42.3269 71.4758 44.437 71.2748 46.5806 70.8394C63.7797 67.356 74.8996 50.5756 71.4163 33.3933C68.3683 18.3211 55.1048 7.92123 40.3173 7.92123Z" fill="white"/>
<path d="M40.3173 7.92124C55.1215 7.92124 68.3683 18.3211 71.4162 33.3933C74.8996 50.5924 63.7797 67.3561 46.5806 70.8394C44.4538 71.2748 42.3269 71.4758 40.2335 71.4758C25.4293 71.4758 12.1825 61.076 9.13456 46.0037C5.65121 28.8047 16.7711 12.041 33.9702 8.55763C36.0971 8.12221 38.2239 7.92124 40.3173 7.92124ZM40.3173 6.24655V7.92124V6.24655C38.0899 6.24655 35.8459 6.46426 33.652 6.91643C29.2308 7.82076 25.1111 9.54569 21.41 12.0745C17.8429 14.5195 14.8118 17.5842 12.4169 21.2015C10.0221 24.8189 8.3642 28.8046 7.51011 33.0416C6.62253 37.4293 6.62253 41.9007 7.51011 46.3219C8.29721 50.2072 9.73745 53.858 11.7973 57.2074C13.7902 60.4396 16.2855 63.2866 19.2497 65.6814C25.1948 70.4877 32.6639 73.1337 40.267 73.1337C42.4944 73.1337 44.7385 72.916 46.9323 72.4639C51.3535 71.5595 55.4732 69.8346 59.1743 67.3058C62.7414 64.8608 65.7725 61.7961 68.1674 58.1787C70.5622 54.5614 72.2201 50.5756 73.0742 46.3387C73.9618 41.951 73.9618 37.4796 73.0742 33.0584C72.2871 29.1731 70.8469 25.5223 68.787 22.1729C66.7941 18.9407 64.2988 16.0937 61.3346 13.6989C55.3727 8.89257 47.9204 6.24655 40.3173 6.24655Z" fill="#633D75"/>
<path d="M39.5469 48.9847L39.7144 43.7094V41.2811C39.8651 38.8528 37.0851 37.2786 35.1425 37.9485C33.719 38.4509 32.8984 39.4222 32.4462 40.9294C31.8266 38.9198 30.6711 37.6303 28.5442 37.6638C26.6183 37.6805 25.4963 38.8193 24.8767 40.5945C23.5536 37.1111 20.087 36.3408 17.4913 39.4222C18.1611 33.3933 20.6397 28.3692 25.1279 24.4002C29.0634 20.9001 33.7023 19.0077 38.9775 18.7063C39.8316 18.656 40.0996 18.2039 40.1163 17.467C40.1498 16.1105 40.1331 14.7372 40.2168 13.3807C40.2336 13.0123 40.5015 12.6439 40.669 12.2755C40.8029 12.6774 41.0207 13.0626 41.0374 13.4645C41.0541 14.754 40.9872 16.0435 40.9872 17.333C40.9872 18.1704 41.2384 18.7063 42.2767 18.7733C52.3416 19.4599 61.1002 27.3812 62.7749 37.3456C63.0261 38.8193 63.1098 40.3265 63.1266 41.884C62.4567 39.6734 61.2676 38.1159 58.7724 38.2667C56.8967 38.3839 55.8417 39.5897 55.289 41.3481C54.4852 39.1208 53.3464 38.1327 51.5545 38.0992C49.7625 38.0657 48.5568 38.9868 47.7362 40.9462C47.284 40.293 46.9156 39.4892 46.3127 38.9198C44.7385 37.3791 42.0925 37.6805 40.8364 39.4557C40.6355 39.7571 40.535 40.1758 40.5182 40.5442C40.3675 47.2932 40.468 48.7837 40.3508 55.5327C40.3173 58.028 40.4345 60.5401 40.3843 63.0353C40.3675 64.4923 39.5637 65.5474 38.2072 66.0665C36.8004 66.6192 35.4942 66.3177 34.4559 65.2459C33.4343 64.2076 33.2166 62.9181 33.7525 61.5784C33.8865 61.2602 34.4056 60.8582 34.6736 60.9085C35.2932 61.0257 35.3435 61.5114 35.0588 62.0808C34.6233 62.9349 34.8578 63.8057 35.5612 64.2914C36.1138 64.6598 36.9679 64.8608 37.621 64.7435C38.4751 64.5928 38.9943 63.8392 39.0278 62.9181C39.0948 61.2602 39.1617 57.961 39.1617 57.961L39.2622 55.181L39.5469 48.9847Z" fill="#633E76"/>
<path d="M85.6008 17.5675H109.03V44.3625H103.855V22.3068H90.7254V44.3625H85.6008V17.5675Z" fill="#633E76"/>
<path d="M111.609 44.3625L123.097 17.5675H127.267L138.755 44.3625H133.363L131.253 39.3049H119.111L117.001 44.3625H111.609ZM121.104 34.5991H129.26L125.19 24.8691L121.104 34.5991Z" fill="#633E76"/>
<path d="M141.318 17.5675H153.342C158.634 17.5675 162.603 21.3188 162.603 26.2256C162.603 31.166 158.617 34.9173 153.342 34.9173H146.442V44.3793H141.318V17.5675ZM146.442 22.3069V30.1612H153.342C155.569 30.1612 157.244 28.4697 157.244 26.2256C157.244 23.9983 155.553 22.3236 153.342 22.3236H146.442V22.3069Z" fill="#633E76"/>
<path d="M160.912 44.3625L172.4 17.5675H176.57L188.058 44.3625H182.666L180.556 39.3049H168.414L166.304 44.3625H160.912ZM170.407 34.5991H178.563L174.51 24.8691L170.407 34.5991Z" fill="#633E76"/>
<path d="M203.03 16.9814C208.657 16.9814 213.329 20.0125 215.557 24.5175L210.583 26.3931C209.126 23.6801 206.363 21.9049 203.047 21.9049C198.14 21.9049 194.439 25.807 194.439 30.9483C194.439 36.0896 198.157 39.9414 203.047 39.9414C206.379 39.9414 209.143 38.2164 210.583 35.5034L215.557 37.3791C213.329 41.9008 208.657 44.9152 203.03 44.9152C195.058 44.9152 189.046 38.9031 189.046 30.9315C189.063 22.9935 195.075 16.9814 203.03 16.9814Z" fill="#633E76"/>
<path d="M231.952 16.9814C239.957 16.9814 245.969 22.9935 245.969 30.965C245.969 38.9366 239.957 44.9487 231.952 44.9487C223.981 44.9487 217.968 38.9366 217.968 30.965C217.968 22.9935 223.981 16.9814 231.952 16.9814ZM231.952 39.9581C236.892 39.9581 240.61 36.0896 240.61 30.965C240.61 25.8405 236.892 21.9217 231.952 21.9217C227.045 21.9217 223.344 25.8237 223.344 30.965C223.344 36.1063 227.045 39.9581 231.952 39.9581Z" fill="#633E76"/>
<path d="M248.146 39.6231C250.323 39.6231 251.931 37.9819 251.931 30.5798V17.5675H271.726V44.3625H266.551V22.3068H257.055V30.5798C257.055 40.6949 253.22 44.3625 248.129 44.3625H246.974V39.6064H248.146V39.6231Z" fill="#633E76"/>
<path d="M275.41 44.3625L281.456 34.1804C278.123 32.9244 275.946 29.8932 275.946 26.2089C275.946 21.2685 279.898 17.5507 285.174 17.5507H297.583V44.3458H292.408V34.8503H286.815L281.154 44.3458H275.41V44.3625ZM285.174 30.1276H292.408V22.3236H285.174C282.946 22.3236 281.272 24.015 281.272 26.2256C281.272 28.4362 282.946 30.1276 285.174 30.1276Z" fill="#633E76"/>
<path d="M85.5673 51.8484H92.5006V53.0877H86.9071V55.8844H90.089C91.9814 55.8844 93.4217 57.2409 93.4217 59.0663C93.4217 60.8917 91.9814 62.2482 90.089 62.2482H85.5673V51.8484ZM90.089 60.9922C91.1943 60.9922 92.0484 60.1549 92.0484 59.0663C92.0484 57.961 91.2111 57.1404 90.089 57.1404H86.9071V60.9922H90.089Z" fill="#633E76"/>
<path d="M95.9672 51.8484L99.6347 58.2625L102.683 51.8484H104.123L100.321 59.8367C99.5677 61.4276 98.4792 62.2482 97.1395 62.2482H96.0677V61.009H97.039C97.7926 61.009 98.429 60.5568 98.9481 59.6525L94.46 51.8651H95.9672V51.8484Z" fill="#633E76"/>
<path d="M108.611 56.9395L104.776 51.8484H106.384L109.415 55.8676L112.429 51.8484H114.037L110.202 56.9395L114.171 62.2315H112.563L109.398 58.0113L106.216 62.2315H104.609L108.611 56.9395Z" fill="#633E76"/>
<path d="M115.578 62.2315V51.8484H122.226V53.0877H116.918V62.2315H115.578Z" fill="#633E76"/>
<path d="M121.523 62.2315L126.078 51.8484H127.167L131.722 62.2315H130.315L129.31 59.9037H123.951L122.946 62.2315H121.523ZM124.487 58.6644H128.741L126.631 53.7575L124.487 58.6644Z" fill="#633E76"/>
<path d="M132.609 60.9922C133.547 60.9922 134.301 60.1884 134.301 56.906V51.8652H141.703V62.2483H140.347V53.0877H135.624V56.8892C135.624 60.9252 134.301 62.2315 132.593 62.2315H132.224V60.9922H132.609Z" fill="#633E76"/>
<path d="M143.244 51.8484H152.354V53.0877H148.469V62.2315H147.129V53.0877H143.244V51.8484Z" fill="#633E76"/>
<path d="M161.381 51.8484V53.0877H155.234V56.3533H160.627V57.5926H155.234V60.9754H161.448V62.2147H153.895V51.8316H161.381V51.8484Z" fill="#633E76"/>
<path d="M163.189 51.8484H167.744C169.654 51.8484 171.111 53.2216 171.111 55.0471C171.111 56.8725 169.654 58.2457 167.744 58.2457H164.529V62.2148H163.189V51.8484ZM164.529 53.0877V57.0065H167.744C168.866 57.0065 169.721 56.1691 169.721 55.0471C169.721 53.925 168.866 53.0877 167.744 53.0877H164.529Z" fill="#633E76"/>
<path d="M177.709 51.6809C179.785 51.6809 181.51 52.7527 182.415 54.3772L181.108 54.8628C180.422 53.7073 179.199 52.9704 177.709 52.9704C175.448 52.9704 173.74 54.7289 173.74 57.0399C173.74 59.351 175.465 61.1094 177.709 61.1094C179.199 61.1094 180.422 60.3726 181.108 59.217L182.415 59.7027C181.51 61.3271 179.785 62.3989 177.709 62.3989C174.661 62.3989 172.35 60.1046 172.35 57.0399C172.35 53.9753 174.644 51.6809 177.709 51.6809Z" fill="#633E76"/>
<path d="M184.257 51.8484H185.597V55.8844H188.778C190.671 55.8844 192.111 57.2409 192.111 59.0663C192.111 60.8917 190.671 62.2482 188.778 62.2482H184.257V51.8484ZM188.778 60.9922C189.884 60.9922 190.738 60.1549 190.738 59.0663C190.738 57.961 189.9 57.1404 188.778 57.1404H185.597V60.9922H188.778Z" fill="#633E76"/>
<path d="M193.97 51.8484H195.31V62.2315H193.97V51.8484ZM195.494 56.9395L200.083 51.8484H201.807L197.219 56.9395L202.092 62.2315H200.367L195.494 56.9395Z" fill="#633E76"/>
<path d="M202.595 62.2315L207.15 51.8484H208.238L212.793 62.2315H211.387L210.382 59.9037H205.023L204.018 62.2315H202.595ZM205.559 58.6644H209.813L207.686 53.7743L205.559 58.6644Z" fill="#633E76"/>
<path d="M218.253 51.8484H219.593V62.2315H218.253V51.8484ZM219.794 56.9395L224.382 51.8484H226.107L221.519 56.9395L226.392 62.2315H224.667L219.794 56.9395Z" fill="#633E76"/>
<path d="M232.304 51.6809C235.351 51.6809 237.679 53.9753 237.679 57.0399C237.679 60.1046 235.368 62.3989 232.304 62.3989C229.256 62.3989 226.945 60.1046 226.945 57.0399C226.945 53.9753 229.256 51.6809 232.304 51.6809ZM232.304 61.1094C234.581 61.1094 236.273 59.351 236.273 57.0399C236.273 54.7289 234.564 52.9704 232.304 52.9704C230.043 52.9704 228.335 54.7289 228.335 57.0399C228.335 59.351 230.059 61.1094 232.304 61.1094Z" fill="#633E76"/>
<path d="M240.911 51.8484L245.098 59.15L249.268 51.8484H250.608V62.2315H249.268V54.3772L245.534 60.942H244.663L240.928 54.3939V62.2315H239.588V51.8484H240.911Z" fill="#633E76"/>
<path d="M252.919 51.8484H261.761V62.2315H260.405V53.0877H254.242V62.2315H252.902V51.8484H252.919Z" fill="#633E76"/>
<path d="M263.168 62.2315L267.723 51.8484H268.812L273.367 62.2315H271.96L270.956 59.9037H265.597L264.592 62.2315H263.168ZM266.133 58.6644H270.386L268.259 53.7743L266.133 58.6644Z" fill="#633E76"/>
<path d="M276.097 51.8484V56.3533H282.26V51.8484H283.616V62.2315H282.26V57.6093H276.097V62.2315H274.757V51.8484H276.097Z" fill="#633E76"/>
<path d="M285.927 51.8484H287.267V62.2315H285.927V51.8484Z" fill="#633E76"/>
<path d="M289.109 62.2315L291.621 58.095C290.231 57.7098 289.26 56.5208 289.26 55.0471C289.26 53.2384 290.7 51.8652 292.626 51.8652H297.332V62.2483H295.975V58.2457H293.061L290.616 62.2483H289.109V62.2315ZM292.626 56.973H295.975V53.0877H292.626C291.504 53.0877 290.633 53.925 290.633 55.0303C290.633 56.1524 291.504 56.973 292.626 56.973Z" fill="#633E76"/>
</svg>
