<svg width="155" height="60" viewBox="0 0 155 60" fill="none" xmlns="http://www.w3.org/2000/svg">
<g clip-path="url(#clip0)">
<path d="M14.0751 29.2717V15.2353H38.2303C35.7585 6.6312 27.9506 0.283841 18.6186 0.0100179V0.00267145H18.0716C18.0462 0.00267145 18.0168 0 17.9914 0C17.9621 0 17.936 0.00267145 17.9066 0.00267145H0.00195312V42.1087H17.9066C17.936 42.1087 17.9621 42.1113 17.9914 42.1113C18.0168 42.1113 18.0462 42.1087 18.0743 42.1087H18.6186V42.1013C27.0603 41.8522 34.2539 36.6349 37.3808 29.2717H14.0751Z" fill="#114B86"/>
<path d="M114.747 0.00198364H101.936H85.4509H72.6379V15.2366H114.747V0.00198364Z" fill="#114B86"/>
<path d="M101.935 29.2717H85.4501V42.1067H101.935V29.2717Z" fill="#114B86"/>
<path d="M60.0647 29.2703H59.8998H54.7359H54.5709H49.242L54.5709 15.2412H60.0647L65.3929 29.2703H60.0647ZM65.5612 0.00198364H49.0751L33.0845 42.1106H49.0751H49.5693H65.0657H65.5612H81.5518L65.5612 0.00198364Z" fill="#114B86"/>
<path d="M132.939 29.2703H132.773H127.61H127.446H122.117L127.446 15.2412H132.94L138.268 29.2703H132.939ZM138.434 0.00198364H121.949L105.957 42.1106H121.949H122.443H137.939H138.433H154.425L138.434 0.00198364Z" fill="#114B86"/>
<path d="M116.126 55.5073C116.126 56.7742 115.096 57.8054 113.828 57.8054C112.562 57.8054 111.532 56.7742 111.532 55.5093V49.1112H109.462V55.5066V55.8706H109.479C109.664 58.1046 111.556 59.8738 113.828 59.8738C116.102 59.8738 117.994 58.1046 118.179 55.8706H118.195V49.1119H116.126V55.5073Z" fill="#114B86"/>
<path d="M44.7187 52.375C44.7187 50.7869 43.5499 49.4411 42.0078 49.2301L36.3116 49.2274V59.7589H38.3807V55.5294H40.22L43.2354 59.7456H45.7812L42.6263 55.335C43.8625 54.8982 44.7187 53.7181 44.7187 52.375ZM41.5757 53.4456L41.2678 53.4577H38.38V51.3011H41.5757C42.1668 51.3011 42.6483 51.7833 42.6483 52.3744C42.6483 52.9661 42.1674 53.4456 41.5757 53.4456Z" fill="#114B86"/>
<path d="M151.589 49.2307L146.015 49.2281V59.7589H148.087V55.709H151.278L151.589 55.7037C153.201 55.508 154.425 54.1262 154.425 52.4705C154.425 50.8136 153.201 49.4271 151.589 49.2307ZM151.186 53.6386H148.087V51.2998H151.186C151.829 51.2998 152.355 51.826 152.355 52.4699C152.355 53.1137 151.829 53.6386 151.186 53.6386Z" fill="#114B86"/>
<path d="M77.4372 48.987C74.3997 48.987 71.93 51.4561 71.93 54.4935C71.93 57.5296 74.3997 60 77.4372 60C80.4739 60 82.9437 57.5296 82.9437 54.4935C82.9437 51.4561 80.4739 48.987 77.4372 48.987ZM77.4372 57.9303C75.5404 57.9303 73.999 56.3895 73.999 54.4935C73.999 52.5974 75.5404 51.056 77.4372 51.056C79.3332 51.056 80.8747 52.5974 80.8747 54.4935C80.8747 56.3895 79.3332 57.9303 77.4372 57.9303Z" fill="#114B86"/>
<path d="M7.23828 57.4595L7.22692 57.4668C7.14411 57.5142 7.06196 57.5563 6.98449 57.5937L6.9137 57.6271C6.46823 57.8281 5.99806 57.931 5.50585 57.931C3.61246 57.931 2.06903 56.3895 2.06903 54.4935C2.06903 52.5961 3.61246 51.0567 5.50585 51.0567C6.58912 51.0567 7.51077 51.3151 8.11451 52.0137V49.6441C7.31642 49.2127 6.42416 48.9876 5.50585 48.9876C2.47175 48.987 0 51.4561 0 54.4935C0 57.5296 2.47175 60 5.50585 60C5.94597 60 6.38275 59.9479 6.80684 59.843V59.8604L7.21156 59.7308C7.3064 59.6988 7.40591 59.6654 7.51277 59.6233L7.57555 59.5973C7.67506 59.5559 7.77591 59.5111 7.88076 59.4617L7.91549 59.4463C8.389 59.2153 8.82378 58.9227 9.2078 58.5748L9.30731 58.4799V54.211H7.23828V57.4595Z" fill="#114B86"/>
</g>
<defs>
<clipPath id="clip0">
<rect width="154.426" height="60" fill="white"/>
</clipPath>
</defs>
</svg>
