<svg width="210" height="90" viewBox="0 0 210 90" fill="none" xmlns="http://www.w3.org/2000/svg">
<rect width="210" height="90" fill="white"/>
<path d="M22.1884 72.8715C18.3691 72.8715 15.01 72.0662 12.111 70.4557C9.21207 68.8451 6.95732 66.5904 5.34678 63.6914C3.78226 60.7465 3 57.3643 3 53.5451V26.0049H13.0774V52.7858C13.0774 56.1909 13.8826 58.9058 15.4932 60.9305C17.1497 62.9092 19.3815 63.8985 22.1884 63.8985C24.9953 63.8985 27.2271 62.9092 28.8836 60.9305C30.5402 58.9058 31.3684 56.1909 31.3684 52.7858V26.0049H41.3768V53.5451C41.3768 57.3643 40.5715 60.7465 38.961 63.6914C37.3965 66.5904 35.1647 68.8451 32.2657 70.4557C29.3668 72.0662 26.0077 72.8715 22.1884 72.8715Z" fill="#D12421"/>
<path d="M61.7833 18.0957V55.9223H52.0475V18.0957H39.5898V10H74.2409V18.0957H61.7833Z" fill="#D12421"/>
<path d="M97.2316 34.3918C97.2083 32.0422 96.6034 30.216 95.417 28.9133C94.2306 27.6105 92.6137 26.9591 90.5665 26.9591C88.5426 26.9591 86.9491 27.6105 85.7859 28.9133C84.6227 30.1928 83.9597 32.019 83.7969 34.3918H97.2316ZM104.246 54.0728C100.942 55.7245 96.8244 56.5504 91.8926 56.5504C86.2395 56.5504 81.8195 55.0033 78.6323 51.9093C75.4685 48.792 73.8866 44.3254 73.8866 38.5095C73.8866 32.6936 75.3522 28.1805 78.2834 24.9701C81.2611 21.7597 85.2741 20.1545 90.3223 20.1545C95.3937 20.1545 99.3136 21.5736 102.082 24.4118C104.85 27.2499 106.235 31.1466 106.235 36.1017V40.7428H83.5875C83.6805 43.4879 84.4831 45.6281 85.9953 47.1635C87.5307 48.6757 89.6476 49.4317 92.3462 49.4317C96.3708 49.4317 100.337 48.5128 104.246 46.675V54.0728Z" fill="#D12421"/>
<path d="M143.03 55.9223H136.33L134.48 51.1416H134.236C132.608 53.1888 130.944 54.6079 129.246 55.3988C127.548 56.1665 125.326 56.5504 122.581 56.5504C119.185 56.5504 116.521 55.5849 114.59 53.6541C112.659 51.6999 111.694 48.9199 111.694 45.3141C111.694 41.7082 112.973 39.0097 115.532 37.2184C118.115 35.4271 122.069 34.4384 127.397 34.2523L133.503 34.0778V32.5424C133.503 28.9831 131.677 27.2034 128.025 27.2034C125.256 27.2034 121.965 28.0409 118.149 29.7159L114.974 23.2602C118.999 21.1432 123.43 20.0848 128.269 20.0848C133.131 20.0848 136.807 21.1316 139.296 23.2253C141.785 25.2958 143.03 28.4015 143.03 32.5424V55.9223ZM133.503 42.5574V39.661L129.804 39.7657C126.99 39.8588 124.907 40.3706 123.558 41.3011C122.209 42.2084 121.534 43.6042 121.534 45.4886C121.534 48.1871 123.081 49.5364 126.175 49.5364C128.409 49.5364 130.188 48.9083 131.514 47.6521C132.84 46.3726 133.503 44.6743 133.503 42.5574Z" fill="#D12421"/>
<path d="M184.298 38.3001V55.9223H174.702V35.4038C174.702 32.8448 174.271 30.9488 173.411 29.7159C172.55 28.4596 171.224 27.8315 169.432 27.8315C166.99 27.8315 165.21 28.7272 164.093 30.5185C162.977 32.2865 162.418 35.2526 162.418 39.4168V55.9223H152.857V20.8176H160.185L161.476 25.3191H162C162.93 23.6906 164.28 22.4227 166.048 21.5155C167.839 20.6082 169.886 20.1545 172.189 20.1545C177.47 20.1545 181.029 21.876 182.867 25.3191H183.74C184.647 23.6673 186.019 22.3995 187.857 21.5155C189.695 20.6082 191.777 20.1545 194.103 20.1545C198.151 20.1545 201.176 21.1898 203.176 23.2602C205.177 25.3307 206.177 28.5876 206.177 33.0309V55.9223H196.581V35.4038C196.581 32.8448 196.151 30.9488 195.29 29.7159C194.429 28.4596 193.103 27.8315 191.312 27.8315C188.939 27.8315 187.171 28.6806 186.008 30.3789C184.868 32.0539 184.298 34.6943 184.298 38.3001Z" fill="#D12421"/>
<path d="M62.4382 67.042L62.217 68.5221H58.497V77.1066H56.5666V68.5221H52.7461V67.042H62.4382Z" fill="#D12421"/>
<path d="M69.4179 66.8033C70.745 66.8033 71.8074 67.0324 72.605 67.4908C73.4027 67.9428 73.8015 68.5921 73.8015 69.4388C73.8015 69.9672 73.6406 70.4192 73.3189 70.7947C72.9972 71.1703 72.4408 71.4504 71.6499 71.6351C73.4462 71.8133 74.3444 72.6441 74.3444 74.1273C74.3444 74.834 74.1366 75.4069 73.721 75.8462C73.3122 76.2854 72.7626 76.6069 72.0722 76.8106C71.3885 77.008 70.6345 77.1066 69.81 77.1066H65.6879V67.1661C66.2777 67.0643 66.8809 66.9783 67.4976 66.9083C68.1142 66.8383 68.7543 66.8033 69.4179 66.8033ZM69.428 68.1879C69.0593 68.1879 68.7376 68.1974 68.4628 68.2165C68.1947 68.2356 67.9132 68.2643 67.6182 68.3025V71.1194H69.6693C70.3328 71.1194 70.859 71.0112 71.2477 70.7947C71.6432 70.5783 71.8409 70.19 71.8409 69.6298C71.8409 69.1078 71.6399 68.7385 71.2377 68.5221C70.8422 68.2993 70.239 68.1879 69.428 68.1879ZM67.6182 75.6934H69.7698C71.4656 75.6934 72.3135 75.1586 72.3135 74.0891C72.3135 73.6372 72.1895 73.2934 71.9415 73.0579C71.7002 72.8159 71.3852 72.6504 70.9964 72.5613C70.6143 72.4722 70.2122 72.4276 69.7899 72.4276H67.6182V75.6934Z" fill="#D12421"/>
<path d="M81.6659 66.8033C83.1808 66.8033 84.3303 67.2807 85.1145 68.2356C85.9054 69.1905 86.3009 70.4669 86.3009 72.0648C86.3009 73.1024 86.1199 74.0191 85.7579 74.8149C85.4027 75.6106 84.8799 76.2313 84.1895 76.6769C83.4991 77.1225 82.6512 77.3454 81.6458 77.3454C80.131 77.3454 78.9748 76.8679 78.1772 75.913C77.3863 74.9581 76.9908 73.6817 76.9908 72.0839C76.9908 71.0398 77.1684 70.1231 77.5237 69.3338C77.8856 68.538 78.4118 67.9173 79.1022 67.4717C79.7992 67.0261 80.6538 66.8033 81.6659 66.8033ZM81.6659 68.2643C80.7946 68.2643 80.1377 68.5762 79.6953 69.2001C79.253 69.8176 79.0318 70.7788 79.0318 72.0839C79.0318 73.3762 79.2496 74.3342 79.6853 74.9581C80.121 75.5756 80.7745 75.8844 81.6458 75.8844C82.5172 75.8844 83.1707 75.5756 83.6064 74.9581C84.0421 74.3342 84.2599 73.3698 84.2599 72.0648C84.2599 70.7661 84.0421 69.808 83.6064 69.1905C83.1707 68.573 82.5239 68.2643 81.6659 68.2643Z" fill="#D12421"/>
<path d="M88.6155 77.1066L91.1592 72.8573C89.9125 72.3035 89.2891 71.3931 89.2891 70.1263C89.2891 69.1269 89.6678 68.3629 90.4252 67.8346C91.1893 67.3062 92.2551 67.042 93.6224 67.042H97.5636V77.1066H95.6332V73.2679H92.9991L90.7671 77.1066H88.6155ZM93.552 71.9024H95.6332V68.4266H93.5822C92.8382 68.4266 92.2752 68.5635 91.8931 68.8372C91.5111 69.1046 91.32 69.5343 91.32 70.1263C91.32 70.7502 91.4943 71.2022 91.8428 71.4823C92.1981 71.7624 92.7678 71.9024 93.552 71.9024Z" fill="#D12421"/>
<path d="M113.795 77.1066V67.042H115.726V71.0717H117.746L120.682 67.042H122.773L119.315 71.7019L123.286 77.1066H121.024L117.706 72.4849H115.726V77.1066H113.795Z" fill="#D12421"/>
<path d="M129.894 66.8033C131.409 66.8033 132.558 67.2807 133.343 68.2356C134.133 69.1905 134.529 70.4669 134.529 72.0648C134.529 73.1024 134.348 74.0191 133.986 74.8149C133.631 75.6106 133.108 76.2313 132.418 76.6769C131.727 77.1225 130.879 77.3454 129.874 77.3454C128.359 77.3454 127.203 76.8679 126.405 75.913C125.614 74.9581 125.219 73.6817 125.219 72.0839C125.219 71.0398 125.396 70.1231 125.752 69.3338C126.114 68.538 126.64 67.9173 127.33 67.4717C128.027 67.0261 128.882 66.8033 129.894 66.8033ZM129.894 68.2643C129.023 68.2643 128.366 68.5762 127.923 69.2001C127.481 69.8176 127.26 70.7788 127.26 72.0839C127.26 73.3762 127.478 74.3342 127.913 74.9581C128.349 75.5756 129.003 75.8844 129.874 75.8844C130.745 75.8844 131.399 75.5756 131.834 74.9581C132.27 74.3342 132.488 73.3698 132.488 72.0648C132.488 70.7661 132.27 69.808 131.834 69.1905C131.399 68.573 130.752 68.2643 129.894 68.2643Z" fill="#D12421"/>
<path d="M146.425 67.042L147.179 77.1066H145.369L144.997 72.4276C144.957 71.8674 144.93 71.2945 144.917 70.7088C144.904 70.1231 144.907 69.4929 144.927 68.8181H144.847L142.856 75.426H141.066L138.854 68.8181H138.774C138.807 69.3847 138.817 69.9863 138.804 70.6229C138.797 71.2531 138.777 71.8515 138.744 72.4181L138.472 77.1066H136.683L137.417 67.042H139.84L141.991 73.8027L143.962 67.042H146.425Z" fill="#D12421"/>
<path d="M157.688 74.7958C157.688 75.1968 157.755 75.4897 157.889 75.6743C158.023 75.8525 158.234 75.9862 158.522 76.0753L158.07 77.3358C157.587 77.2785 157.165 77.1416 156.803 76.9252C156.448 76.7088 156.186 76.3777 156.019 75.9321C155.637 76.4032 155.154 76.7565 154.571 76.992C153.988 77.2276 153.354 77.3454 152.671 77.3454C151.605 77.3454 150.764 77.0589 150.147 76.4859C149.531 75.913 149.222 75.1586 149.222 74.2228C149.222 73.1788 149.651 72.3767 150.509 71.8165C151.374 71.2499 152.614 70.9666 154.229 70.9666H155.767V70.2027C155.767 69.5088 155.55 69.0155 155.114 68.7226C154.685 68.4298 154.085 68.2834 153.314 68.2834C152.959 68.2834 152.54 68.3247 152.057 68.4075C151.582 68.4903 151.072 68.6208 150.529 68.799L150.037 67.4621C150.687 67.2266 151.313 67.0579 151.917 66.9561C152.52 66.8542 153.083 66.8033 153.606 66.8033C154.966 66.8033 155.985 67.0993 156.662 67.6913C157.346 68.2834 157.688 69.0887 157.688 70.1072V74.7958ZM153.214 75.9703C153.703 75.9703 154.176 75.8493 154.631 75.6074C155.094 75.3655 155.473 75.0281 155.767 74.5952V72.1603H154.36C153.241 72.1603 152.446 72.3417 151.977 72.7045C151.508 73.061 151.273 73.5512 151.273 74.1751C151.273 75.3719 151.92 75.9703 153.214 75.9703Z" fill="#D12421"/>
<path d="M168.227 77.1066V72.695H163.863V77.1066H161.933V67.042H163.863V71.234H168.227V67.042H170.157V77.1066H168.227Z" fill="#D12421"/>
<path d="M172.552 75.6456H173.286C173.588 75.391 173.842 75.0759 174.05 74.7003C174.258 74.3183 174.429 73.7836 174.563 73.0961C174.697 72.4022 174.808 71.4664 174.895 70.2886L175.146 67.042H182.134V75.6456H182.948V80H181.39L181.078 77.1066H174.422L174.11 80H172.552V75.6456ZM180.213 68.4743H176.875L176.765 70.1741C176.698 71.078 176.621 71.8356 176.533 72.4467C176.446 73.0579 176.332 73.564 176.192 73.965C176.058 74.3597 175.887 74.6876 175.679 74.9486C175.471 75.2096 175.22 75.4419 174.925 75.6456H180.213V68.4743Z" fill="#D12421"/>
<path d="M193.859 74.7958C193.859 75.1968 193.926 75.4897 194.06 75.6743C194.194 75.8525 194.405 75.9862 194.693 76.0753L194.241 77.3358C193.758 77.2785 193.336 77.1416 192.974 76.9252C192.619 76.7088 192.357 76.3777 192.19 75.9321C191.808 76.4032 191.325 76.7565 190.742 76.992C190.159 77.2276 189.525 77.3454 188.842 77.3454C187.776 77.3454 186.935 77.0589 186.318 76.4859C185.702 75.913 185.393 75.1586 185.393 74.2228C185.393 73.1788 185.822 72.3767 186.68 71.8165C187.545 71.2499 188.785 70.9666 190.4 70.9666H191.938V70.2027C191.938 69.5088 191.721 69.0155 191.285 68.7226C190.856 68.4298 190.256 68.2834 189.485 68.2834C189.13 68.2834 188.711 68.3247 188.229 68.4075C187.753 68.4903 187.243 68.6208 186.7 68.799L186.208 67.4621C186.858 67.2266 187.485 67.0579 188.088 66.9561C188.691 66.8542 189.254 66.8033 189.777 66.8033C191.137 66.8033 192.156 67.0993 192.833 67.6913C193.517 68.2834 193.859 69.0887 193.859 70.1072V74.7958ZM189.385 75.9703C189.874 75.9703 190.347 75.8493 190.802 75.6074C191.265 75.3655 191.644 75.0281 191.938 74.5952V72.1603H190.531C189.412 72.1603 188.617 72.3417 188.148 72.7045C187.679 73.061 187.444 73.5512 187.444 74.1751C187.444 75.3719 188.091 75.9703 189.385 75.9703Z" fill="#D12421"/>
<path d="M203.241 63.9481L203.03 72.6854H201.341L201.11 63.9481H203.241ZM202.196 74.643C202.605 74.643 202.947 74.7735 203.221 75.0345C203.496 75.2955 203.634 75.6106 203.634 75.9798C203.634 76.3554 203.496 76.6769 203.221 76.9443C202.947 77.2117 202.605 77.3454 202.196 77.3454C201.8 77.3454 201.465 77.2117 201.19 76.9443C200.922 76.6769 200.788 76.3554 200.788 75.9798C200.788 75.6106 200.922 75.2955 201.19 75.0345C201.465 74.7735 201.8 74.643 202.196 74.643Z" fill="#D12421"/>
</svg>
