<svg width="18" height="19" viewBox="0 0 18 19" fill="none" xmlns="http://www.w3.org/2000/svg">
<rect y="0.0395508" width="18" height="18" rx="4" fill="#784F98"/>
<path fill-rule="evenodd" clip-rule="evenodd" d="M9.5486 10.0179C9.5486 10.0179 9.81126 10.0401 9.95212 9.87385L10.2277 9.54544C10.3606 9.38211 10.6816 9.27828 10.996 9.44394C11.4118 9.66677 11.9494 10.0168 12.3178 10.3428C12.5208 10.505 12.5682 10.7442 12.4298 10.9967L12.4286 11.002C12.2859 11.24 12.0958 11.4634 11.8553 11.6717L11.8497 11.6752C11.5791 11.8892 11.2678 12.0135 10.9351 11.9108L10.9289 11.9027C10.331 11.7422 8.89658 11.0487 7.98252 10.3574C6.48718 9.23861 5.42427 7.39297 5.13024 6.40366L5.12102 6.39782C5.01276 6.08108 5.14501 5.78592 5.36952 5.52984L5.37383 5.52517C5.59342 5.29709 5.8284 5.11626 6.07998 4.98151L6.08552 4.98035C6.35124 4.8491 6.60344 4.89343 6.77506 5.08651C7.0008 5.30759 7.42462 5.83958 7.72233 6.34007C7.89702 6.63757 7.78753 6.94265 7.61592 7.06806L7.26899 7.32939C7.0943 7.46356 7.11706 7.71264 7.11706 7.71264C7.11706 7.71264 7.63006 9.55361 9.5486 10.0179ZM12.567 8.49196C12.4642 8.49196 12.3806 8.41321 12.38 8.31579C12.3714 7.24831 12.033 6.39782 11.3749 5.78883C10.7155 5.17926 9.88199 4.8666 8.89781 4.86018C8.79447 4.8596 8.71143 4.77968 8.71266 4.68168C8.71328 4.58427 8.79632 4.5061 8.89904 4.5061H8.90027C9.9841 4.5131 10.9043 4.8596 11.6357 5.53509C12.3677 6.21291 12.7441 7.14798 12.7533 8.31346C12.754 8.41087 12.6715 8.49079 12.5682 8.49196H12.567ZM11.5859 8.12796H11.5816C11.4782 8.12563 11.3964 8.04455 11.3989 7.94713C11.4136 7.34164 11.2309 6.85165 10.8416 6.44857C10.4541 6.04666 9.92198 5.82733 9.2146 5.77833C9.11187 5.77075 9.03437 5.68617 9.04175 5.58875C9.04975 5.49134 9.13894 5.41784 9.24166 5.42484C10.0376 5.48025 10.6687 5.7445 11.1171 6.20941C11.568 6.67607 11.7888 7.26348 11.7722 7.95472C11.7698 8.05096 11.6867 8.12796 11.5859 8.12796ZM10.6275 7.82347C10.5285 7.82347 10.4461 7.74997 10.4411 7.65489C10.4098 7.05406 10.1108 6.76007 9.50185 6.72857C9.39852 6.72332 9.31978 6.6399 9.32532 6.54249C9.33085 6.44449 9.4182 6.36982 9.52154 6.37507C10.3261 6.41591 10.7727 6.85282 10.8139 7.63739C10.8194 7.7348 10.7401 7.81822 10.6367 7.82288L10.6275 7.82347ZM14.8207 9.84702C14.4486 12.6919 12.2545 12.8716 11.8497 12.9946C11.6775 13.0471 10.077 13.4245 8.06557 13.3003C8.06557 13.3003 6.56592 15.0153 6.09782 15.4615C6.02462 15.5309 5.93912 15.5589 5.8813 15.5461C5.80072 15.5274 5.77857 15.4364 5.7798 15.3046L5.79211 12.962C2.86294 12.1902 3.03332 9.28936 3.06654 7.77097C3.09976 6.25257 3.40055 5.00834 4.29431 4.17186C5.89975 2.79288 9.20722 2.99879 9.20722 2.99879C12.0004 3.01046 13.3389 3.80786 13.6496 4.07503C14.6799 4.91151 15.2046 6.91406 14.8207 9.84702ZM14.4197 3.36454C14.0525 3.04488 12.57 2.02406 9.26811 2.01006C9.26811 2.01006 5.37444 1.78723 3.4762 3.4392C2.41944 4.44135 2.04791 5.90725 2.00854 7.72547C1.96979 9.54427 1.91874 12.9509 5.38183 13.8749L5.38552 13.876L5.38306 15.2853C5.38306 15.2853 5.36153 15.8564 5.75766 15.9731C6.23683 16.1137 6.51794 15.6803 6.9762 15.2124C7.22717 14.9558 7.57347 14.5789 7.83551 14.2908C10.2043 14.4786 12.0257 14.0475 12.233 13.984C12.7109 13.8364 15.4174 13.508 15.8578 10.1008C16.3118 6.58799 15.6376 4.36669 14.4197 3.36454Z" fill="#E5E5E5"/>
</svg>
