<svg width="106" height="100" fill="none" xmlns="http://www.w3.org/2000/svg"><g clip-path="url(#clip0)"><path d="M98.235 26.568v-5.615h-.873v5.615a1.164 1.164 0 10.873 0z" fill="#E6E6E6"/><path d="M100.272 83.23h-5.966V10.768h-2.328V83.23h-5.965a5.385 5.385 0 00-5.384 5.384h25.027a5.376 5.376 0 00-1.577-3.807 5.384 5.384 0 00-3.807-1.577z" fill="#E6E6E6"/><path d="M80.64 21.535h25.004l-1.529-19.11A2.648 2.648 0 00101.489 0H84.796a2.648 2.648 0 00-2.626 2.424l-1.53 19.111z" fill="#D12421"/><path d="M9.814 66.575H86.13v-7.792c0-21.04-17.118-38.157-38.158-38.157-21.04 0-38.158 17.117-38.158 38.157v7.792z" fill="#3F3D56"/><path opacity=".2" d="M9.814 66.575H86.13v-7.792c0-21.04-17.118-38.157-38.158-38.157-21.04 0-38.158 17.117-38.158 38.157v7.792z" fill="#000"/><path d="M19.705 69.272h58.732a11.8 11.8 0 00-11.785-11.587H31.49a11.8 11.8 0 00-11.785 11.587z" fill="#D12421"/><path d="M12.711 68.073c6.51 0 11.787-5.277 11.787-11.787 0-6.51-5.277-11.787-11.787-11.787C6.201 44.5.924 49.776.924 56.286c0 6.51 5.278 11.787 11.787 11.787zm71.521 0c6.51 0 11.787-5.277 11.787-11.787 0-6.51-5.277-11.787-11.787-11.787-6.51 0-11.787 5.277-11.787 11.787 0 6.51 5.277 11.787 11.787 11.787z" fill="#3F3D56"/><path d="M75.342 62.28v4.395h-54.44V62.28H8.716V83.7a4.949 4.949 0 004.949 4.95H82.58a4.95 4.95 0 004.949-4.95V62.28H75.342z" fill="#3F3D56"/><path opacity=".2" d="M12.711 58.684a2.397 2.397 0 100-4.795 2.397 2.397 0 000 4.795zm71.521 0a2.397 2.397 0 100-4.795 2.397 2.397 0 000 4.795z" fill="#000"/><path d="M52.314 19.28s.236 4.477 1.886 5.42c1.65.943 0 7.306 0 7.306l-7.778.236-.471-7.542s.943-3.064.471-4.478c-.471-1.414 5.892-.943 5.892-.943zm8.721 62.219l-2.829 3.3 4.478 4.242 2.357-4.714-4.006-2.828zm-20.033 0l2.828 3.3-4.478 4.242-2.357-4.714 4.007-2.828z" fill="#FFB8B8"/><path d="M59.503 50.271s16.969 5.657 16.026 11.077c-.943 5.42-8.249 24.511-8.249 24.511s-4.006 0-7.07-4.242l2.12-4.714s-.942-2.592.708-3.064c1.65-.471 2.592-8.72 2.592-8.72s-12.02-.943-14.612-5.42l-4.713-11.313 13.198 1.885z" fill="#2F2E41"/><path d="M42.534 50.271s-16.97 5.657-16.027 11.077c.943 5.42 8.25 24.511 8.25 24.511s4.006 0 7.07-4.242l-2.121-4.714s.942-2.592-.708-3.064c-1.65-.471-2.592-8.72-2.592-8.72s12.02-.943 14.612-5.42l4.714-11.313-13.198 1.885zM61.86 87.273s2.356-2.12 2.592-.471c.236 1.65-.236 8.249-.236 8.249S66.573 100 63.038 100s-5.185-3.77-4.714-7.542c.472-3.77-1.65-5.185-1.65-5.185s-2.592-5.185 0-5.656c2.593-.471 3.536.707 3.536.707s-.943 4.242 1.65 4.95z" fill="#2F2E41"/><path d="M40.177 87.273s-2.357-2.12-2.593-.471c-.235 1.65.236 8.249.236 8.249S35.463 100 38.998 100c3.536 0 5.185-3.77 4.714-7.542-.471-3.77 1.65-5.185 1.65-5.185s2.592-5.185 0-5.656c-2.593-.471-3.535.707-3.535.707s.942 4.242-1.65 4.95z" fill="#2F2E41"/><path d="M48.661 21.99a5.42 5.42 0 100-10.842 5.42 5.42 0 000 10.841z" fill="#FFB8B8"/><path d="M49.486 25.878l-3.3-2.592-8.012 3.77-.236 21.448s-4.95 2.357-3.535 5.42c0 0 4.242.943 6.127 2.828 1.886 1.886 12.492-.707 16.97-2.12 4.477-1.415 5.656-3.064 5.656-3.064l-4.478-6.364 2.592-16.262-8.012-5.387-3.772 2.323z" fill="#E6E6E6"/><path d="M55.252 12.88a4.775 4.775 0 01-.324-.502c-.168-.41.098-.892-.15-1.274-.254-.39-.896-.473-1.334-.738-.674-.408-.796-1.21-1.428-1.66-.454-.324-1.103-.411-1.71-.393-.609.019-1.209.129-1.817.14a5.474 5.474 0 01-2.383-.486l.449.877a4.477 4.477 0 01-1.408-.57c-.199.245.164.619-.06.85a.722.722 0 01-.319.147 7.602 7.602 0 00-2.406 1.174 1.21 1.21 0 00-.405.428c-.117.259-.013.545-.022.82-.016.501-.398.938-.67 1.389-.27.45-.417 1.035-.015 1.418.098.078.192.16.281.248.403.476-.31 1.172.034 1.676.149.22.455.33.721.46.51.238.938.62 1.233 1.099l-.207-1.518a.249.249 0 01.041-.221c.1-.102.31-.061.448-.129.153-.074.164-.245.158-.388l-.047-1.101c-.02-.496-.026-.562.339-.961.255-.28.655-.448 1.058-.572.92-.284 1.91-.382 2.889-.477 1.136-.111 2.416-.663 3.298-.077.722.479.963 1.266 1.31 1.965.314.628 1.116 2.476 1.785 1.476.42-.629 1.062-2.4.66-3.1z" fill="#2F2E41"/><path d="M49.592 14.996a.085.085 0 00-.084.085v2.27a.084.084 0 00.084.083h3.907a.084.084 0 00.084-.084v-2.27a.084.084 0 00-.084-.084h-3.907z" fill="#3F3D56"/><path d="M50.028 15.197a.157.157 0 00-.157.157v1.723a.157.157 0 00.157.157h3.034a.158.158 0 00.157-.157v-1.724a.157.157 0 00-.157-.156h-3.034z" fill="#FF6584"/><path d="M49.636 15.744H47.6v.471h2.035v-.471z" fill="#3F3D56"/><path d="M44.06 14.996a.084.084 0 00-.085.085v2.27a.085.085 0 00.084.084h3.907a.085.085 0 00.085-.085v-2.27a.084.084 0 00-.085-.084H44.06z" fill="#3F3D56"/><path d="M44.496 15.197a.157.157 0 00-.157.157v1.723a.157.157 0 00.157.157h3.034a.157.157 0 00.157-.157v-1.724a.157.157 0 00-.157-.156h-3.034z" fill="#D12421"/><path d="M41.924 43.325h13.532a2.037 2.037 0 012.037 2.037H39.887a2.037 2.037 0 012.037-2.037z" fill="#3F3D56"/><path d="M56.402 43.18a.722.722 0 00-.233.039.435.435 0 00-.858.106v.006a.746.746 0 00-.16.033.439.439 0 00-.216-.278.73.73 0 00.315-.344.583.583 0 00.642-.588.586.586 0 00-.654-.575.72.72 0 00-.233.04.434.434 0 10-.836.236.487.487 0 00-.05.04.413.413 0 00-.298-.1.724.724 0 00-1.409.226.744.744 0 00-.172.034.443.443 0 00-.025-.072.547.547 0 00.185-.404.622.622 0 00-.654-.582.726.726 0 00-.233.04.433.433 0 00-.542-.32.432.432 0 00-.315.383.435.435 0 00.02.173.726.726 0 00-.31.563l-.02.016a.52.52 0 00.017-.128.622.622 0 00-.654-.582.723.723 0 00-.233.04.433.433 0 00-.542-.32.432.432 0 00-.315.383.435.435 0 00.02.173.726.726 0 000 1.194.397.397 0 000 .261.735.735 0 00-.186.188.434.434 0 00-.85.074.694.694 0 00-.187-.076.732.732 0 00.267-.317.583.583 0 00.643-.588.586.586 0 00-.655-.575.72.72 0 00-.232.04.434.434 0 10-.837.236c-.01.006-.018.014-.027.02-.022-.001-.044-.005-.068-.005a.72.72 0 00-.232.04c-.003-.012-.008-.022-.011-.032a.428.428 0 00-.446-.52.728.728 0 10-1.142.81.751.751 0 00-.148.032.432.432 0 00-.692-.234.68.68 0 00-.53-.242.72.72 0 00-.232.04.438.438 0 00-.368-.332.433.433 0 00-.49.395.435.435 0 00.02.173.726.726 0 00-.312.597v.007a.603.603 0 00-.306.033.435.435 0 10-.836.236.724.724 0 00.573 1.306.725.725 0 001.37.186 4.535 4.535 0 001.571-.071.725.725 0 001.35.048.712.712 0 00.305-.075.723.723 0 001.296-.07.704.704 0 01.788.437 1.137 1.137 0 01.836-.462.71.71 0 00.788-.301.727.727 0 001.371.471.712.712 0 00.305-.075.723.723 0 001.295-.07.712.712 0 00.306-.076.72.72 0 001.078.21.725.725 0 001.296.3.722.722 0 001.104-.289.583.583 0 00.59-.826.585.585 0 00-.602-.337zm-13.005-.301l-.002.01h-.016a.44.44 0 00-.065.006l.004-.008a.743.743 0 00.079-.008zm6.079-.242l-.008-.025a.73.73 0 00.252-.307.68.68 0 00.506-.229.43.43 0 00.014.215.73.73 0 00-.27.355.714.714 0 00-.494-.01zm4.358.054v-.027a.447.447 0 00.055-.004.72.72 0 00.14.257l-.043.01a.439.439 0 00-.152-.236z" fill="#F9A825"/><path d="M41.352 44.052a1.52 1.52 0 00-1.517 1.601l.986 13.55a1.52 1.52 0 001.517 1.437h12.704a1.519 1.519 0 001.517-1.438l.986-13.549a1.518 1.518 0 00-1.518-1.6H41.352z" fill="#3F3D56"/><path d="M42.942 44.052h-.873V60.64h.873V44.052zm2.474 0h-.873V60.64h.873V44.052zm2.474 0h-.873V60.64h.873V44.052zm2.473 0h-.873V60.64h.873V44.052zm2.474 0h-.873V60.64h.873V44.052zm2.473 0h-.873V60.64h.873V44.052z" fill="#D12421"/><path d="M54.435 52.275l-2.828 1.65s-6.834 5.656-2.12 6.598c4.713.943 5.891-4.006 5.891-4.006l1.65-1.886-2.593-2.356z" fill="#FFB8B8"/><path d="M41.002 51.096l2.828 1.65s6.835 5.656 2.121 6.599c-4.714.943-5.892-4.006-5.892-4.006l-1.65-1.886 2.593-2.357z" fill="#FFB8B8"/><path d="M58.206 28.706l3.064.236s2.357 2.121 2.121 4.95c0 0 2.121 6.127 1.65 8.72 0 0 .471 4.242-.236 5.892-.707 1.65-6.599 8.013-6.599 8.013s-5.42-4.242-5.185-4.478l7.07-7.07-3.535-4.714 1.65-11.549zm-20.033-1.649l-.117.117s-5.303 2.24-5.068 5.068c0 0-2.12 6.127-1.65 8.72 0 0-.47 4.242.236 5.892.707 1.65 6.6 8.013 6.6 8.013s5.42-4.242 5.184-4.478l-7.07-7.07 3.535-4.714-1.65-11.548z" fill="#E6E6E6"/></g><defs><clipPath id="clip0"><path fill="#fff" transform="translate(.924)" d="M0 0h104.732v100H0z"/></clipPath></defs></svg>