<svg width="141" height="100" fill="none" xmlns="http://www.w3.org/2000/svg"><g clip-path="url(#clip0)"><path d="M122.502 86.999a17.189 17.189 0 01-3.402-.046c-12.419-1.373-29.331-.982-43.118 7.56-19.066 11.811-48.946 1.7-62.127-3.802C3.785 86.51-1.444 76.22 1.697 66.56c.044-.136.09-.272.137-.409 1.976-5.74 5.877-10.233 10.707-12.614 4.21-2.076 10.357-6.41 13.093-14.738 1.13-3.439 2.68-6.674 4.692-9.494 5.39-7.552 16.675-18.798 36.083-18.728a31.28 31.28 0 019.998 1.692c7.09 2.416 13.494 7.328 18.377 14.136 3.116 4.343 7.786 8.38 14.471 8.71 9.277.459 18.131 4.778 24.773 12.465.192.221.381.444.57.668C146.424 62.336 138.21 85.626 122.502 87z" fill="#323145"/><path opacity=".7" d="M34.867 85.617a1.695 1.695 0 100-3.39 1.695 1.695 0 000 3.39z" fill="url(#paint0_linear)"/><path opacity=".2" d="M34.867 85.54a1.619 1.619 0 100-3.237 1.619 1.619 0 000 3.238z" fill="#000"/><path d="M25.736 51.49a.626.626 0 100-1.253.626.626 0 000 1.253zm44.705 36.354a.626.626 0 100-1.253.626.626 0 000 1.253zM44.035 90.76a.35.35 0 100-.7.35.35 0 000 .7zm77.498-16.948a.35.35 0 100-.7.35.35 0 000 .7zM101.514 42.37a.35.35 0 100-.7.35.35 0 000 .7zm28.37 15.353a.35.35 0 100-.7.35.35 0 000 .7zM36.79 30.98a.626.626 0 100-1.254.626.626 0 000 1.253zM19.574 72.734h-.558v-.558h-.227v.558h-.558v.227h.558v.556h.227v-.556h.558v-.227zm14.001-.246h-.558v-.558h-.227v.558h-.557v.227h.557v.556h.227v-.556h.558v-.227zm20.019 11.299h-.557v-.558h-.228v.558h-.557v.227h.557v.556h.228v-.556h.557v-.227zm27.883-67.734h-.254V15.8h-.103v.254h-.254v.104h.254v.254h.103v-.255h.254v-.103zm36.231 23.336h-.254v-.255h-.103v.255h-.254v.103h.254v.254h.103v-.254h.254v-.103zm-21.37 15.229h-.254v-.254h-.103v.254h-.254v.103h.254v.254h.103v-.254h.254v-.103zm-86.954 9.58H9.13v-.255h-.104v.255h-.254v.103h.254v.254h.104v-.254h.254v-.103zm10.439 20.878h-.254v-.254h-.103v.254h-.255v.104h.255v.254h.103v-.254h.254v-.104zm32.792-65.952h-.254v-.254h-.103v.254h-.254v.103h.254v.254h.103v-.254h.254v-.103zM37.14 55.846h-.254v-.254h-.103v.254h-.254v.103h.254v.255h.103v-.255h.254v-.103zm3.316-10.562h-.254v-.254H40.1v.254h-.254v.103h.254v.254h.103v-.254h.255v-.103z" fill="#fff"/><path opacity=".7" d="M92.676 69.658a1.415 1.415 0 100-2.83 1.415 1.415 0 000 2.83z" fill="url(#paint1_linear)"/><path opacity=".2" d="M92.676 69.554a1.31 1.31 0 100-2.621 1.31 1.31 0 000 2.62zm3.528 9.379a1.465 1.465 0 100-2.93 1.465 1.465 0 000 2.93z" fill="#000"/><path opacity=".7" d="M83.074 37.708a19.01 19.01 0 00-2.15-8.842c-.674-1.283-1.289-2.078-1.763-2.569a1.259 1.259 0 00-1.442-.277c-.191.068-.364.18-.505.325-.64.664-1.218 1.54-1.72 2.473a19.09 19.09 0 00-2.255 9.088v1.901h-1.22V17.7c0-4.633-1.036-9.203-3.07-13.256-.963-1.92-1.843-3.114-2.517-3.847a1.745 1.745 0 00-2.622 0c-.914.993-1.739 2.307-2.456 3.704-2.136 4.141-3.22 8.843-3.22 13.61V39.8H57.08v-1.994a19.085 19.085 0 00-2.256-9.082c-.505-.932-1.084-1.809-1.72-2.472a1.262 1.262 0 00-1.474-.268l.045.023a1.323 1.323 0 00-.412.288c-.473.491-1.088 1.286-1.762 2.568a19.01 19.01 0 00-2.15 8.843v33.038h3.764l-.416 2.715v8.122h3.078v-8.122l-.411-2.717h3.709v-30.09h1.054v29.96h3.005l-.431 2.847v8.122h3.078v-8.122l-.431-2.85h4.053l-.434 2.85v8.122h3.078v-8.122l-.431-2.85h2.4V40.654h1.22V70.79h.988v-.045h3.27l-.411 2.713v8.122h3.078v-8.122l-.412-2.717h3.325V37.708z" fill="url(#paint2_linear)"/><path d="M54.388 71.879h-2.915l.52-3.539h1.874l.52 3.539z" fill="#535461"/><path opacity=".1" d="M51.849 69.745h2.163l-.145-.989h-1.873l-.145.99z" fill="#000"/><path d="M79.362 71.879H76.45l.52-3.539h1.874l.52 3.539z" fill="#535461"/><path opacity=".1" d="M76.824 69.745h2.164l-.145-.989h-1.874l-.145.99z" fill="#000"/><path d="M63.857 71.879h-2.913l.519-3.539h1.874l.52 3.539z" fill="#535461"/><path opacity=".1" d="M61.318 69.745h2.164l-.145-.989h-1.874l-.145.99z" fill="#000"/><path d="M69.789 71.879h-2.913l.52-3.539h1.872l.52 3.539z" fill="#535461"/><path opacity=".1" d="M67.25 69.745h2.164l-.146-.989h-1.873l-.145.99z" fill="#000"/><path d="M75.2 39.099H54.388v.833H75.2v-.833z" fill="#535461"/><path d="M78.417 25.948a1.171 1.171 0 00-1.74 0c-.605.646-1.153 1.5-1.63 2.407a19.01 19.01 0 00-2.136 8.843v32.035h9.211v-32.17a18.942 18.942 0 00-2.035-8.615c-.64-1.248-1.222-2.029-1.67-2.5zm-26.415 0a1.173 1.173 0 011.74 0c.606.646 1.153 1.5 1.632 2.407a19.022 19.022 0 012.136 8.843v32.035h-9.212v-32.17a18.94 18.94 0 012.035-8.615c.64-1.248 1.221-2.029 1.67-2.5z" fill="#E0E0E0"/><path d="M48.351 37.745l2.186.011v2.695h-2.186v-2.706zm6.973 0l2.186.011v2.695h-2.186v-2.706zm17.586 0l2.186.011v2.695H72.91v-2.706zm6.973 0l2.185.011v2.695h-2.185v-2.706z" fill="#535461"/><path opacity=".1" d="M55.374 28.313c-.48-.908-1.026-1.761-1.633-2.407a1.169 1.169 0 00-1.391-.262c.132.066.25.155.351.262.606.646 1.154 1.5 1.631 2.407a19.006 19.006 0 012.136 8.843v32.033h1.041V37.157a19.021 19.021 0 00-2.135-8.844zm20.506.088c.477-.907 1.025-1.76 1.63-2.407.114-.122.25-.22.403-.287a1.172 1.172 0 00-1.338.287c-.607.646-1.155 1.5-1.633 2.407a19.022 19.022 0 00-2.135 8.843v32.038h.937V37.247a19.009 19.009 0 012.135-8.846z" fill="#000"/><path d="M52.97 79.788h-.08a1.417 1.417 0 01-1.417-1.417v-6.492h2.915v6.492a1.417 1.417 0 01-1.418 1.417z" fill="url(#paint3_linear)"/><path d="M62.44 79.788h-.08a1.417 1.417 0 01-1.416-1.417v-6.492h2.913v6.492a1.418 1.418 0 01-1.416 1.417z" fill="url(#paint4_linear)"/><path d="M68.371 79.788h-.082a1.417 1.417 0 01-1.413-1.417v-6.492h2.913v6.492a1.417 1.417 0 01-1.418 1.417z" fill="url(#paint5_linear)"/><path d="M77.946 79.788h-.077a1.418 1.418 0 01-1.42-1.417v-6.492h2.913v6.492a1.417 1.417 0 01-1.416 1.417z" fill="url(#paint6_linear)"/><path d="M66.366.829a1.62 1.62 0 00-2.482 0c-.86.968-1.646 2.246-2.334 3.607-2.021 4.033-3.048 8.612-3.048 13.255v51.412h13.141V17.484c0-4.51-.982-8.965-2.903-12.908-.903-1.87-1.734-3.033-2.374-3.747z" fill="#EEE"/><path d="M67.066 6.54H62.91c-.746 0-1.351.605-1.351 1.351v.44c0 .747.605 1.352 1.35 1.352h4.157a1.35 1.35 0 001.35-1.351V7.89a1.35 1.35 0 00-1.35-1.351z" fill="#535461"/><path opacity=".1" d="M71.58 19.448H58.574v.505h13.008v-.505z" fill="#000"/><path d="M94.259 38.237A4.217 4.217 0 1090.895 45c.09 0 .18 0 .266-.01a4.216 4.216 0 003.1-6.747l-.002-.007z" fill="url(#paint7_linear)"/><path opacity=".2" d="M94.88 40.776a3.986 3.986 0 01-3.734 3.977c-.083 0-.168.009-.252.009a3.988 3.988 0 01-3-6.616 3.988 3.988 0 016.985 2.63z" fill="#000"/><path opacity=".1" d="M89.912 38.248a4.277 4.277 0 00-.594.313.933.933 0 00-.318.285.368.368 0 00-.007.406c.097.133.283.152.448.162.173.022.348.005.513-.051.112-.055.213-.129.3-.218l.343-.31c.122-.108.245-.257.197-.41a.37.37 0 00-.29-.196 1.218 1.218 0 00-.86.151m-1.163 4.18a.21.21 0 100-.42.21.21 0 000 .42zm4.265-.77a.769.769 0 100-1.538.769.769 0 000 1.538zm1.334-3.415a1.049 1.049 0 11-1.187-1.051c.462.268.866.625 1.188 1.051zm.072 4.695a3.976 3.976 0 01-3.007 1.683c0-.055-.007-.11-.007-.167a1.889 1.889 0 013.014-1.515z" fill="#000"/><path d="M39.817 60.988a2.966 2.966 0 00-.877-.776 2.947 2.947 0 10-1.474 5.49c.063 0 .123 0 .187-.006a2.947 2.947 0 002.161-4.708h.003z" fill="url(#paint8_linear)"/><path opacity=".2" d="M40.249 62.76a2.78 2.78 0 01-2.605 2.775h-.176a2.78 2.78 0 111.39-5.189c.323.188.605.438.828.737.367.483.564 1.072.563 1.678z" fill="#000"/><path opacity=".1" d="M36.783 60.997a2.893 2.893 0 00-.414.217.68.68 0 00-.222.2.261.261 0 000 .283.395.395 0 00.312.113.8.8 0 00.358-.035.777.777 0 00.21-.153l.239-.216c.083-.076.174-.18.137-.285a.246.246 0 00-.203-.138.844.844 0 00-.598.106m-.817 2.915a.146.146 0 100-.293.146.146 0 000 .293zm2.975-.536a.537.537 0 100-1.073.537.537 0 000 1.073zm.928-2.383a.736.736 0 11-.83-.736c.324.187.606.438.83.736zm.054 3.276a2.774 2.774 0 01-2.098 1.174v-.123a1.318 1.318 0 012.102-1.057l-.004.006z" fill="#000"/><path d="M118.068 52.82a.226.226 0 100-.452.226.226 0 000 .452z" fill="#fff"/></g><defs><linearGradient id="paint0_linear" x1="34.867" y1="85.617" x2="34.867" y2="82.228" gradientUnits="userSpaceOnUse"><stop stop-color="gray" stop-opacity=".25"/><stop offset=".54" stop-color="gray" stop-opacity=".12"/><stop offset="1" stop-color="gray" stop-opacity=".1"/></linearGradient><linearGradient id="paint1_linear" x1="2208.3" y1="1671.72" x2="2208.3" y2="1606.55" gradientUnits="userSpaceOnUse"><stop stop-color="gray" stop-opacity=".25"/><stop offset=".54" stop-color="gray" stop-opacity=".12"/><stop offset="1" stop-color="gray" stop-opacity=".1"/></linearGradient><linearGradient id="paint2_linear" x1="19942.4" y1="57688.8" x2="19942.4" y2="3498.89" gradientUnits="userSpaceOnUse"><stop stop-color="gray" stop-opacity=".25"/><stop offset=".54" stop-color="gray" stop-opacity=".12"/><stop offset="1" stop-color="gray" stop-opacity=".1"/></linearGradient><linearGradient id="paint3_linear" x1="52.931" y1="71.879" x2="52.931" y2="79.788" gradientUnits="userSpaceOnUse"><stop stop-color="#D12421"/><stop offset=".31" stop-color="#D12421"/><stop offset=".77" stop-color="#D12421"/></linearGradient><linearGradient id="paint4_linear" x1="1616.75" y1="5040.09" x2="1616.75" y2="5549.46" gradientUnits="userSpaceOnUse"><stop stop-color="#D12421"/><stop offset=".31" stop-color="#FCCC63"/><stop offset=".77" stop-color="#F55F44"/></linearGradient><linearGradient id="paint5_linear" x1="1763.39" y1="5040.09" x2="1763.39" y2="5549.46" gradientUnits="userSpaceOnUse"><stop stop-color="#D12421"/><stop offset=".31" stop-color="#FCCC63"/><stop offset=".77" stop-color="#F55F44"/></linearGradient><linearGradient id="paint6_linear" x1="2000.05" y1="5040.1" x2="2000.05" y2="5549.47" gradientUnits="userSpaceOnUse"><stop stop-color="#D12421"/><stop offset=".31" stop-color="#FCCC63"/><stop offset=".77" stop-color="#F55F44"/></linearGradient><linearGradient id="paint7_linear" x1="6544.33" y1="3487.44" x2="6544.33" y2="2908.46" gradientUnits="userSpaceOnUse"><stop stop-color="gray" stop-opacity=".25"/><stop offset=".54" stop-color="gray" stop-opacity=".12"/><stop offset="1" stop-color="gray" stop-opacity=".1"/></linearGradient><linearGradient id="paint8_linear" x1="1988.26" y1="3466.36" x2="1988.26" y2="3183.92" gradientUnits="userSpaceOnUse"><stop stop-color="gray" stop-opacity=".25"/><stop offset=".54" stop-color="gray" stop-opacity=".12"/><stop offset="1" stop-color="gray" stop-opacity=".1"/></linearGradient><clipPath id="clip0"><path fill="#fff" transform="translate(.79)" d="M0 0h139.419v100H0z"/></clipPath></defs></svg>