<svg width="18" height="18" fill="none" xmlns="http://www.w3.org/2000/svg"><path d="M14 0H4C1.8 0 0 1.8 0 4v10c0 2.2 1.8 4 4 4h10c2.2 0 4-1.8 4-4V4c0-2.2-1.8-4-4-4zM9 13.8c-2.7 0-4.9-2.2-4.9-4.9S6.3 4 9 4s4.9 2.2 4.9 4.9c0 2.8-2.2 4.9-4.9 4.9zm6-9.7c-.6 0-1.1-.5-1.1-1.1 0-.6.5-1.1 1.1-1.1.6 0 1.1.5 1.1 1.1 0 .6-.5 1.1-1.1 1.1z" fill="url(#paint0_radial)"/><path d="M10.5 6.402a3 3 0 10-3 5.196 3 3 0 003-5.196z" fill="url(#paint1_radial)"/><defs><radialGradient id="paint0_radial" cx="0" cy="0" r="1" gradientUnits="userSpaceOnUse" gradientTransform="rotate(-61.607 17.515 5.895) scale(21.0297)"><stop stop-color="#FEDA75"/><stop offset=".231" stop-color="#FA7E1E"/><stop offset=".484" stop-color="#D62976"/><stop offset=".734" stop-color="#962FBF"/><stop offset="1" stop-color="#4F5BD5"/></radialGradient><radialGradient id="paint1_radial" cx="0" cy="0" r="1" gradientUnits="userSpaceOnUse" gradientTransform="rotate(-61.607 17.515 5.895) scale(21.0297)"><stop stop-color="#FEDA75"/><stop offset=".231" stop-color="#FA7E1E"/><stop offset=".484" stop-color="#D62976"/><stop offset=".734" stop-color="#962FBF"/><stop offset="1" stop-color="#4F5BD5"/></radialGradient></defs></svg>