<svg width="341" height="90" fill="none" xmlns="http://www.w3.org/2000/svg"><path fill-rule="evenodd" clip-rule="evenodd" d="M26.952 74.24l-22.656-.025.025-22.657 22.657.026-.026 22.656z" fill="#333"/><path fill-rule="evenodd" clip-rule="evenodd" d="M81.735 75.166h-10.13V39.87h36.446v35.296H97.926V46.722h-16.19v28.444zm31.223-26.302v34.947h9.324V71.853c3.125 3.34 8.218 3.594 9.45 3.594 8.895 0 14.351-5.59 14.351-13.727 0-8.465-5.396-13.815-14.171-13.815-2.207 0-6.505.353-10.054 4.03h-.194l.069-3.07h-8.775zm8.902 12.763c0-7.161 4.47-8.564 7.288-8.564 2.764 0 7.243 1.403 7.243 8.563 0 4.436-1.896 8.676-7.243 8.676-5.457 0-7.29-4.24-7.29-8.676h.002zm47.353 9.782c-3.435 3.185-6.752 4.038-10.428 4.038-10.058 0-10.436-7.464-10.436-10.537V48.864h9.329V63.7c0 5.088 1.786 6.605 5.218 6.605 5.893 0 6.317-5.2 6.317-7.07v-14.37h9.317v25.619h-9.317V71.41zm22.692-7.71h5.707c4.416 0 5.342 1.299 5.342 3.016 0 1.116-.615 2.622-5.216 2.622h-5.831v-5.639h-.002zm-9.317-14.835v25.62h18.519c6.754 0 11.414-1.31 11.414-6.54 0-4.046-2.273-5.815-7.427-6.717v-.154c3.371-.45 6.32-2.53 6.32-6.005 0-6.202-7.365-6.202-10.241-6.202h-18.585v-.002zm9.317 5.146h5.03c2.646 0 4.909.4 4.909 2.522 0 2.318-3.555 2.373-5.087 2.373h-4.852v-4.897.002zm32.4 3.128c0-3.784 4.034-4.075 5.698-4.075 1.046 0 4.914.049 5.028 3.377v.698c-.18 2.528-2.632 2.01-9.505 2.876-5.65.754-11.588 2.17-11.588 8.018 0 2.121.911 7.415 10.852 7.415 3.806 0 7.973-.962 10.429-3.488h.185l.795 2.524h9.808v-.444c-1.773-.36-1.886-2.08-1.829-4.843l.183-11.706c.059-2.974-.24-9.585-14.3-9.585-3.365 0-14.228.304-14.656 9.233h8.9zm10.794 6.758c0 5.146-4.539 6.408-6.82 6.408-1.702 0-4.776-.558-4.776-2.982 0-2.874 3.494-3.424 5.461-3.672 3.617-.513 3.314-.366 6.135-1.372v1.618zm10.303-9.888v-5.146h29.939v5.146h-10.303v20.477h-9.333V54.008h-10.303z" fill="#74B027"/><path fill-rule="evenodd" clip-rule="evenodd" d="M3.913 74.583h23.363V51.535H3.913v23.048z" fill="#363636"/><path fill-rule="evenodd" clip-rule="evenodd" d="M51.298 27.834V62.4h-4.754c-2.062-17.092-12.95-27.83-30.281-29.866v-4.701H51.3h-.002zM3.913 15.652v28.675h6.177c16.249 0 24.496 8.13 24.496 24.163v6.09h29.066V15.653H3.913z" fill="#74B027"/><path d="M299.139 65.66v5.862h-22.124c.239-2.216.958-4.313 2.156-6.29 1.198-1.99 3.564-4.626 7.098-7.905 2.845-2.65 4.589-4.448 5.233-5.391.868-1.303 1.303-2.59 1.303-3.863 0-1.408-.382-2.486-1.146-3.235-.749-.763-1.789-1.145-3.122-1.145-1.318 0-2.366.397-3.144 1.19-.779.794-1.228 2.111-1.348 3.953l-6.289-.629c.374-3.474 1.55-5.967 3.526-7.48 1.977-1.511 4.447-2.268 7.412-2.268 3.25 0 5.803.876 7.66 2.628 1.856 1.752 2.785 3.93 2.785 6.536 0 1.483-.27 2.898-.809 4.245-.524 1.333-1.363 2.733-2.516 4.2-.763.974-2.141 2.374-4.132 4.2-1.992 1.828-3.257 3.04-3.796 3.64a11.304 11.304 0 00-1.281 1.751h12.534zm16.666 5.862v-6.626h-13.477V59.37l14.285-20.91h5.301v20.888h4.088v5.548h-4.088v6.626h-6.109zm0-12.174V48.095l-7.57 11.253h7.57z" fill="#363636"/></svg>