<svg width="155" height="60" fill="none" xmlns="http://www.w3.org/2000/svg"><g clip-path="url(#clip0)" fill="#114B86"><path d="M14.075 29.272V15.235H38.23C35.76 6.631 27.95.284 18.62.01V.003h-.547L17.992 0c-.03 0-.056.003-.085.003H.002v42.106h17.905l.084.002.083-.002h.545V42.1c8.441-.249 15.635-5.466 18.762-12.83H14.075zM114.747.002H72.638v15.235h42.109V.002zm-12.812 29.27H85.45v12.835h16.485V29.272zm-41.87-.002H49.242l5.329-14.029h5.494l5.328 14.03h-5.328zM65.56.002H49.075l-15.99 42.109H81.55L65.562.002zm67.379 29.268h-10.822l5.329-14.029h5.494l5.328 14.03h-5.329zM138.434.002h-16.485l-15.992 42.109h48.468L138.434.002zm-22.308 55.505a2.3 2.3 0 01-2.298 2.298 2.3 2.3 0 01-2.296-2.296v-6.398h-2.07v6.76h.017c.185 2.234 2.077 4.003 4.349 4.003a4.383 4.383 0 004.351-4.003h.016v-6.76h-2.069v6.396zm-71.407-3.132c0-1.588-1.17-2.934-2.711-3.145l-5.696-.003V59.76h2.069v-4.23h1.839l3.015 4.217h2.546l-3.155-4.411a3.145 3.145 0 002.093-2.96zm-3.143 1.07l-.308.013H38.38V51.3h3.196a1.072 1.072 0 110 2.145zm110.013-4.215l-5.574-.002v10.53h2.072V55.71h3.191l.311-.005c1.612-.196 2.836-1.578 2.836-3.233 0-1.657-1.224-3.044-2.836-3.24zm-.403 4.409h-3.099v-2.34h3.099c.643 0 1.169.527 1.169 1.17 0 .645-.526 1.17-1.169 1.17zm-73.749-4.652a5.512 5.512 0 00-5.507 5.506A5.513 5.513 0 0077.437 60a5.513 5.513 0 005.507-5.507 5.512 5.512 0 00-5.507-5.506zm0 8.943A3.44 3.44 0 0174 54.493a3.44 3.44 0 013.438-3.437 3.44 3.44 0 013.438 3.438 3.44 3.44 0 01-3.438 3.436zm-70.199-.47l-.011.007c-.083.047-.165.09-.243.127l-.07.033a3.39 3.39 0 01-1.408.304 3.442 3.442 0 01-3.437-3.438 3.44 3.44 0 013.437-3.436c1.083 0 2.005.258 2.609.957v-2.37a5.472 5.472 0 00-2.61-.656A5.512 5.512 0 000 54.493 5.514 5.514 0 005.506 60c.44 0 .877-.052 1.3-.157v.017l.406-.13c.094-.031.194-.065.3-.107l.064-.026c.1-.041.2-.086.305-.135l.034-.016a5.538 5.538 0 001.293-.871l.1-.095v-4.27h-2.07v3.248z"/></g><defs><clipPath id="clip0"><path fill="#fff" d="M0 0h154.426v60H0z"/></clipPath></defs></svg>