<svg width="210" height="90" fill="none" xmlns="http://www.w3.org/2000/svg"><path fill="#fff" d="M0 0h210v90H0z"/><path d="M22.188 72.871c-3.819 0-7.178-.805-10.077-2.415-2.899-1.61-5.154-3.866-6.764-6.765C3.782 60.746 3 57.364 3 53.545v-27.54h10.077v26.78c0 3.406.806 6.12 2.416 8.146 1.657 1.978 3.888 2.968 6.695 2.968 2.807 0 5.04-.99 6.696-2.968 1.656-2.025 2.484-4.74 2.484-8.145V26.005h10.009v27.54c0 3.82-.806 7.201-2.416 10.146-1.564 2.9-3.796 5.154-6.695 6.765-2.9 1.61-6.258 2.415-10.078 2.415zm39.595-54.775v37.826h-9.736V18.096H39.59V10h34.65v8.096H61.784zm35.449 16.296c-.024-2.35-.629-4.176-1.815-5.479s-2.803-1.954-4.85-1.954c-2.024 0-3.618.651-4.781 1.954-1.163 1.28-1.826 3.106-1.99 5.479h13.436zm7.014 19.68c-3.304 1.652-7.422 2.478-12.353 2.478-5.653 0-10.073-1.547-13.26-4.64-3.164-3.118-4.746-7.585-4.746-13.4 0-5.816 1.465-10.33 4.396-13.54 2.978-3.21 6.991-4.816 12.04-4.816 5.07 0 8.99 1.42 11.759 4.258 2.768 2.838 4.153 6.735 4.153 11.69v4.64H83.588c.093 2.746.895 4.886 2.407 6.422 1.536 1.512 3.653 2.268 6.351 2.268 4.025 0 7.991-.92 11.9-2.757v7.398zm38.784 1.85h-6.7l-1.85-4.78h-.244c-1.628 2.047-3.292 3.466-4.99 4.257-1.698.767-3.92 1.151-6.665 1.151-3.396 0-6.06-.965-7.991-2.896-1.931-1.954-2.896-4.734-2.896-8.34s1.279-6.304 3.838-8.096c2.583-1.79 6.537-2.78 11.865-2.966l6.106-.174v-1.536c0-3.559-1.826-5.339-5.478-5.339-2.769 0-6.06.838-9.876 2.513l-3.175-6.456c4.025-2.117 8.456-3.175 13.295-3.175 4.862 0 8.538 1.047 11.027 3.14 2.489 2.07 3.734 5.176 3.734 9.317v23.38zm-9.527-13.365v-2.896l-3.699.105c-2.814.093-4.897.605-6.246 1.535-1.349.907-2.024 2.303-2.024 4.188 0 2.698 1.547 4.047 4.641 4.047 2.234 0 4.013-.628 5.339-1.884 1.326-1.28 1.989-2.978 1.989-5.095zm50.795-4.257v17.622h-9.596V35.404c0-2.56-.431-4.455-1.291-5.688-.861-1.256-2.187-1.885-3.979-1.885-2.442 0-4.222.896-5.339 2.688-1.116 1.767-1.675 4.734-1.675 8.898v16.505h-9.561V20.818h7.328l1.291 4.501H162c.93-1.628 2.28-2.896 4.048-3.803 1.791-.908 3.838-1.361 6.141-1.361 5.281 0 8.84 1.721 10.678 5.164h.873c.907-1.652 2.279-2.92 4.117-3.803 1.838-.908 3.92-1.361 6.246-1.361 4.048 0 7.073 1.035 9.073 3.105 2.001 2.07 3.001 5.328 3.001 9.77v22.892h-9.596V35.404c0-2.56-.43-4.455-1.291-5.688-.861-1.256-2.187-1.885-3.978-1.885-2.373 0-4.141.85-5.304 2.548-1.14 1.675-1.71 4.315-1.71 7.921zM62.438 67.042l-.221 1.48h-3.72v8.585h-1.93v-8.585h-3.82v-1.48h9.691zm6.98-.239c1.327 0 2.39.23 3.187.688.798.452 1.197 1.101 1.197 1.948 0 .528-.161.98-.483 1.356-.322.375-.878.655-1.67.84 1.797.178 2.695 1.01 2.695 2.492 0 .707-.207 1.28-.623 1.72-.409.438-.958.76-1.649.964a8.137 8.137 0 01-2.262.296h-4.122v-9.94c.59-.103 1.193-.189 1.81-.259.616-.07 1.256-.105 1.92-.105zm.01 1.385c-.369 0-.69.01-.965.028-.268.02-.55.048-.845.087v2.816h2.051c.664 0 1.19-.108 1.579-.324.395-.217.593-.605.593-1.165 0-.522-.201-.891-.603-1.108-.396-.223-.999-.334-1.81-.334zm-1.81 7.505h2.152c1.696 0 2.544-.534 2.544-1.604 0-.452-.124-.796-.372-1.031-.242-.242-.557-.408-.946-.497a5.298 5.298 0 00-1.206-.133h-2.172v3.265zm14.048-8.89c1.515 0 2.664.478 3.449 1.433.79.954 1.186 2.23 1.186 3.829 0 1.037-.181 1.954-.543 2.75-.355.796-.878 1.416-1.569 1.862-.69.445-1.538.668-2.543.668-1.515 0-2.671-.477-3.469-1.432-.79-.955-1.186-2.231-1.186-3.83 0-1.043.177-1.96.533-2.75.362-.795.888-1.416 1.578-1.861.697-.446 1.552-.669 2.564-.669zm0 1.461c-.871 0-1.528.312-1.97.936-.443.618-.664 1.579-.664 2.884 0 1.292.218 2.25.653 2.874.436.618 1.09.926 1.96.926.872 0 1.526-.308 1.961-.926.436-.624.654-1.588.654-2.893 0-1.299-.218-2.257-.654-2.874-.435-.618-1.082-.927-1.94-.927zm6.949 8.843l2.544-4.25c-1.247-.553-1.87-1.464-1.87-2.73 0-1 .379-1.764 1.136-2.292.764-.529 1.83-.793 3.197-.793h3.942v10.065h-1.93v-3.84h-2.635l-2.232 3.84h-2.151zm4.937-5.205h2.081v-3.475h-2.05c-.745 0-1.308.136-1.69.41-.382.268-.573.697-.573 1.29 0 .623.174 1.075.523 1.355.355.28.925.42 1.709.42zm20.243 5.205V67.042h1.931v4.03h2.02l2.936-4.03h2.091l-3.458 4.66 3.971 5.405h-2.262l-3.318-4.622h-1.98v4.622h-1.931zm16.099-10.304c1.515 0 2.664.478 3.449 1.433.79.954 1.186 2.23 1.186 3.829 0 1.037-.181 1.954-.543 2.75-.355.796-.878 1.416-1.568 1.862-.691.445-1.539.668-2.544.668-1.515 0-2.671-.477-3.469-1.432-.791-.955-1.186-2.231-1.186-3.83 0-1.043.177-1.96.533-2.75.362-.795.888-1.416 1.578-1.861.697-.446 1.552-.669 2.564-.669zm0 1.461c-.871 0-1.528.312-1.971.936-.442.618-.663 1.579-.663 2.884 0 1.292.218 2.25.653 2.874.436.618 1.09.926 1.961.926s1.525-.308 1.96-.926c.436-.624.654-1.588.654-2.893 0-1.299-.218-2.257-.654-2.874-.435-.618-1.082-.927-1.94-.927zm16.531-1.222l.754 10.065h-1.81l-.372-4.68a35.052 35.052 0 01-.07-3.609h-.08l-1.991 6.608h-1.79l-2.212-6.608h-.08c.033.567.043 1.168.03 1.805-.007.63-.027 1.228-.06 1.795l-.272 4.689h-1.789l.734-10.065h2.423l2.151 6.76 1.971-6.76h2.463zm11.263 7.754c0 .4.067.694.201.878.134.178.345.312.633.401l-.452 1.26a3.165 3.165 0 01-1.267-.41c-.355-.216-.617-.547-.784-.993a3.533 3.533 0 01-1.448 1.06 5.026 5.026 0 01-1.9.353c-1.066 0-1.907-.286-2.524-.86-.616-.572-.925-1.326-.925-2.262 0-1.044.429-1.846 1.287-2.406.865-.567 2.105-.85 3.72-.85h1.538v-.764c0-.694-.217-1.188-.653-1.48-.429-.293-1.029-.44-1.8-.44a7.58 7.58 0 00-1.257.124c-.475.083-.985.214-1.528.392l-.492-1.337a10.86 10.86 0 011.88-.506 10.17 10.17 0 011.689-.153c1.36 0 2.379.296 3.056.888.684.592 1.026 1.398 1.026 2.416v4.689zm-4.474 1.174c.489 0 .962-.12 1.417-.363a3.073 3.073 0 001.136-1.012V72.16h-1.407c-1.119 0-1.914.182-2.383.544-.469.357-.704.847-.704 1.471 0 1.197.647 1.795 1.941 1.795zm15.013 1.137v-4.412h-4.364v4.412h-1.93V67.042h1.93v4.192h4.364v-4.192h1.93v10.065h-1.93zm4.325-1.461h.734a3.33 3.33 0 00.764-.946c.208-.382.379-.916.513-1.604.134-.694.245-1.63.332-2.807l.251-3.247h6.988v8.604h.814V80h-1.558l-.312-2.893h-6.656L174.11 80h-1.558v-4.354zm7.661-7.172h-3.338l-.11 1.7a34.059 34.059 0 01-.232 2.273c-.087.61-.201 1.117-.341 1.518a3.232 3.232 0 01-.513.984 3.493 3.493 0 01-.754.697h5.288v-7.172zm13.646 6.322c0 .4.067.694.201.878.134.178.345.312.633.401l-.452 1.26a3.165 3.165 0 01-1.267-.41c-.355-.216-.617-.547-.784-.993a3.533 3.533 0 01-1.448 1.06 5.026 5.026 0 01-1.9.353c-1.066 0-1.907-.286-2.524-.86-.616-.572-.925-1.326-.925-2.262 0-1.044.429-1.846 1.287-2.406.865-.567 2.105-.85 3.72-.85h1.538v-.764c0-.694-.217-1.188-.653-1.48-.429-.293-1.029-.44-1.8-.44a7.56 7.56 0 00-1.256.124 10.95 10.95 0 00-1.529.392l-.492-1.337a10.82 10.82 0 011.88-.506 10.17 10.17 0 011.689-.153c1.36 0 2.379.296 3.056.888.684.592 1.026 1.398 1.026 2.416v4.689zm-4.474 1.174c.489 0 .962-.12 1.417-.363a3.073 3.073 0 001.136-1.012V72.16h-1.407c-1.119 0-1.914.182-2.383.544-.469.357-.704.847-.704 1.471 0 1.197.647 1.795 1.941 1.795zm13.856-12.022l-.211 8.737h-1.689l-.231-8.737h2.131zm-1.045 10.695c.409 0 .751.13 1.025.391.275.261.413.577.413.946 0 .375-.138.697-.413.964a1.41 1.41 0 01-1.025.401c-.396 0-.731-.133-1.006-.4a1.314 1.314 0 01-.402-.965c0-.37.134-.684.402-.946a1.41 1.41 0 011.006-.391z" fill="#D12421"/></svg>