<svg width="18" height="19" fill="none" xmlns="http://www.w3.org/2000/svg"><rect y=".04" width="18" height="18" rx="4" fill="#784F98"/><path fill-rule="evenodd" clip-rule="evenodd" d="M9.549 10.018s.262.022.403-.144l.276-.329c.133-.163.454-.267.768-.101.416.223.953.573 1.322.899.203.162.25.401.112.654l-.001.005a2.782 2.782 0 01-.574.67l-.005.003c-.27.214-.582.338-.915.236l-.006-.008c-.598-.16-2.032-.854-2.946-1.546C6.487 9.24 5.424 7.393 5.13 6.404l-.009-.006c-.108-.317.024-.612.249-.868l.004-.005c.22-.228.454-.409.706-.543l.006-.002c.265-.13.517-.087.69.107.225.22.649.753.946 1.253.175.298.066.603-.106.728l-.347.261c-.175.135-.152.384-.152.384s.513 1.84 2.432 2.305zm3.018-1.526a.182.182 0 01-.187-.176c-.009-1.068-.347-1.918-1.005-2.527-.66-.61-1.493-.922-2.477-.929a.181.181 0 01-.185-.178.18.18 0 01.186-.176H8.9c1.084.007 2.004.354 2.736 1.03.732.677 1.108 1.612 1.117 2.777a.182.182 0 01-.185.179h-.001zm-.981-.364h-.004c-.104-.002-.186-.083-.183-.18.015-.606-.168-1.096-.557-1.5-.388-.401-.92-.62-1.627-.67a.181.181 0 01-.173-.19.185.185 0 01.2-.163c.796.055 1.427.32 1.875.784.451.467.672 1.054.655 1.746a.183.183 0 01-.186.173zm-.959-.305a.183.183 0 01-.186-.168c-.031-.6-.33-.895-.94-.926a.18.18 0 01-.176-.187.183.183 0 01.197-.167c.804.04 1.25.478 1.292 1.262a.18.18 0 01-.177.186h-.01zm4.194 2.024c-.372 2.845-2.566 3.025-2.971 3.148-.172.052-1.773.43-3.784.305 0 0-1.5 1.715-1.968 2.161-.073.07-.159.098-.217.085-.08-.019-.102-.11-.101-.241l.012-2.343c-2.93-.772-2.759-3.673-2.725-5.191.033-1.518.334-2.763 1.227-3.6C5.9 2.794 9.207 3 9.207 3c2.793.011 4.132.809 4.443 1.076 1.03.837 1.555 2.84 1.17 5.772zm-.401-6.482c-.367-.32-1.85-1.34-5.152-1.355 0 0-3.894-.223-5.792 1.43-1.056 1-1.428 2.466-1.466 4.284-.04 1.82-.09 5.226 3.373 6.15l.004.001-.003 1.41s-.021.57.375.687c.479.14.76-.293 1.218-.76.251-.257.597-.634.86-.922 2.368.188 4.19-.244 4.397-.307.478-.148 3.184-.476 3.625-3.883.454-3.513-.22-5.734-1.438-6.736z" fill="#E5E5E5"/></svg>